<?xml version="1.0"?>
<Project_Data Version="8.00">
<Project_Settings>
<ProfileName></ProfileName>
<ProjectWidth>800</ProjectWidth>
<ProjectHeight>600</ProjectHeight>
<IsCustomProject>1</IsCustomProject>
<SavedProjectSettings>1</SavedProjectSettings>
<LastFlashTemplate>-1</LastFlashTemplate>
</Project_Settings>


<AutoSaveFile>C:\Users\Leopo\AppData\Local\TechSmith\Camtasia Studio\8.0\Auto-Saves\Untitled316aa7cf.autosave.camproj</AutoSaveFile>

<ProjectID>B5568900-C04A-491E-9DF3-0D11DB417A4E</ProjectID>

<PowerPointProject>0</PowerPointProject>

<PowerPointFilename></PowerPointFilename>


<Project_Notes>
</Project_Notes>

<Project_MetaData>
<Project_MetaData_Object>
<FieldArrayKey>8</FieldArrayKey>
<Value>Untitled</Value>
</Project_MetaData_Object>
<Project_MetaData_Object>
<FieldArrayKey>13</FieldArrayKey>
<Value>2016-09-29 11:31:08 </Value>
</Project_MetaData_Object>
<Project_MetaData_Object>
<FieldArrayKey>16</FieldArrayKey>
<Value>ENU</Value>
</Project_MetaData_Object>
</Project_MetaData>

<CSMLData>
<GoProject id="1" version="3.0" >
 <Project id="2" editRate="30/1" version="3.0" >
  <Author></Author>
  <Comment></Comment>
  <System></System>
  <SourceBin id="3"  >
    <Source id="4" src="C:\Users\Leopo\Desktop\Arquivos Seminário BD\leonardo 1.mp3" lastMod="20160930T021527" rect="(0,0,0,0)" >
      <SourceTrack range="(0,1221000000)" type="2" editRate="10000000/1" trackRect="(0,0,0,0)" sampleRate="44100/1" bitDepth="0" numChannels="2" filename="" metaData="" />
    </Source>
    <Source id="5" src="C:\Users\Leopo\Desktop\Arquivos Seminário BD\leonardo 2.mp3" lastMod="20160930T020239" rect="(0,0,0,0)" >
      <SourceTrack range="(0,124666667)" type="2" editRate="10000000/1" trackRect="(0,0,0,0)" sampleRate="44100/1" bitDepth="0" numChannels="2" filename="" metaData="" />
    </Source>
    <Source id="6" src="C:\Users\Leopo\Desktop\Arquivos Seminário BD\leonardo 3.mp3" lastMod="20160930T020251" rect="(0,0,0,0)" >
      <SourceTrack range="(0,550000000)" type="2" editRate="10000000/1" trackRect="(0,0,0,0)" sampleRate="44100/1" bitDepth="0" numChannels="2" filename="" metaData="" />
    </Source>
    <Source id="7" src="C:\Users\Leopo\Desktop\Arquivos Seminário BD\leonardo 4.mp3" lastMod="20160930T022944" rect="(0,0,0,0)" >
      <SourceTrack range="(0,112666667)" type="2" editRate="10000000/1" trackRect="(0,0,0,0)" sampleRate="44100/1" bitDepth="0" numChannels="2" filename="" metaData="" />
    </Source>
    <Source id="8" src="C:\Users\Leopo\Desktop\Arquivos Seminário BD\Slide1.JPG" lastMod="20160930T212558" rect="(0,0,960,720)" >
      <SourceTrack range="(0,1)" type="1" editRate="10000000/1" trackRect="(0,0,960,720)" sampleRate="0/1" bitDepth="24" numChannels="0" filename="" metaData="" />
    </Source>
    <Source id="9" src="C:\Users\Leopo\Desktop\Arquivos Seminário BD\Slide2.JPG" lastMod="20160930T212558" rect="(0,0,960,720)" >
      <SourceTrack range="(0,1)" type="1" editRate="10000000/1" trackRect="(0,0,960,720)" sampleRate="0/1" bitDepth="24" numChannels="0" filename="" metaData="" />
    </Source>
    <Source id="10" src="C:\Users\Leopo\Desktop\Arquivos Seminário BD\Slide3.JPG" lastMod="20160930T212558" rect="(0,0,960,720)" >
      <SourceTrack range="(0,1)" type="1" editRate="10000000/1" trackRect="(0,0,960,720)" sampleRate="0/1" bitDepth="24" numChannels="0" filename="" metaData="" />
    </Source>
    <Source id="11" src="C:\Users\Leopo\Desktop\Arquivos Seminário BD\Slide4.JPG" lastMod="20160930T212558" rect="(0,0,960,720)" >
      <SourceTrack range="(0,1)" type="1" editRate="10000000/1" trackRect="(0,0,960,720)" sampleRate="0/1" bitDepth="24" numChannels="0" filename="" metaData="" />
    </Source>
    <Source id="12" src="C:\Users\Leopo\Desktop\Arquivos Seminário BD\leopoldo 1.mp3" lastMod="20160930T212730" rect="(0,0,0,0)" >
      <SourceTrack range="(0,1517333333)" type="2" editRate="10000000/1" trackRect="(0,0,0,0)" sampleRate="44100/1" bitDepth="0" numChannels="2" filename="" metaData="" />
    </Source>
    <Source id="13" src="C:\Users\Leopo\Desktop\Arquivos Seminário BD\Slide5.JPG" lastMod="20160930T212558" rect="(0,0,960,720)" >
      <SourceTrack range="(0,1)" type="1" editRate="10000000/1" trackRect="(0,0,960,720)" sampleRate="0/1" bitDepth="24" numChannels="0" filename="" metaData="" />
    </Source>
    <Source id="14" src="C:\Users\Leopo\Desktop\Arquivos Seminário BD\Slide6.JPG" lastMod="20160930T212558" rect="(0,0,960,720)" >
      <SourceTrack range="(0,1)" type="1" editRate="10000000/1" trackRect="(0,0,960,720)" sampleRate="0/1" bitDepth="24" numChannels="0" filename="" metaData="" />
    </Source>
    <Source id="15" src="C:\Users\Leopo\Desktop\Arquivos Seminário BD\problema hyml.jpg" lastMod="20160930T215957" rect="(0,0,1366,768)" >
      <SourceTrack range="(0,1)" type="1" editRate="10000000/1" trackRect="(0,0,1366,768)" sampleRate="0/1" bitDepth="24" numChannels="0" filename="" metaData="" />
    </Source>
    <Source id="16" src="C:\Users\Leopo\Desktop\Arquivos Seminário BD\Slide7.JPG" lastMod="20160930T212558" rect="(0,0,960,720)" >
      <SourceTrack range="(0,1)" type="1" editRate="10000000/1" trackRect="(0,0,960,720)" sampleRate="0/1" bitDepth="24" numChannels="0" filename="" metaData="" />
    </Source>
    <Source id="17" src="C:\Users\Leopo\Desktop\Arquivos Seminário BD\Slide9.JPG" lastMod="20160930T212559" rect="(0,0,960,720)" >
      <SourceTrack range="(0,1)" type="1" editRate="10000000/1" trackRect="(0,0,960,720)" sampleRate="0/1" bitDepth="24" numChannels="0" filename="" metaData="" />
    </Source>
    <Source id="18" src="C:\Users\Leopo\Desktop\Arquivos Seminário BD\Slide11.JPG" lastMod="20160930T212559" rect="(0,0,960,720)" >
      <SourceTrack range="(0,1)" type="1" editRate="10000000/1" trackRect="(0,0,960,720)" sampleRate="0/1" bitDepth="24" numChannels="0" filename="" metaData="" />
    </Source>
    <Source id="19" src="C:\Users\Leopo\Desktop\Arquivos Seminário BD\Slide12.JPG" lastMod="20160930T212559" rect="(0,0,960,720)" >
      <SourceTrack range="(0,1)" type="1" editRate="10000000/1" trackRect="(0,0,960,720)" sampleRate="0/1" bitDepth="24" numChannels="0" filename="" metaData="" />
    </Source>
    <Source id="20" src="C:\Users\Leopo\Desktop\Arquivos Seminário BD\Slide13.JPG" lastMod="20160930T212559" rect="(0,0,960,720)" >
      <SourceTrack range="(0,1)" type="1" editRate="10000000/1" trackRect="(0,0,960,720)" sampleRate="0/1" bitDepth="24" numChannels="0" filename="" metaData="" />
    </Source>
    <Source id="21" src="C:\Users\Leopo\Desktop\Arquivos Seminário BD\Slide14.JPG" lastMod="20160930T212559" rect="(0,0,960,720)" >
      <SourceTrack range="(0,1)" type="1" editRate="10000000/1" trackRect="(0,0,960,720)" sampleRate="0/1" bitDepth="24" numChannels="0" filename="" metaData="" />
    </Source>
    <Source id="22" src="C:\Users\Leopo\Desktop\Arquivos Seminário BD\leopoldo 7.mp3" lastMod="20160930T222714" rect="(0,0,0,0)" >
      <SourceTrack range="(0,553333333)" type="2" editRate="10000000/1" trackRect="(0,0,0,0)" sampleRate="44100/1" bitDepth="0" numChannels="2" filename="" metaData="" />
    </Source>
    <Source id="23" src="C:\Users\Leopo\Desktop\Arquivos Seminário BD\leopoldo 8.mp3" lastMod="20160930T222833" rect="(0,0,0,0)" >
      <SourceTrack range="(0,580666667)" type="2" editRate="10000000/1" trackRect="(0,0,0,0)" sampleRate="44100/1" bitDepth="0" numChannels="2" filename="" metaData="" />
    </Source>
    <Source id="24" src="C:\Users\Leopo\Desktop\Arquivos Seminário BD\leopoldo 9.mp3" lastMod="20160930T223124" rect="(0,0,0,0)" >
      <SourceTrack range="(0,1020000000)" type="2" editRate="10000000/1" trackRect="(0,0,0,0)" sampleRate="44100/1" bitDepth="0" numChannels="2" filename="" metaData="" />
    </Source>
    <Source id="25" src="C:\Users\Leopo\Desktop\Arquivos Seminário BD\leopoldo 3.mp3" lastMod="20160930T222623" rect="(0,0,0,0)" >
      <SourceTrack range="(0,602000000)" type="2" editRate="10000000/1" trackRect="(0,0,0,0)" sampleRate="44100/1" bitDepth="0" numChannels="2" filename="" metaData="" />
    </Source>
    <Source id="26" src="C:\Users\Leopo\Desktop\Arquivos Seminário BD\leopoldo 4.mp3" lastMod="20160930T222638" rect="(0,0,0,0)" >
      <SourceTrack range="(0,345000000)" type="2" editRate="10000000/1" trackRect="(0,0,0,0)" sampleRate="44100/1" bitDepth="0" numChannels="2" filename="" metaData="" />
    </Source>
    <Source id="27" src="C:\Users\Leopo\Desktop\Arquivos Seminário BD\leopoldo 5.mp3" lastMod="20160930T222652" rect="(0,0,0,0)" >
      <SourceTrack range="(0,319333333)" type="2" editRate="10000000/1" trackRect="(0,0,0,0)" sampleRate="44100/1" bitDepth="0" numChannels="2" filename="" metaData="" />
    </Source>
    <Source id="28" src="C:\Users\Leopo\Desktop\Arquivos Seminário BD\leopoldo 2.mp3" lastMod="20160930T223907" rect="(0,0,0,0)" >
      <SourceTrack range="(0,320000000)" type="2" editRate="10000000/1" trackRect="(0,0,0,0)" sampleRate="44100/1" bitDepth="0" numChannels="2" filename="" metaData="" />
    </Source>
    <Source id="29" src="C:\Users\Leopo\Desktop\Arquivos Seminário BD\leopoldo 6.mp3" lastMod="20160930T222701" rect="(0,0,0,0)" >
      <SourceTrack range="(0,527000000)" type="2" editRate="10000000/1" trackRect="(0,0,0,0)" sampleRate="44100/1" bitDepth="0" numChannels="2" filename="" metaData="" />
    </Source>
    <Source id="30" src="C:\Users\Leopo\Desktop\Novo(a) Apresentação do Microsoft PowerPoint\Slide11aaaa.JPG" lastMod="20160930T225347" rect="(0,0,960,720)" >
      <SourceTrack range="(0,1)" type="1" editRate="10000000/1" trackRect="(0,0,960,720)" sampleRate="0/1" bitDepth="24" numChannels="0" filename="" metaData="" />
    </Source>
    <Source id="31" src="C:\Users\Leopo\Desktop\Novo(a) Apresentação do Microsoft PowerPoint.jpg" lastMod="20160930T230738" rect="(0,0,960,720)" >
      <SourceTrack range="(0,1)" type="1" editRate="10000000/1" trackRect="(0,0,960,720)" sampleRate="0/1" bitDepth="24" numChannels="0" filename="" metaData="" />
    </Source>
    <Source id="32" src="C:\Users\Leopo\Desktop\Arquivos Seminário BD\WhatsApp Audio 2016-09-30 at 20.14.37.mp3" lastMod="20160930T231457" rect="(0,0,0,0)" >
      <SourceTrack range="(0,188000000)" type="2" editRate="10000000/1" trackRect="(0,0,0,0)" sampleRate="44100/1" bitDepth="0" numChannels="2" filename="" metaData="" />
    </Source>
  </SourceBin>
  <Timeline id="33"  >
   <Attributes>
    <Attribute id="34" value="800" name="width"/>
    <Attribute id="35" value="600" name="height"/>
    <Attribute id="36" value="(0,0,0,255)" name="backgroundColor"/>
   </Attributes>
    <GenericMixer id="37"  name="Unified Mixer">
     <MetaData>
      <entry key="MixerType" val="TimelineMixer"/>
     </MetaData>
     <Tracks>
      <GenericTrack id="38"  >
       <Attributes>
        <Attribute id="39" value="" name="ident"/>
        <Attribute id="40" value="0" name="audioMuted"/>
        <Attribute id="41" value="0" name="videoHidden"/>
       </Attributes>
       <MetaData>
        <entry key="IsLocked" val="False"/>
        <entry key="WinTrackHeight" val="57.227272727272734"/>
       </MetaData>
       <Medias>
       </Medias>
      </GenericTrack>
      <GenericTrack id="42"  >
       <Attributes>
        <Attribute id="43" value="" name="ident"/>
        <Attribute id="44" value="0" name="audioMuted"/>
        <Attribute id="45" value="0" name="videoHidden"/>
       </Attributes>
       <MetaData>
        <entry key="IsLocked" val="False"/>
        <entry key="WinTrackHeight" val="57.227272727272734"/>
       </MetaData>
       <Medias>
        <AMFile id="46" start="0" duration="1342" scalar="1/1" mediaStart="0/1" mediaDuration="1342/1" trackNumber="0" src="4" channelNumber="0,1" >
         <Parameters>
          <InterpolatingParam id="47" interp="linr"  time="0/1" value="1" leadInLength="0/1"  name="volume"/>
          <Parameter id="48"  name="captions"/>
         </Parameters>
         <Attributes>
          <Attribute id="49" value="" name="ident"/>
          <Attribute id="50" value="44100" name="sampleRate"/>
          <Attribute id="51" value="0" name="bitDepth"/>
          <Attribute id="52" value="1" name="gain"/>
          <Attribute id="53" value="0" name="mixToMono"/>
         </Attributes>
         <MetaData>
          <entry key="WinSubProjectDisplayName" val=""/>
         </MetaData>
        </AMFile>
        <AMFile id="54" start="1342" duration="333" scalar="1/1" mediaStart="22/1" mediaDuration="333/1" trackNumber="0" src="5" channelNumber="0,1" >
         <Parameters>
          <InterpolatingParam id="55" interp="linr"  time="0/1" value="1" leadInLength="0/1"  name="volume"/>
          <Parameter id="56"  name="captions"/>
         </Parameters>
         <Attributes>
          <Attribute id="57" value="" name="ident"/>
          <Attribute id="58" value="44100" name="sampleRate"/>
          <Attribute id="59" value="0" name="bitDepth"/>
          <Attribute id="60" value="1" name="gain"/>
          <Attribute id="61" value="0" name="mixToMono"/>
         </Attributes>
         <MetaData>
          <entry key="WinSubProjectDisplayName" val=""/>
         </MetaData>
        </AMFile>
        <AMFile id="62" start="1675" duration="1818" scalar="1/1" mediaStart="1342/1" mediaDuration="1818/1" trackNumber="0" src="4" channelNumber="0,1" >
         <Parameters>
          <InterpolatingParam id="63" interp="linr"  time="0/1" value="1" leadInLength="0/1"  name="volume"/>
          <Parameter id="64"  name="captions"/>
         </Parameters>
         <Attributes>
          <Attribute id="65" value="" name="ident"/>
          <Attribute id="66" value="44100" name="sampleRate"/>
          <Attribute id="67" value="0" name="bitDepth"/>
          <Attribute id="68" value="1" name="gain"/>
          <Attribute id="69" value="0" name="mixToMono"/>
         </Attributes>
         <MetaData>
          <entry key="WinSubProjectDisplayName" val=""/>
         </MetaData>
        </AMFile>
        <AMFile id="70" start="3493" duration="1391" scalar="1/1" mediaStart="16/1" mediaDuration="1391/1" trackNumber="0" src="6" channelNumber="0,1" >
         <Parameters>
          <InterpolatingParam id="71" interp="linr"  time="0/1" value="1" leadInLength="0/1"  name="volume"/>
          <Parameter id="72"  name="captions"/>
         </Parameters>
         <Attributes>
          <Attribute id="73" value="" name="ident"/>
          <Attribute id="74" value="44100" name="sampleRate"/>
          <Attribute id="75" value="0" name="bitDepth"/>
          <Attribute id="76" value="1" name="gain"/>
          <Attribute id="77" value="0" name="mixToMono"/>
         </Attributes>
         <MetaData>
          <entry key="WinSubProjectDisplayName" val=""/>
         </MetaData>
        </AMFile>
        <StitchedMedia id="78" start="4884" duration="259" scalar="1/1" mediaStart="41/1" mediaDuration="259/1" minMediaStart="0/1" >
         <Transformer>
          <VectorParam id="79"  name="translation">
           <InterpolatingParam id="80" interp="linr"  time="0/1" value="0" leadInLength="0/1"  />
           <InterpolatingParam id="81" interp="linr"  time="0/1" value="0" leadInLength="0/1"  />
           <InterpolatingParam id="82" interp="linr"  time="0/1" value="0" leadInLength="0/1"  />
          </VectorParam>
          <VectorParam id="83"  name="rotation">
           <InterpolatingParam id="84" interp="linr"  time="0/1" value="0" leadInLength="0/1"  />
           <InterpolatingParam id="85" interp="linr"  time="0/1" value="0" leadInLength="0/1"  />
           <InterpolatingParam id="86" interp="linr"  time="0/1" value="0" leadInLength="0/1"  />
          </VectorParam>
          <VectorParam id="87"  name="shear">
           <InterpolatingParam id="88" interp="linr"  time="0/1" value="0" leadInLength="0/1"  />
           <InterpolatingParam id="89" interp="linr"  time="0/1" value="0" leadInLength="0/1"  />
           <InterpolatingParam id="90" interp="linr"  time="0/1" value="0" leadInLength="0/1"  />
          </VectorParam>
          <VectorParam id="91"  name="scale">
           <InterpolatingParam id="92" interp="linr"  time="0/1" value="1" leadInLength="0/1"  />
           <InterpolatingParam id="93" interp="linr"  time="0/1" value="1" leadInLength="0/1"  />
           <InterpolatingParam id="94" interp="linr"  time="0/1" value="1" leadInLength="0/1"  />
          </VectorParam>
          <VectorParam id="95"  name="anchor">
           <InterpolatingParam id="96" interp="linr"  time="0/1" value="0" leadInLength="0/1"  />
           <InterpolatingParam id="97" interp="linr"  time="0/1" value="0" leadInLength="0/1"  />
           <InterpolatingParam id="98" interp="linr"  time="0/1" value="0" leadInLength="0/1"  />
          </VectorParam>
         </Transformer>
         <Parameters>
          <InterpolatingParam id="99" interp="linr"  time="0/1" value="1" leadInLength="0/1"  name="cursorOpacity"/>
          <InterpolatingParam id="100" interp="linr"  time="0/1" value="1" leadInLength="0/1"  name="cursorScale"/>
          <InterpolatingParam id="101" interp="linr"  time="0/1" value="1" leadInLength="0/1"  name="volume"/>
          <Parameter id="102"  name="captions"/>
         </Parameters>
         <Attributes>
          <Attribute id="103" value="" name="ident"/>
          <Attribute id="104" value="0" name="mixToMono"/>
         </Attributes>
         <MetaData>
          <entry key="WinSubProjectDisplayName" val=""/>
         </MetaData>
         <ExtraData>
          <Entry key="ZoomPanBin">
           <ZoomPanBin id="105"  >
            <ZoomPanKeyframes>
            </ZoomPanKeyframes>
           </ZoomPanBin>
          </Entry>
          <Entry key="CursorEffectBin">
           <CursorEffectBin id="106"  >
            <CursorEffectKeyframes>
            </CursorEffectKeyframes>
           </CursorEffectBin>
          </Entry>
         </ExtraData>
         <GenericTrack id="107"  >
          <Attributes>
           <Attribute id="108" value="" name="ident"/>
           <Attribute id="109" value="0" name="audioMuted"/>
           <Attribute id="110" value="0" name="videoHidden"/>
          </Attributes>
          <MetaData>
           <entry key="IsLocked" val="False"/>
           <entry key="WinTrackHeight" val="0"/>
          </MetaData>
          <Medias>
           <AMFile id="111" start="0" duration="170" scalar="1/1" mediaStart="0/1" mediaDuration="170/1" trackNumber="0" src="7" channelNumber="0,1" >
            <Parameters>
             <InterpolatingParam id="112" interp="linr"  time="0/1" value="1" leadInLength="0/1"  name="volume"/>
             <Parameter id="113"  name="captions"/>
            </Parameters>
            <Attributes>
             <Attribute id="114" value="" name="ident"/>
             <Attribute id="115" value="44100" name="sampleRate"/>
             <Attribute id="116" value="0" name="bitDepth"/>
             <Attribute id="117" value="1" name="gain"/>
             <Attribute id="118" value="0" name="mixToMono"/>
            </Attributes>
            <MetaData>
             <entry key="WinSubProjectDisplayName" val=""/>
            </MetaData>
           </AMFile>
           <AMFile id="119" start="170" duration="56" scalar="1/1" mediaStart="184/1" mediaDuration="56/1" trackNumber="0" src="7" channelNumber="0,1" >
            <Parameters>
             <InterpolatingParam id="120" interp="linr"  time="0/1" value="1" leadInLength="0/1"  name="volume"/>
             <Parameter id="121"  name="captions"/>
            </Parameters>
            <Attributes>
             <Attribute id="122" value="" name="ident"/>
             <Attribute id="123" value="44100" name="sampleRate"/>
             <Attribute id="124" value="0" name="bitDepth"/>
             <Attribute id="125" value="1" name="gain"/>
             <Attribute id="126" value="0" name="mixToMono"/>
            </Attributes>
            <MetaData>
             <entry key="WinSubProjectDisplayName" val=""/>
            </MetaData>
           </AMFile>
           <AMFile id="127" start="226" duration="81" scalar="1/1" mediaStart="257/1" mediaDuration="81/1" trackNumber="0" src="7" channelNumber="0,1" >
            <Parameters>
             <InterpolatingParam id="128" interp="linr"  time="0/1" value="1" leadInLength="0/1"  name="volume"/>
             <Parameter id="129"  name="captions"/>
            </Parameters>
            <Attributes>
             <Attribute id="130" value="" name="ident"/>
             <Attribute id="131" value="44100" name="sampleRate"/>
             <Attribute id="132" value="0" name="bitDepth"/>
             <Attribute id="133" value="1" name="gain"/>
             <Attribute id="134" value="0" name="mixToMono"/>
            </Attributes>
            <MetaData>
             <entry key="WinSubProjectDisplayName" val=""/>
            </MetaData>
           </AMFile>
          </Medias>
         </GenericTrack>
        </StitchedMedia>
        <StitchedMedia id="135" start="5143" duration="107" scalar="1/1" mediaStart="0/1" mediaDuration="107/1" minMediaStart="0/1" >
         <Transformer>
          <VectorParam id="136"  name="translation">
           <InterpolatingParam id="137" interp="linr"  time="0/1" value="0" leadInLength="0/1"  />
           <InterpolatingParam id="138" interp="linr"  time="0/1" value="0" leadInLength="0/1"  />
           <InterpolatingParam id="139" interp="linr"  time="0/1" value="0" leadInLength="0/1"  />
          </VectorParam>
          <VectorParam id="140"  name="rotation">
           <InterpolatingParam id="141" interp="linr"  time="0/1" value="0" leadInLength="0/1"  />
           <InterpolatingParam id="142" interp="linr"  time="0/1" value="0" leadInLength="0/1"  />
           <InterpolatingParam id="143" interp="linr"  time="0/1" value="0" leadInLength="0/1"  />
          </VectorParam>
          <VectorParam id="144"  name="shear">
           <InterpolatingParam id="145" interp="linr"  time="0/1" value="0" leadInLength="0/1"  />
           <InterpolatingParam id="146" interp="linr"  time="0/1" value="0" leadInLength="0/1"  />
           <InterpolatingParam id="147" interp="linr"  time="0/1" value="0" leadInLength="0/1"  />
          </VectorParam>
          <VectorParam id="148"  name="scale">
           <InterpolatingParam id="149" interp="linr"  time="0/1" value="1" leadInLength="0/1"  />
           <InterpolatingParam id="150" interp="linr"  time="0/1" value="1" leadInLength="0/1"  />
           <InterpolatingParam id="151" interp="linr"  time="0/1" value="1" leadInLength="0/1"  />
          </VectorParam>
          <VectorParam id="152"  name="anchor">
           <InterpolatingParam id="153" interp="linr"  time="0/1" value="0" leadInLength="0/1"  />
           <InterpolatingParam id="154" interp="linr"  time="0/1" value="0" leadInLength="0/1"  />
           <InterpolatingParam id="155" interp="linr"  time="0/1" value="0" leadInLength="0/1"  />
          </VectorParam>
         </Transformer>
         <Parameters>
          <InterpolatingParam id="156" interp="linr"  time="0/1" value="1" leadInLength="0/1"  name="cursorOpacity"/>
          <InterpolatingParam id="157" interp="linr"  time="0/1" value="1" leadInLength="0/1"  name="cursorScale"/>
          <InterpolatingParam id="158" interp="linr"  time="0/1" value="1" leadInLength="0/1"  name="volume"/>
          <Parameter id="159"  name="captions"/>
         </Parameters>
         <Attributes>
          <Attribute id="160" value="" name="ident"/>
          <Attribute id="161" value="0" name="mixToMono"/>
         </Attributes>
         <MetaData>
          <entry key="WinSubProjectDisplayName" val=""/>
         </MetaData>
         <ExtraData>
          <Entry key="ZoomPanBin">
           <ZoomPanBin id="162"  >
            <ZoomPanKeyframes>
            </ZoomPanKeyframes>
           </ZoomPanBin>
          </Entry>
          <Entry key="CursorEffectBin">
           <CursorEffectBin id="163"  >
            <CursorEffectKeyframes>
            </CursorEffectKeyframes>
           </CursorEffectBin>
          </Entry>
         </ExtraData>
         <GenericTrack id="164"  >
          <Attributes>
           <Attribute id="165" value="" name="ident"/>
           <Attribute id="166" value="0" name="audioMuted"/>
           <Attribute id="167" value="0" name="videoHidden"/>
          </Attributes>
          <MetaData>
           <entry key="IsLocked" val="False"/>
           <entry key="WinTrackHeight" val="0"/>
          </MetaData>
          <Medias>
           <AMFile id="168" start="0" duration="15" scalar="1/1" mediaStart="0/1" mediaDuration="15/1" trackNumber="0" src="12" channelNumber="0,1" >
            <Parameters>
             <InterpolatingParam id="169" interp="linr"  time="0/1" value="1" leadInLength="0/1"  name="volume"/>
             <Parameter id="170"  name="captions"/>
            </Parameters>
            <Attributes>
             <Attribute id="171" value="" name="ident"/>
             <Attribute id="172" value="44100" name="sampleRate"/>
             <Attribute id="173" value="0" name="bitDepth"/>
             <Attribute id="174" value="1" name="gain"/>
             <Attribute id="175" value="0" name="mixToMono"/>
            </Attributes>
            <MetaData>
             <entry key="WinSubProjectDisplayName" val=""/>
            </MetaData>
           </AMFile>
           <AMFile id="176" start="15" duration="4516" scalar="1/1" mediaStart="35/1" mediaDuration="4516/1" trackNumber="0" src="12" channelNumber="0,1" >
            <Parameters>
             <InterpolatingParam id="177" interp="linr"  time="0/1" value="1" leadInLength="0/1"  name="volume"/>
             <Parameter id="178"  name="captions"/>
            </Parameters>
            <Attributes>
             <Attribute id="179" value="" name="ident"/>
             <Attribute id="180" value="44100" name="sampleRate"/>
             <Attribute id="181" value="0" name="bitDepth"/>
             <Attribute id="182" value="1" name="gain"/>
             <Attribute id="183" value="0" name="mixToMono"/>
            </Attributes>
            <MetaData>
             <entry key="WinSubProjectDisplayName" val=""/>
            </MetaData>
           </AMFile>
          </Medias>
         </GenericTrack>
        </StitchedMedia>
        <StitchedMedia id="184" start="5250" duration="2393" scalar="1/1" mediaStart="138/1" mediaDuration="2393/1" minMediaStart="0/1" >
         <Transformer>
          <VectorParam id="185"  name="translation">
           <InterpolatingParam id="186" interp="linr"  time="0/1" value="0" leadInLength="0/1"  />
           <InterpolatingParam id="187" interp="linr"  time="0/1" value="0" leadInLength="0/1"  />
           <InterpolatingParam id="188" interp="linr"  time="0/1" value="0" leadInLength="0/1"  />
          </VectorParam>
          <VectorParam id="189"  name="rotation">
           <InterpolatingParam id="190" interp="linr"  time="0/1" value="0" leadInLength="0/1"  />
           <InterpolatingParam id="191" interp="linr"  time="0/1" value="0" leadInLength="0/1"  />
           <InterpolatingParam id="192" interp="linr"  time="0/1" value="0" leadInLength="0/1"  />
          </VectorParam>
          <VectorParam id="193"  name="shear">
           <InterpolatingParam id="194" interp="linr"  time="0/1" value="0" leadInLength="0/1"  />
           <InterpolatingParam id="195" interp="linr"  time="0/1" value="0" leadInLength="0/1"  />
           <InterpolatingParam id="196" interp="linr"  time="0/1" value="0" leadInLength="0/1"  />
          </VectorParam>
          <VectorParam id="197"  name="scale">
           <InterpolatingParam id="198" interp="linr"  time="0/1" value="1" leadInLength="0/1"  />
           <InterpolatingParam id="199" interp="linr"  time="0/1" value="1" leadInLength="0/1"  />
           <InterpolatingParam id="200" interp="linr"  time="0/1" value="1" leadInLength="0/1"  />
          </VectorParam>
          <VectorParam id="201"  name="anchor">
           <InterpolatingParam id="202" interp="linr"  time="0/1" value="0" leadInLength="0/1"  />
           <InterpolatingParam id="203" interp="linr"  time="0/1" value="0" leadInLength="0/1"  />
           <InterpolatingParam id="204" interp="linr"  time="0/1" value="0" leadInLength="0/1"  />
          </VectorParam>
         </Transformer>
         <Parameters>
          <InterpolatingParam id="205" interp="linr"  time="0/1" value="1" leadInLength="0/1"  name="cursorOpacity"/>
          <InterpolatingParam id="206" interp="linr"  time="0/1" value="1" leadInLength="0/1"  name="cursorScale"/>
          <InterpolatingParam id="207" interp="linr"  time="0/1" value="1" leadInLength="0/1"  name="volume"/>
          <Parameter id="208"  name="captions"/>
         </Parameters>
         <Attributes>
          <Attribute id="209" value="" name="ident"/>
          <Attribute id="210" value="0" name="mixToMono"/>
         </Attributes>
         <MetaData>
          <entry key="WinSubProjectDisplayName" val=""/>
         </MetaData>
         <ExtraData>
          <Entry key="ZoomPanBin">
           <ZoomPanBin id="211"  >
            <ZoomPanKeyframes>
            </ZoomPanKeyframes>
           </ZoomPanBin>
          </Entry>
          <Entry key="CursorEffectBin">
           <CursorEffectBin id="212"  >
            <CursorEffectKeyframes>
            </CursorEffectKeyframes>
           </CursorEffectBin>
          </Entry>
         </ExtraData>
         <GenericTrack id="213"  >
          <Attributes>
           <Attribute id="214" value="" name="ident"/>
           <Attribute id="215" value="0" name="audioMuted"/>
           <Attribute id="216" value="0" name="videoHidden"/>
          </Attributes>
          <MetaData>
           <entry key="IsLocked" val="False"/>
           <entry key="WinTrackHeight" val="0"/>
          </MetaData>
          <Medias>
           <AMFile id="217" start="0" duration="282" scalar="1/1" mediaStart="0/1" mediaDuration="282/1" trackNumber="0" src="12" channelNumber="0,1" >
            <Parameters>
             <InterpolatingParam id="218" interp="linr"  time="0/1" value="1" leadInLength="0/1"  name="volume"/>
             <Parameter id="219"  name="captions"/>
            </Parameters>
            <Attributes>
             <Attribute id="220" value="" name="ident"/>
             <Attribute id="221" value="44100" name="sampleRate"/>
             <Attribute id="222" value="0" name="bitDepth"/>
             <Attribute id="223" value="1" name="gain"/>
             <Attribute id="224" value="0" name="mixToMono"/>
            </Attributes>
            <MetaData>
             <entry key="WinSubProjectDisplayName" val=""/>
            </MetaData>
           </AMFile>
           <AMFile id="225" start="282" duration="56" scalar="1/1" mediaStart="288/1" mediaDuration="56/1" trackNumber="0" src="12" channelNumber="0,1" >
            <Parameters>
             <InterpolatingParam id="226" interp="linr"  time="0/1" value="1" leadInLength="0/1"  name="volume"/>
             <Parameter id="227"  name="captions"/>
            </Parameters>
            <Attributes>
             <Attribute id="228" value="" name="ident"/>
             <Attribute id="229" value="44100" name="sampleRate"/>
             <Attribute id="230" value="0" name="bitDepth"/>
             <Attribute id="231" value="1" name="gain"/>
             <Attribute id="232" value="0" name="mixToMono"/>
            </Attributes>
            <MetaData>
             <entry key="WinSubProjectDisplayName" val=""/>
            </MetaData>
           </AMFile>
           <AMFile id="233" start="338" duration="209" scalar="1/1" mediaStart="352/1" mediaDuration="209/1" trackNumber="0" src="12" channelNumber="0,1" >
            <Parameters>
             <InterpolatingParam id="234" interp="linr"  time="0/1" value="1" leadInLength="0/1"  name="volume"/>
             <Parameter id="235"  name="captions"/>
            </Parameters>
            <Attributes>
             <Attribute id="236" value="" name="ident"/>
             <Attribute id="237" value="44100" name="sampleRate"/>
             <Attribute id="238" value="0" name="bitDepth"/>
             <Attribute id="239" value="1" name="gain"/>
             <Attribute id="240" value="0" name="mixToMono"/>
            </Attributes>
            <MetaData>
             <entry key="WinSubProjectDisplayName" val=""/>
            </MetaData>
           </AMFile>
           <AMFile id="241" start="547" duration="50" scalar="1/1" mediaStart="582/1" mediaDuration="50/1" trackNumber="0" src="12" channelNumber="0,1" >
            <Parameters>
             <InterpolatingParam id="242" interp="linr"  time="0/1" value="1" leadInLength="0/1"  name="volume"/>
             <Parameter id="243"  name="captions"/>
            </Parameters>
            <Attributes>
             <Attribute id="244" value="" name="ident"/>
             <Attribute id="245" value="44100" name="sampleRate"/>
             <Attribute id="246" value="0" name="bitDepth"/>
             <Attribute id="247" value="1" name="gain"/>
             <Attribute id="248" value="0" name="mixToMono"/>
            </Attributes>
            <MetaData>
             <entry key="WinSubProjectDisplayName" val=""/>
            </MetaData>
           </AMFile>
           <AMFile id="249" start="597" duration="176" scalar="1/1" mediaStart="772/1" mediaDuration="176/1" trackNumber="0" src="12" channelNumber="0,1" >
            <Parameters>
             <InterpolatingParam id="250" interp="linr"  time="0/1" value="1" leadInLength="0/1"  name="volume"/>
             <Parameter id="251"  name="captions"/>
            </Parameters>
            <Attributes>
             <Attribute id="252" value="" name="ident"/>
             <Attribute id="253" value="44100" name="sampleRate"/>
             <Attribute id="254" value="0" name="bitDepth"/>
             <Attribute id="255" value="1" name="gain"/>
             <Attribute id="256" value="0" name="mixToMono"/>
            </Attributes>
            <MetaData>
             <entry key="WinSubProjectDisplayName" val=""/>
            </MetaData>
           </AMFile>
           <AMFile id="257" start="773" duration="140" scalar="1/1" mediaStart="961/1" mediaDuration="140/1" trackNumber="0" src="12" channelNumber="0,1" >
            <Parameters>
             <InterpolatingParam id="258" interp="linr"  time="0/1" value="1" leadInLength="0/1"  name="volume"/>
             <Parameter id="259"  name="captions"/>
            </Parameters>
            <Attributes>
             <Attribute id="260" value="" name="ident"/>
             <Attribute id="261" value="44100" name="sampleRate"/>
             <Attribute id="262" value="0" name="bitDepth"/>
             <Attribute id="263" value="1" name="gain"/>
             <Attribute id="264" value="0" name="mixToMono"/>
            </Attributes>
            <MetaData>
             <entry key="WinSubProjectDisplayName" val=""/>
            </MetaData>
           </AMFile>
           <AMFile id="265" start="913" duration="165" scalar="1/1" mediaStart="1112/1" mediaDuration="165/1" trackNumber="0" src="12" channelNumber="0,1" >
            <Parameters>
             <InterpolatingParam id="266" interp="linr"  time="0/1" value="1" leadInLength="0/1"  name="volume"/>
             <Parameter id="267"  name="captions"/>
            </Parameters>
            <Attributes>
             <Attribute id="268" value="" name="ident"/>
             <Attribute id="269" value="44100" name="sampleRate"/>
             <Attribute id="270" value="0" name="bitDepth"/>
             <Attribute id="271" value="1" name="gain"/>
             <Attribute id="272" value="0" name="mixToMono"/>
            </Attributes>
            <MetaData>
             <entry key="WinSubProjectDisplayName" val=""/>
            </MetaData>
           </AMFile>
           <AMFile id="273" start="1078" duration="158" scalar="1/1" mediaStart="1290/1" mediaDuration="158/1" trackNumber="0" src="12" channelNumber="0,1" >
            <Parameters>
             <InterpolatingParam id="274" interp="linr"  time="0/1" value="1" leadInLength="0/1"  name="volume"/>
             <Parameter id="275"  name="captions"/>
            </Parameters>
            <Attributes>
             <Attribute id="276" value="" name="ident"/>
             <Attribute id="277" value="44100" name="sampleRate"/>
             <Attribute id="278" value="0" name="bitDepth"/>
             <Attribute id="279" value="1" name="gain"/>
             <Attribute id="280" value="0" name="mixToMono"/>
            </Attributes>
            <MetaData>
             <entry key="WinSubProjectDisplayName" val=""/>
            </MetaData>
           </AMFile>
           <AMFile id="281" start="1236" duration="1" scalar="1/1" mediaStart="1661/1" mediaDuration="1/1" trackNumber="0" src="12" channelNumber="0,1" >
            <Parameters>
             <InterpolatingParam id="282" interp="linr"  time="0/1" value="1" leadInLength="0/1"  name="volume"/>
             <Parameter id="283"  name="captions"/>
            </Parameters>
            <Attributes>
             <Attribute id="284" value="" name="ident"/>
             <Attribute id="285" value="44100" name="sampleRate"/>
             <Attribute id="286" value="0" name="bitDepth"/>
             <Attribute id="287" value="1" name="gain"/>
             <Attribute id="288" value="0" name="mixToMono"/>
            </Attributes>
            <MetaData>
             <entry key="WinSubProjectDisplayName" val=""/>
            </MetaData>
           </AMFile>
           <AMFile id="289" start="1237" duration="1" scalar="1/1" mediaStart="2276/1" mediaDuration="1/1" trackNumber="0" src="12" channelNumber="0,1" >
            <Parameters>
             <InterpolatingParam id="290" interp="linr"  time="0/1" value="1" leadInLength="0/1"  name="volume"/>
             <Parameter id="291"  name="captions"/>
            </Parameters>
            <Attributes>
             <Attribute id="292" value="" name="ident"/>
             <Attribute id="293" value="44100" name="sampleRate"/>
             <Attribute id="294" value="0" name="bitDepth"/>
             <Attribute id="295" value="1" name="gain"/>
             <Attribute id="296" value="0" name="mixToMono"/>
            </Attributes>
            <MetaData>
             <entry key="WinSubProjectDisplayName" val=""/>
            </MetaData>
           </AMFile>
           <AMFile id="297" start="1238" duration="501" scalar="1/1" mediaStart="2677/1" mediaDuration="501/1" trackNumber="0" src="12" channelNumber="0,1" >
            <Parameters>
             <InterpolatingParam id="298" interp="linr"  time="0/1" value="1" leadInLength="0/1"  name="volume"/>
             <Parameter id="299"  name="captions"/>
            </Parameters>
            <Attributes>
             <Attribute id="300" value="" name="ident"/>
             <Attribute id="301" value="44100" name="sampleRate"/>
             <Attribute id="302" value="0" name="bitDepth"/>
             <Attribute id="303" value="1" name="gain"/>
             <Attribute id="304" value="0" name="mixToMono"/>
            </Attributes>
            <MetaData>
             <entry key="WinSubProjectDisplayName" val=""/>
            </MetaData>
           </AMFile>
           <AMFile id="305" start="1739" duration="73" scalar="1/1" mediaStart="3194/1" mediaDuration="73/1" trackNumber="0" src="12" channelNumber="0,1" >
            <Parameters>
             <InterpolatingParam id="306" interp="linr"  time="0/1" value="1" leadInLength="0/1"  name="volume"/>
             <Parameter id="307"  name="captions"/>
            </Parameters>
            <Attributes>
             <Attribute id="308" value="" name="ident"/>
             <Attribute id="309" value="44100" name="sampleRate"/>
             <Attribute id="310" value="0" name="bitDepth"/>
             <Attribute id="311" value="1" name="gain"/>
             <Attribute id="312" value="0" name="mixToMono"/>
            </Attributes>
            <MetaData>
             <entry key="WinSubProjectDisplayName" val=""/>
            </MetaData>
           </AMFile>
           <AMFile id="313" start="1812" duration="1" scalar="1/1" mediaStart="3528/1" mediaDuration="1/1" trackNumber="0" src="12" channelNumber="0,1" >
            <Parameters>
             <InterpolatingParam id="314" interp="linr"  time="0/1" value="1" leadInLength="0/1"  name="volume"/>
             <Parameter id="315"  name="captions"/>
            </Parameters>
            <Attributes>
             <Attribute id="316" value="" name="ident"/>
             <Attribute id="317" value="44100" name="sampleRate"/>
             <Attribute id="318" value="0" name="bitDepth"/>
             <Attribute id="319" value="1" name="gain"/>
             <Attribute id="320" value="0" name="mixToMono"/>
            </Attributes>
            <MetaData>
             <entry key="WinSubProjectDisplayName" val=""/>
            </MetaData>
           </AMFile>
           <AMFile id="321" start="1813" duration="148" scalar="1/1" mediaStart="3583/1" mediaDuration="148/1" trackNumber="0" src="12" channelNumber="0,1" >
            <Parameters>
             <InterpolatingParam id="322" interp="linr"  time="0/1" value="1" leadInLength="0/1"  name="volume"/>
             <Parameter id="323"  name="captions"/>
            </Parameters>
            <Attributes>
             <Attribute id="324" value="" name="ident"/>
             <Attribute id="325" value="44100" name="sampleRate"/>
             <Attribute id="326" value="0" name="bitDepth"/>
             <Attribute id="327" value="1" name="gain"/>
             <Attribute id="328" value="0" name="mixToMono"/>
            </Attributes>
            <MetaData>
             <entry key="WinSubProjectDisplayName" val=""/>
            </MetaData>
           </AMFile>
           <AMFile id="329" start="1961" duration="34" scalar="1/1" mediaStart="3742/1" mediaDuration="34/1" trackNumber="0" src="12" channelNumber="0,1" >
            <Parameters>
             <InterpolatingParam id="330" interp="linr"  time="0/1" value="1" leadInLength="0/1"  name="volume"/>
             <Parameter id="331"  name="captions"/>
            </Parameters>
            <Attributes>
             <Attribute id="332" value="" name="ident"/>
             <Attribute id="333" value="44100" name="sampleRate"/>
             <Attribute id="334" value="0" name="bitDepth"/>
             <Attribute id="335" value="1" name="gain"/>
             <Attribute id="336" value="0" name="mixToMono"/>
            </Attributes>
            <MetaData>
             <entry key="WinSubProjectDisplayName" val=""/>
            </MetaData>
           </AMFile>
           <AMFile id="337" start="1995" duration="556" scalar="1/1" mediaStart="3995/1" mediaDuration="556/1" trackNumber="0" src="12" channelNumber="0,1" >
            <Parameters>
             <InterpolatingParam id="338" interp="linr"  time="0/1" value="1" leadInLength="0/1"  name="volume"/>
             <Parameter id="339"  name="captions"/>
            </Parameters>
            <Attributes>
             <Attribute id="340" value="" name="ident"/>
             <Attribute id="341" value="44100" name="sampleRate"/>
             <Attribute id="342" value="0" name="bitDepth"/>
             <Attribute id="343" value="1" name="gain"/>
             <Attribute id="344" value="0" name="mixToMono"/>
            </Attributes>
            <MetaData>
             <entry key="WinSubProjectDisplayName" val=""/>
            </MetaData>
           </AMFile>
          </Medias>
         </GenericTrack>
        </StitchedMedia>
        <StitchedMedia id="345" start="7643" duration="869" scalar="1/1" mediaStart="0/1" mediaDuration="869/1" minMediaStart="0/1" >
         <Transformer>
          <VectorParam id="346"  name="translation">
           <InterpolatingParam id="347" interp="linr"  time="0/1" value="0" leadInLength="0/1"  />
           <InterpolatingParam id="348" interp="linr"  time="0/1" value="0" leadInLength="0/1"  />
           <InterpolatingParam id="349" interp="linr"  time="0/1" value="0" leadInLength="0/1"  />
          </VectorParam>
          <VectorParam id="350"  name="rotation">
           <InterpolatingParam id="351" interp="linr"  time="0/1" value="0" leadInLength="0/1"  />
           <InterpolatingParam id="352" interp="linr"  time="0/1" value="0" leadInLength="0/1"  />
           <InterpolatingParam id="353" interp="linr"  time="0/1" value="0" leadInLength="0/1"  />
          </VectorParam>
          <VectorParam id="354"  name="shear">
           <InterpolatingParam id="355" interp="linr"  time="0/1" value="0" leadInLength="0/1"  />
           <InterpolatingParam id="356" interp="linr"  time="0/1" value="0" leadInLength="0/1"  />
           <InterpolatingParam id="357" interp="linr"  time="0/1" value="0" leadInLength="0/1"  />
          </VectorParam>
          <VectorParam id="358"  name="scale">
           <InterpolatingParam id="359" interp="linr"  time="0/1" value="1" leadInLength="0/1"  />
           <InterpolatingParam id="360" interp="linr"  time="0/1" value="1" leadInLength="0/1"  />
           <InterpolatingParam id="361" interp="linr"  time="0/1" value="1" leadInLength="0/1"  />
          </VectorParam>
          <VectorParam id="362"  name="anchor">
           <InterpolatingParam id="363" interp="linr"  time="0/1" value="0" leadInLength="0/1"  />
           <InterpolatingParam id="364" interp="linr"  time="0/1" value="0" leadInLength="0/1"  />
           <InterpolatingParam id="365" interp="linr"  time="0/1" value="0" leadInLength="0/1"  />
          </VectorParam>
         </Transformer>
         <Parameters>
          <InterpolatingParam id="366" interp="linr"  time="0/1" value="1" leadInLength="0/1"  name="cursorOpacity"/>
          <InterpolatingParam id="367" interp="linr"  time="0/1" value="1" leadInLength="0/1"  name="cursorScale"/>
          <InterpolatingParam id="368" interp="linr"  time="0/1" value="1" leadInLength="0/1"  name="volume"/>
          <Parameter id="369"  name="captions"/>
         </Parameters>
         <Attributes>
          <Attribute id="370" value="" name="ident"/>
          <Attribute id="371" value="0" name="mixToMono"/>
         </Attributes>
         <MetaData>
          <entry key="WinSubProjectDisplayName" val=""/>
         </MetaData>
         <ExtraData>
          <Entry key="ZoomPanBin">
           <ZoomPanBin id="372"  >
            <ZoomPanKeyframes>
            </ZoomPanKeyframes>
           </ZoomPanBin>
          </Entry>
          <Entry key="CursorEffectBin">
           <CursorEffectBin id="373"  >
            <CursorEffectKeyframes>
            </CursorEffectKeyframes>
           </CursorEffectBin>
          </Entry>
         </ExtraData>
         <GenericTrack id="374"  >
          <Attributes>
           <Attribute id="375" value="" name="ident"/>
           <Attribute id="376" value="0" name="audioMuted"/>
           <Attribute id="377" value="0" name="videoHidden"/>
          </Attributes>
          <MetaData>
           <entry key="IsLocked" val="False"/>
           <entry key="WinTrackHeight" val="0"/>
          </MetaData>
          <Medias>
           <AMFile id="378" start="0" duration="803" scalar="1/1" mediaStart="0/1" mediaDuration="803/1" trackNumber="0" src="28" channelNumber="0,1" >
            <Parameters>
             <InterpolatingParam id="379" interp="linr"  time="0/1" value="1" leadInLength="0/1"  name="volume"/>
             <Parameter id="380"  name="captions"/>
            </Parameters>
            <Attributes>
             <Attribute id="381" value="" name="ident"/>
             <Attribute id="382" value="44100" name="sampleRate"/>
             <Attribute id="383" value="0" name="bitDepth"/>
             <Attribute id="384" value="1" name="gain"/>
             <Attribute id="385" value="0" name="mixToMono"/>
            </Attributes>
            <MetaData>
             <entry key="WinSubProjectDisplayName" val=""/>
            </MetaData>
           </AMFile>
           <AMFile id="386" start="803" duration="67" scalar="1/1" mediaStart="893/1" mediaDuration="67/1" trackNumber="0" src="28" channelNumber="0,1" >
            <Parameters>
             <InterpolatingParam id="387" interp="linr"  time="0/1" value="1" leadInLength="0/1"  name="volume"/>
             <Parameter id="388"  name="captions"/>
            </Parameters>
            <Attributes>
             <Attribute id="389" value="" name="ident"/>
             <Attribute id="390" value="44100" name="sampleRate"/>
             <Attribute id="391" value="0" name="bitDepth"/>
             <Attribute id="392" value="1" name="gain"/>
             <Attribute id="393" value="0" name="mixToMono"/>
            </Attributes>
            <MetaData>
             <entry key="WinSubProjectDisplayName" val=""/>
            </MetaData>
           </AMFile>
          </Medias>
         </GenericTrack>
        </StitchedMedia>
        <StitchedMedia id="394" start="8512" duration="1557" scalar="1/1" mediaStart="15/1" mediaDuration="1557/1" minMediaStart="0/1" >
         <Transformer>
          <VectorParam id="395"  name="translation">
           <InterpolatingParam id="396" interp="linr"  time="0/1" value="0" leadInLength="0/1"  />
           <InterpolatingParam id="397" interp="linr"  time="0/1" value="0" leadInLength="0/1"  />
           <InterpolatingParam id="398" interp="linr"  time="0/1" value="0" leadInLength="0/1"  />
          </VectorParam>
          <VectorParam id="399"  name="rotation">
           <InterpolatingParam id="400" interp="linr"  time="0/1" value="0" leadInLength="0/1"  />
           <InterpolatingParam id="401" interp="linr"  time="0/1" value="0" leadInLength="0/1"  />
           <InterpolatingParam id="402" interp="linr"  time="0/1" value="0" leadInLength="0/1"  />
          </VectorParam>
          <VectorParam id="403"  name="shear">
           <InterpolatingParam id="404" interp="linr"  time="0/1" value="0" leadInLength="0/1"  />
           <InterpolatingParam id="405" interp="linr"  time="0/1" value="0" leadInLength="0/1"  />
           <InterpolatingParam id="406" interp="linr"  time="0/1" value="0" leadInLength="0/1"  />
          </VectorParam>
          <VectorParam id="407"  name="scale">
           <InterpolatingParam id="408" interp="linr"  time="0/1" value="1" leadInLength="0/1"  />
           <InterpolatingParam id="409" interp="linr"  time="0/1" value="1" leadInLength="0/1"  />
           <InterpolatingParam id="410" interp="linr"  time="0/1" value="1" leadInLength="0/1"  />
          </VectorParam>
          <VectorParam id="411"  name="anchor">
           <InterpolatingParam id="412" interp="linr"  time="0/1" value="0" leadInLength="0/1"  />
           <InterpolatingParam id="413" interp="linr"  time="0/1" value="0" leadInLength="0/1"  />
           <InterpolatingParam id="414" interp="linr"  time="0/1" value="0" leadInLength="0/1"  />
          </VectorParam>
         </Transformer>
         <Parameters>
          <InterpolatingParam id="415" interp="linr"  time="0/1" value="1" leadInLength="0/1"  name="cursorOpacity"/>
          <InterpolatingParam id="416" interp="linr"  time="0/1" value="1" leadInLength="0/1"  name="cursorScale"/>
          <InterpolatingParam id="417" interp="linr"  time="0/1" value="1" leadInLength="0/1"  name="volume"/>
          <Parameter id="418"  name="captions"/>
         </Parameters>
         <Attributes>
          <Attribute id="419" value="" name="ident"/>
          <Attribute id="420" value="0" name="mixToMono"/>
         </Attributes>
         <MetaData>
          <entry key="WinSubProjectDisplayName" val=""/>
         </MetaData>
         <ExtraData>
          <Entry key="ZoomPanBin">
           <ZoomPanBin id="421"  >
            <ZoomPanKeyframes>
            </ZoomPanKeyframes>
           </ZoomPanBin>
          </Entry>
          <Entry key="CursorEffectBin">
           <CursorEffectBin id="422"  >
            <CursorEffectKeyframes>
            </CursorEffectKeyframes>
           </CursorEffectBin>
          </Entry>
         </ExtraData>
         <GenericTrack id="423"  >
          <Attributes>
           <Attribute id="424" value="" name="ident"/>
           <Attribute id="425" value="0" name="audioMuted"/>
           <Attribute id="426" value="0" name="videoHidden"/>
          </Attributes>
          <MetaData>
           <entry key="IsLocked" val="False"/>
           <entry key="WinTrackHeight" val="0"/>
          </MetaData>
          <Medias>
           <AMFile id="427" start="0" duration="986" scalar="1/1" mediaStart="0/1" mediaDuration="986/1" trackNumber="0" src="25" channelNumber="0,1" >
            <Parameters>
             <InterpolatingParam id="428" interp="linr"  time="0/1" value="1" leadInLength="0/1"  name="volume"/>
             <Parameter id="429"  name="captions"/>
            </Parameters>
            <Attributes>
             <Attribute id="430" value="" name="ident"/>
             <Attribute id="431" value="44100" name="sampleRate"/>
             <Attribute id="432" value="0" name="bitDepth"/>
             <Attribute id="433" value="1" name="gain"/>
             <Attribute id="434" value="0" name="mixToMono"/>
            </Attributes>
            <MetaData>
             <entry key="WinSubProjectDisplayName" val=""/>
            </MetaData>
           </AMFile>
           <AMFile id="435" start="986" duration="633" scalar="1/1" mediaStart="1173/1" mediaDuration="633/1" trackNumber="0" src="25" channelNumber="0,1" >
            <Parameters>
             <InterpolatingParam id="436" interp="linr"  time="0/1" value="1" leadInLength="0/1"  name="volume"/>
             <Parameter id="437"  name="captions"/>
            </Parameters>
            <Attributes>
             <Attribute id="438" value="" name="ident"/>
             <Attribute id="439" value="44100" name="sampleRate"/>
             <Attribute id="440" value="0" name="bitDepth"/>
             <Attribute id="441" value="1" name="gain"/>
             <Attribute id="442" value="0" name="mixToMono"/>
            </Attributes>
            <MetaData>
             <entry key="WinSubProjectDisplayName" val=""/>
            </MetaData>
           </AMFile>
          </Medias>
         </GenericTrack>
        </StitchedMedia>
        <AMFile id="443" start="10069" duration="530" scalar="1/1" mediaStart="1577/1" mediaDuration="530/1" trackNumber="0" src="24" channelNumber="0,1" >
         <Parameters>
          <InterpolatingParam id="444" interp="linr"  name="volume">
           <Keyframes>
           <Keyframe id="445"  time="0/1" value="1" leadInLength="0/1"  />
           <Keyframe id="446"  time="1577/1" value="1" leadInLength="0/1"  />
           </Keyframes>
          </InterpolatingParam>
          <Parameter id="447"  name="captions"/>
         </Parameters>
         <Attributes>
          <Attribute id="448" value="" name="ident"/>
          <Attribute id="449" value="44100" name="sampleRate"/>
          <Attribute id="450" value="0" name="bitDepth"/>
          <Attribute id="451" value="1" name="gain"/>
          <Attribute id="452" value="0" name="mixToMono"/>
         </Attributes>
         <MetaData>
          <entry key="WinSubProjectDisplayName" val=""/>
         </MetaData>
        </AMFile>
        <StitchedMedia id="453" start="10599" duration="966" scalar="1/1" mediaStart="0/1" mediaDuration="966/1" minMediaStart="0/1" >
         <Transformer>
          <VectorParam id="454"  name="translation">
           <InterpolatingParam id="455" interp="linr"  time="0/1" value="0" leadInLength="0/1"  />
           <InterpolatingParam id="456" interp="linr"  time="0/1" value="0" leadInLength="0/1"  />
           <InterpolatingParam id="457" interp="linr"  time="0/1" value="0" leadInLength="0/1"  />
          </VectorParam>
          <VectorParam id="458"  name="rotation">
           <InterpolatingParam id="459" interp="linr"  time="0/1" value="0" leadInLength="0/1"  />
           <InterpolatingParam id="460" interp="linr"  time="0/1" value="0" leadInLength="0/1"  />
           <InterpolatingParam id="461" interp="linr"  time="0/1" value="0" leadInLength="0/1"  />
          </VectorParam>
          <VectorParam id="462"  name="shear">
           <InterpolatingParam id="463" interp="linr"  time="0/1" value="0" leadInLength="0/1"  />
           <InterpolatingParam id="464" interp="linr"  time="0/1" value="0" leadInLength="0/1"  />
           <InterpolatingParam id="465" interp="linr"  time="0/1" value="0" leadInLength="0/1"  />
          </VectorParam>
          <VectorParam id="466"  name="scale">
           <InterpolatingParam id="467" interp="linr"  time="0/1" value="1" leadInLength="0/1"  />
           <InterpolatingParam id="468" interp="linr"  time="0/1" value="1" leadInLength="0/1"  />
           <InterpolatingParam id="469" interp="linr"  time="0/1" value="1" leadInLength="0/1"  />
          </VectorParam>
          <VectorParam id="470"  name="anchor">
           <InterpolatingParam id="471" interp="linr"  time="0/1" value="0" leadInLength="0/1"  />
           <InterpolatingParam id="472" interp="linr"  time="0/1" value="0" leadInLength="0/1"  />
           <InterpolatingParam id="473" interp="linr"  time="0/1" value="0" leadInLength="0/1"  />
          </VectorParam>
         </Transformer>
         <Parameters>
          <InterpolatingParam id="474" interp="linr"  time="0/1" value="1" leadInLength="0/1"  name="cursorOpacity"/>
          <InterpolatingParam id="475" interp="linr"  time="0/1" value="1" leadInLength="0/1"  name="cursorScale"/>
          <InterpolatingParam id="476" interp="linr"  time="0/1" value="1" leadInLength="0/1"  name="volume"/>
          <Parameter id="477"  name="captions"/>
         </Parameters>
         <Attributes>
          <Attribute id="478" value="" name="ident"/>
          <Attribute id="479" value="0" name="mixToMono"/>
         </Attributes>
         <MetaData>
          <entry key="WinSubProjectDisplayName" val=""/>
         </MetaData>
         <ExtraData>
          <Entry key="ZoomPanBin">
           <ZoomPanBin id="480"  >
            <ZoomPanKeyframes>
            </ZoomPanKeyframes>
           </ZoomPanBin>
          </Entry>
          <Entry key="CursorEffectBin">
           <CursorEffectBin id="481"  >
            <CursorEffectKeyframes>
            </CursorEffectKeyframes>
           </CursorEffectBin>
          </Entry>
         </ExtraData>
         <GenericTrack id="482"  >
          <Attributes>
           <Attribute id="483" value="" name="ident"/>
           <Attribute id="484" value="0" name="audioMuted"/>
           <Attribute id="485" value="0" name="videoHidden"/>
          </Attributes>
          <MetaData>
           <entry key="IsLocked" val="False"/>
           <entry key="WinTrackHeight" val="0"/>
          </MetaData>
          <Medias>
           <AMFile id="486" start="0" duration="10" scalar="1/1" mediaStart="0/1" mediaDuration="10/1" trackNumber="0" src="26" channelNumber="0,1" >
            <Parameters>
             <InterpolatingParam id="487" interp="linr"  time="0/1" value="1" leadInLength="0/1"  name="volume"/>
             <Parameter id="488"  name="captions"/>
            </Parameters>
            <Attributes>
             <Attribute id="489" value="" name="ident"/>
             <Attribute id="490" value="44100" name="sampleRate"/>
             <Attribute id="491" value="0" name="bitDepth"/>
             <Attribute id="492" value="1" name="gain"/>
             <Attribute id="493" value="0" name="mixToMono"/>
            </Attributes>
            <MetaData>
             <entry key="WinSubProjectDisplayName" val=""/>
            </MetaData>
           </AMFile>
           <AMFile id="494" start="10" duration="1010" scalar="1/1" mediaStart="25/1" mediaDuration="1010/1" trackNumber="0" src="26" channelNumber="0,1" >
            <Parameters>
             <InterpolatingParam id="495" interp="linr"  time="0/1" value="1" leadInLength="0/1"  name="volume"/>
             <Parameter id="496"  name="captions"/>
            </Parameters>
            <Attributes>
             <Attribute id="497" value="" name="ident"/>
             <Attribute id="498" value="44100" name="sampleRate"/>
             <Attribute id="499" value="0" name="bitDepth"/>
             <Attribute id="500" value="1" name="gain"/>
             <Attribute id="501" value="0" name="mixToMono"/>
            </Attributes>
            <MetaData>
             <entry key="WinSubProjectDisplayName" val=""/>
            </MetaData>
           </AMFile>
          </Medias>
         </GenericTrack>
        </StitchedMedia>
        <AMFile id="502" start="11565" duration="916" scalar="1/1" mediaStart="0/1" mediaDuration="916/1" trackNumber="0" src="27" channelNumber="0,1" >
         <Parameters>
          <InterpolatingParam id="503" interp="linr"  time="0/1" value="1" leadInLength="0/1"  name="volume"/>
          <Parameter id="504"  name="captions"/>
         </Parameters>
         <Attributes>
          <Attribute id="505" value="" name="ident"/>
          <Attribute id="506" value="44100" name="sampleRate"/>
          <Attribute id="507" value="0" name="bitDepth"/>
          <Attribute id="508" value="1" name="gain"/>
          <Attribute id="509" value="0" name="mixToMono"/>
         </Attributes>
         <MetaData>
          <entry key="WinSubProjectDisplayName" val=""/>
         </MetaData>
        </AMFile>
        <AMFile id="510" start="12481" duration="1554" scalar="1/1" mediaStart="0/1" mediaDuration="1554/1" trackNumber="0" src="29" channelNumber="0,1" >
         <Parameters>
          <InterpolatingParam id="511" interp="linr"  time="0/1" value="1" leadInLength="0/1"  name="volume"/>
          <Parameter id="512"  name="captions"/>
         </Parameters>
         <Attributes>
          <Attribute id="513" value="" name="ident"/>
          <Attribute id="514" value="44100" name="sampleRate"/>
          <Attribute id="515" value="0" name="bitDepth"/>
          <Attribute id="516" value="1" name="gain"/>
          <Attribute id="517" value="0" name="mixToMono"/>
         </Attributes>
         <MetaData>
          <entry key="WinSubProjectDisplayName" val=""/>
         </MetaData>
        </AMFile>
        <AMFile id="518" start="14035" duration="1464" scalar="1/1" mediaStart="0/1" mediaDuration="1464/1" trackNumber="0" src="22" channelNumber="0,1" >
         <Parameters>
          <InterpolatingParam id="519" interp="linr"  time="0/1" value="1" leadInLength="0/1"  name="volume"/>
          <Parameter id="520"  name="captions"/>
         </Parameters>
         <Attributes>
          <Attribute id="521" value="" name="ident"/>
          <Attribute id="522" value="44100" name="sampleRate"/>
          <Attribute id="523" value="0" name="bitDepth"/>
          <Attribute id="524" value="1" name="gain"/>
          <Attribute id="525" value="0" name="mixToMono"/>
         </Attributes>
         <MetaData>
          <entry key="WinSubProjectDisplayName" val=""/>
         </MetaData>
        </AMFile>
        <AMFile id="526" start="15499" duration="1606" scalar="1/1" mediaStart="36/1" mediaDuration="1606/1" trackNumber="0" src="23" channelNumber="0,1" >
         <Parameters>
          <InterpolatingParam id="527" interp="linr"  time="0/1" value="1" leadInLength="0/1"  name="volume"/>
          <Parameter id="528"  name="captions"/>
         </Parameters>
         <Attributes>
          <Attribute id="529" value="" name="ident"/>
          <Attribute id="530" value="44100" name="sampleRate"/>
          <Attribute id="531" value="0" name="bitDepth"/>
          <Attribute id="532" value="1" name="gain"/>
          <Attribute id="533" value="0" name="mixToMono"/>
         </Attributes>
         <MetaData>
          <entry key="WinSubProjectDisplayName" val=""/>
         </MetaData>
        </AMFile>
        <StitchedMedia id="534" start="17105" duration="460" scalar="1/1" mediaStart="22/1" mediaDuration="460/1" minMediaStart="0/1" >
         <Transformer>
          <VectorParam id="535"  name="translation">
           <InterpolatingParam id="536" interp="linr"  time="0/1" value="0" leadInLength="0/1"  />
           <InterpolatingParam id="537" interp="linr"  time="0/1" value="0" leadInLength="0/1"  />
           <InterpolatingParam id="538" interp="linr"  time="0/1" value="0" leadInLength="0/1"  />
          </VectorParam>
          <VectorParam id="539"  name="rotation">
           <InterpolatingParam id="540" interp="linr"  time="0/1" value="0" leadInLength="0/1"  />
           <InterpolatingParam id="541" interp="linr"  time="0/1" value="0" leadInLength="0/1"  />
           <InterpolatingParam id="542" interp="linr"  time="0/1" value="0" leadInLength="0/1"  />
          </VectorParam>
          <VectorParam id="543"  name="shear">
           <InterpolatingParam id="544" interp="linr"  time="0/1" value="0" leadInLength="0/1"  />
           <InterpolatingParam id="545" interp="linr"  time="0/1" value="0" leadInLength="0/1"  />
           <InterpolatingParam id="546" interp="linr"  time="0/1" value="0" leadInLength="0/1"  />
          </VectorParam>
          <VectorParam id="547"  name="scale">
           <InterpolatingParam id="548" interp="linr"  time="0/1" value="1" leadInLength="0/1"  />
           <InterpolatingParam id="549" interp="linr"  time="0/1" value="1" leadInLength="0/1"  />
           <InterpolatingParam id="550" interp="linr"  time="0/1" value="1" leadInLength="0/1"  />
          </VectorParam>
          <VectorParam id="551"  name="anchor">
           <InterpolatingParam id="552" interp="linr"  time="0/1" value="0" leadInLength="0/1"  />
           <InterpolatingParam id="553" interp="linr"  time="0/1" value="0" leadInLength="0/1"  />
           <InterpolatingParam id="554" interp="linr"  time="0/1" value="0" leadInLength="0/1"  />
          </VectorParam>
         </Transformer>
         <Parameters>
          <InterpolatingParam id="555" interp="linr"  time="0/1" value="1" leadInLength="0/1"  name="cursorOpacity"/>
          <InterpolatingParam id="556" interp="linr"  time="0/1" value="1" leadInLength="0/1"  name="cursorScale"/>
          <InterpolatingParam id="557" interp="linr"  time="0/1" value="1" leadInLength="0/1"  name="volume"/>
          <Parameter id="558"  name="captions"/>
         </Parameters>
         <Attributes>
          <Attribute id="559" value="" name="ident"/>
          <Attribute id="560" value="0" name="mixToMono"/>
         </Attributes>
         <MetaData>
          <entry key="WinSubProjectDisplayName" val=""/>
         </MetaData>
         <ExtraData>
          <Entry key="ZoomPanBin">
           <ZoomPanBin id="561"  >
            <ZoomPanKeyframes>
            </ZoomPanKeyframes>
           </ZoomPanBin>
          </Entry>
          <Entry key="CursorEffectBin">
           <CursorEffectBin id="562"  >
            <CursorEffectKeyframes>
            </CursorEffectKeyframes>
           </CursorEffectBin>
          </Entry>
         </ExtraData>
         <GenericTrack id="563"  >
          <Attributes>
           <Attribute id="564" value="" name="ident"/>
           <Attribute id="565" value="0" name="audioMuted"/>
           <Attribute id="566" value="0" name="videoHidden"/>
          </Attributes>
          <MetaData>
           <entry key="IsLocked" val="False"/>
           <entry key="WinTrackHeight" val="0"/>
          </MetaData>
          <Medias>
           <AMFile id="567" start="0" duration="443" scalar="1/1" mediaStart="0/1" mediaDuration="443/1" trackNumber="0" src="32" channelNumber="0,1" >
            <Parameters>
             <InterpolatingParam id="568" interp="linr"  time="0/1" value="1" leadInLength="0/1"  name="volume"/>
             <Parameter id="569"  name="captions"/>
            </Parameters>
            <Attributes>
             <Attribute id="570" value="" name="ident"/>
             <Attribute id="571" value="44100" name="sampleRate"/>
             <Attribute id="572" value="0" name="bitDepth"/>
             <Attribute id="573" value="1" name="gain"/>
             <Attribute id="574" value="0" name="mixToMono"/>
            </Attributes>
            <MetaData>
             <entry key="WinSubProjectDisplayName" val=""/>
            </MetaData>
           </AMFile>
           <AMFile id="575" start="443" duration="39" scalar="1/1" mediaStart="525/1" mediaDuration="39/1" trackNumber="0" src="32" channelNumber="0,1" >
            <Parameters>
             <InterpolatingParam id="576" interp="linr"  time="0/1" value="1" leadInLength="0/1"  name="volume"/>
             <Parameter id="577"  name="captions"/>
            </Parameters>
            <Attributes>
             <Attribute id="578" value="" name="ident"/>
             <Attribute id="579" value="44100" name="sampleRate"/>
             <Attribute id="580" value="0" name="bitDepth"/>
             <Attribute id="581" value="1" name="gain"/>
             <Attribute id="582" value="0" name="mixToMono"/>
            </Attributes>
            <MetaData>
             <entry key="WinSubProjectDisplayName" val=""/>
            </MetaData>
           </AMFile>
          </Medias>
         </GenericTrack>
        </StitchedMedia>
       </Medias>
      </GenericTrack>
      <GenericTrack id="583"  >
       <Attributes>
        <Attribute id="584" value="" name="ident"/>
        <Attribute id="585" value="0" name="audioMuted"/>
        <Attribute id="586" value="0" name="videoHidden"/>
       </Attributes>
       <MetaData>
        <entry key="IsLocked" val="False"/>
        <entry key="WinTrackHeight" val="57.227272727272734"/>
       </MetaData>
       <Medias>
        <UnifiedMedia id="587"  >
         <AudioTransition id="588" start="49" duration="30" >
          <Parameters>
           <InterpolatingParam id="589" interp="linr"  time="0/1" value="1" leadInLength="0/1"  name="volume"/>
           <Parameter id="590"  name="captions"/>
          </Parameters>
          <Effects>
           <GenericEffect id="591" name = "AudioTransition" >
            <Parameters>
            <Parameter id="592"   name="audioEdgeModType">
             <Keyframes>
             <Keyframe id="593"  time="0/1" value="0" leadInLength="0/1"  />
             </Keyframes>
            </Parameter>
            <Parameter id="594"   name="audioTransitionType">
             <Keyframes>
             <Keyframe id="595"  time="0/1" value="" leadInLength="0/1"  />
             </Keyframes>
            </Parameter>
            </Parameters>
            <MetaData>
            </MetaData>
           </GenericEffect>
          </Effects>
          <Attributes>
           <Attribute id="596" value="" name="ident"/>
           <Attribute id="597" value="0" name="sampleRate"/>
           <Attribute id="598" value="0" name="bitDepth"/>
           <Attribute id="599" value="1" name="gain"/>
           <Attribute id="600" value="0" name="mixToMono"/>
          </Attributes>
         </AudioTransition>
         <ImageTransition id="601" start="49" duration="30" >
          <Transformer>
           <VectorParam id="602"  name="translation">
            <InterpolatingParam id="603" interp="linr"  time="0/1" value="0" leadInLength="0/1"  />
            <InterpolatingParam id="604" interp="linr"  time="0/1" value="0" leadInLength="0/1"  />
            <InterpolatingParam id="605" interp="linr"  time="0/1" value="0" leadInLength="0/1"  />
           </VectorParam>
           <VectorParam id="606"  name="rotation">
            <InterpolatingParam id="607" interp="linr"  time="0/1" value="0" leadInLength="0/1"  />
            <InterpolatingParam id="608" interp="linr"  time="0/1" value="0" leadInLength="0/1"  />
            <InterpolatingParam id="609" interp="linr"  time="0/1" value="0" leadInLength="0/1"  />
           </VectorParam>
           <VectorParam id="610"  name="shear">
            <InterpolatingParam id="611" interp="linr"  time="0/1" value="0" leadInLength="0/1"  />
            <InterpolatingParam id="612" interp="linr"  time="0/1" value="0" leadInLength="0/1"  />
            <InterpolatingParam id="613" interp="linr"  time="0/1" value="0" leadInLength="0/1"  />
           </VectorParam>
           <VectorParam id="614"  name="scale">
            <InterpolatingParam id="615" interp="linr"  time="0/1" value="1" leadInLength="0/1"  />
            <InterpolatingParam id="616" interp="linr"  time="0/1" value="1" leadInLength="0/1"  />
            <InterpolatingParam id="617" interp="linr"  time="0/1" value="1" leadInLength="0/1"  />
           </VectorParam>
           <VectorParam id="618"  name="anchor">
            <InterpolatingParam id="619" interp="linr"  time="0/1" value="0" leadInLength="0/1"  />
            <InterpolatingParam id="620" interp="linr"  time="0/1" value="0" leadInLength="0/1"  />
            <InterpolatingParam id="621" interp="linr"  time="0/1" value="0" leadInLength="0/1"  />
           </VectorParam>
          </Transformer>
          <Parameters>
           <VectorParam id="622"  name="sourceCrop">
            <InterpolatingParam id="623" interp="linr"  time="0/1" value="0" leadInLength="0/1"  />
            <InterpolatingParam id="624" interp="linr"  time="0/1" value="0" leadInLength="0/1"  />
            <InterpolatingParam id="625" interp="linr"  time="0/1" value="0" leadInLength="0/1"  />
            <InterpolatingParam id="626" interp="linr"  time="0/1" value="0" leadInLength="0/1"  />
           </VectorParam>
           <VectorParam id="627"  name="geometryCrop">
            <InterpolatingParam id="628" interp="linr"  time="0/1" value="0" leadInLength="0/1"  />
            <InterpolatingParam id="629" interp="linr"  time="0/1" value="0" leadInLength="0/1"  />
            <InterpolatingParam id="630" interp="linr"  time="0/1" value="0" leadInLength="0/1"  />
            <InterpolatingParam id="631" interp="linr"  time="0/1" value="0" leadInLength="0/1"  />
           </VectorParam>
           <InterpolatingParam id="632" interp="linr"  time="0/1" value="1" leadInLength="0/1"  name="opacity"/>
          </Parameters>
          <Effects>
           <GenericEffect id="633" name = "VisualTransition" >
            <Parameters>
            <InterpolatingParam id="634" interp="linr"  time="0/1" value="0.5" leadInLength="0/1"   name="leftFramePercentage"/>
            <InterpolatingParam id="635" interp="linr"  time="0/1" value="0.5" leadInLength="0/1"   name="rightFramePercentage"/>
            <Parameter id="636"   name="visualEdgeModType">
             <Keyframes>
             <Keyframe id="637"  time="0/1" value="1" leadInLength="0/1"  />
             </Keyframes>
            </Parameter>
            <Parameter id="638"   name="visualTransitionType">
             <Keyframes>
             <Keyframe id="639"  time="0/1" value="Fade" leadInLength="0/1"  />
             </Keyframes>
            </Parameter>
            </Parameters>
            <MetaData>
            </MetaData>
           </GenericEffect>
          </Effects>
          <Attributes>
           <Attribute id="640" value="" name="ident"/>
          </Attributes>
          <ExtraData>
           <Entry key="ZoomPanBin">
            <ZoomPanBin id="641"  >
             <ZoomPanKeyframes>
             </ZoomPanKeyframes>
            </ZoomPanBin>
           </Entry>
          </ExtraData>
         </ImageTransition>
         <MetaData>
          <entry key="WinSubProjectDisplayName" val=""/>
         </MetaData>
        </UnifiedMedia>
        <IMFile id="642" start="79" duration="175" scalar="1/1" mediaStart="0/1" mediaDuration="1/1" trackNumber="0" src="8" trimStartSum="30/1" >
         <Transformer>
          <VectorParam id="643"  name="translation">
           <InterpolatingParam id="644" interp="linr"  time="-9999999/1" value="0" leadInLength="0/1"  />
           <InterpolatingParam id="645" interp="linr"  time="-9999999/1" value="0" leadInLength="0/1"  />
           <InterpolatingParam id="646" interp="linr"  time="-9999999/1" value="0" leadInLength="0/1"  />
          </VectorParam>
          <VectorParam id="647"  name="rotation">
           <InterpolatingParam id="648" interp="linr"  time="-9999999/1" value="0" leadInLength="0/1"  />
           <InterpolatingParam id="649" interp="linr"  time="-9999999/1" value="0" leadInLength="0/1"  />
           <InterpolatingParam id="650" interp="linr"  time="-9999999/1" value="0" leadInLength="0/1"  />
          </VectorParam>
          <VectorParam id="651"  name="shear">
           <InterpolatingParam id="652" interp="linr"  time="-9999999/1" value="0" leadInLength="0/1"  />
           <InterpolatingParam id="653" interp="linr"  time="-9999999/1" value="0" leadInLength="0/1"  />
           <InterpolatingParam id="654" interp="linr"  time="-9999999/1" value="0" leadInLength="0/1"  />
          </VectorParam>
          <VectorParam id="655"  name="scale">
           <InterpolatingParam id="656" interp="linr"  time="-9999999/1" value="0.83333333333333337" leadInLength="0/1"  />
           <InterpolatingParam id="657" interp="linr"  time="-9999999/1" value="0.83333333333333337" leadInLength="0/1"  />
           <InterpolatingParam id="658" interp="linr"  time="-9999999/1" value="1" leadInLength="0/1"  />
          </VectorParam>
          <VectorParam id="659"  name="anchor">
           <InterpolatingParam id="660" interp="linr"  time="0/1" value="0" leadInLength="0/1"  />
           <InterpolatingParam id="661" interp="linr"  time="0/1" value="0" leadInLength="0/1"  />
           <InterpolatingParam id="662" interp="linr"  time="0/1" value="0" leadInLength="0/1"  />
          </VectorParam>
         </Transformer>
         <Parameters>
          <VectorParam id="663"  name="sourceCrop">
           <InterpolatingParam id="664" interp="linr"  time="0/1" value="0" leadInLength="0/1"  />
           <InterpolatingParam id="665" interp="linr"  time="0/1" value="0" leadInLength="0/1"  />
           <InterpolatingParam id="666" interp="linr"  time="0/1" value="0" leadInLength="0/1"  />
           <InterpolatingParam id="667" interp="linr"  time="0/1" value="0" leadInLength="0/1"  />
          </VectorParam>
          <VectorParam id="668"  name="geometryCrop">
           <InterpolatingParam id="669" interp="linr"  time="-9999999/1" value="0" leadInLength="0/1"  />
           <InterpolatingParam id="670" interp="linr"  time="-9999999/1" value="0" leadInLength="0/1"  />
           <InterpolatingParam id="671" interp="linr"  time="-9999999/1" value="0" leadInLength="0/1"  />
           <InterpolatingParam id="672" interp="linr"  time="-9999999/1" value="0" leadInLength="0/1"  />
          </VectorParam>
          <InterpolatingParam id="673" interp="linr"  time="-9999999/1" value="1" leadInLength="0/1"  name="opacity"/>
         </Parameters>
         <Attributes>
          <Attribute id="674" value="" name="ident"/>
         </Attributes>
         <MetaData>
          <entry key="WinSubProjectDisplayName" val=""/>
         </MetaData>
         <ExtraData>
          <Entry key="ZoomPanBin">
           <ZoomPanBin id="675"  >
            <ZoomPanKeyframes>
             <ZoomPanKeyframe id="676" timeRangeEnd="-9999999/1" timeRangeDuration="0/1" interpolaterName="linr"  />
            </ZoomPanKeyframes>
           </ZoomPanBin>
          </Entry>
         </ExtraData>
        </IMFile>
        <UnifiedMedia id="677"  >
         <AudioTransition id="678" start="254" duration="30" >
          <Parameters>
           <InterpolatingParam id="679" interp="linr"  time="0/1" value="1" leadInLength="0/1"  name="volume"/>
           <Parameter id="680"  name="captions"/>
          </Parameters>
          <Effects>
           <GenericEffect id="681" name = "AudioTransition" >
            <Parameters>
            <Parameter id="682"   name="audioEdgeModType">
             <Keyframes>
             <Keyframe id="683"  time="0/1" value="0" leadInLength="0/1"  />
             </Keyframes>
            </Parameter>
            <Parameter id="684"   name="audioTransitionType">
             <Keyframes>
             <Keyframe id="685"  time="0/1" value="" leadInLength="0/1"  />
             </Keyframes>
            </Parameter>
            </Parameters>
            <MetaData>
            </MetaData>
           </GenericEffect>
          </Effects>
          <Attributes>
           <Attribute id="686" value="" name="ident"/>
           <Attribute id="687" value="0" name="sampleRate"/>
           <Attribute id="688" value="0" name="bitDepth"/>
           <Attribute id="689" value="1" name="gain"/>
           <Attribute id="690" value="0" name="mixToMono"/>
          </Attributes>
         </AudioTransition>
         <ImageTransition id="691" start="254" duration="30" >
          <Transformer>
           <VectorParam id="692"  name="translation">
            <InterpolatingParam id="693" interp="linr"  time="0/1" value="0" leadInLength="0/1"  />
            <InterpolatingParam id="694" interp="linr"  time="0/1" value="0" leadInLength="0/1"  />
            <InterpolatingParam id="695" interp="linr"  time="0/1" value="0" leadInLength="0/1"  />
           </VectorParam>
           <VectorParam id="696"  name="rotation">
            <InterpolatingParam id="697" interp="linr"  time="0/1" value="0" leadInLength="0/1"  />
            <InterpolatingParam id="698" interp="linr"  time="0/1" value="0" leadInLength="0/1"  />
            <InterpolatingParam id="699" interp="linr"  time="0/1" value="0" leadInLength="0/1"  />
           </VectorParam>
           <VectorParam id="700"  name="shear">
            <InterpolatingParam id="701" interp="linr"  time="0/1" value="0" leadInLength="0/1"  />
            <InterpolatingParam id="702" interp="linr"  time="0/1" value="0" leadInLength="0/1"  />
            <InterpolatingParam id="703" interp="linr"  time="0/1" value="0" leadInLength="0/1"  />
           </VectorParam>
           <VectorParam id="704"  name="scale">
            <InterpolatingParam id="705" interp="linr"  time="0/1" value="1" leadInLength="0/1"  />
            <InterpolatingParam id="706" interp="linr"  time="0/1" value="1" leadInLength="0/1"  />
            <InterpolatingParam id="707" interp="linr"  time="0/1" value="1" leadInLength="0/1"  />
           </VectorParam>
           <VectorParam id="708"  name="anchor">
            <InterpolatingParam id="709" interp="linr"  time="0/1" value="0" leadInLength="0/1"  />
            <InterpolatingParam id="710" interp="linr"  time="0/1" value="0" leadInLength="0/1"  />
            <InterpolatingParam id="711" interp="linr"  time="0/1" value="0" leadInLength="0/1"  />
           </VectorParam>
          </Transformer>
          <Parameters>
           <VectorParam id="712"  name="sourceCrop">
            <InterpolatingParam id="713" interp="linr"  time="0/1" value="0" leadInLength="0/1"  />
            <InterpolatingParam id="714" interp="linr"  time="0/1" value="0" leadInLength="0/1"  />
            <InterpolatingParam id="715" interp="linr"  time="0/1" value="0" leadInLength="0/1"  />
            <InterpolatingParam id="716" interp="linr"  time="0/1" value="0" leadInLength="0/1"  />
           </VectorParam>
           <VectorParam id="717"  name="geometryCrop">
            <InterpolatingParam id="718" interp="linr"  time="0/1" value="0" leadInLength="0/1"  />
            <InterpolatingParam id="719" interp="linr"  time="0/1" value="0" leadInLength="0/1"  />
            <InterpolatingParam id="720" interp="linr"  time="0/1" value="0" leadInLength="0/1"  />
            <InterpolatingParam id="721" interp="linr"  time="0/1" value="0" leadInLength="0/1"  />
           </VectorParam>
           <InterpolatingParam id="722" interp="linr"  time="0/1" value="1" leadInLength="0/1"  name="opacity"/>
          </Parameters>
          <Effects>
           <GenericEffect id="723" name = "VisualTransition" >
            <Parameters>
            <InterpolatingParam id="724" interp="linr"  time="0/1" value="1" leadInLength="0/1"   name="leftFramePercentage"/>
            <InterpolatingParam id="725" interp="linr"  time="0/1" value="1" leadInLength="0/1"   name="rightFramePercentage"/>
            <Parameter id="726"   name="visualEdgeModType">
             <Keyframes>
             <Keyframe id="727"  time="0/1" value="0" leadInLength="0/1"  />
             </Keyframes>
            </Parameter>
            <Parameter id="728"   name="visualTransitionType">
             <Keyframes>
             <Keyframe id="729"  time="0/1" value="Fade" leadInLength="0/1"  />
             </Keyframes>
            </Parameter>
            </Parameters>
            <MetaData>
            </MetaData>
           </GenericEffect>
          </Effects>
          <Attributes>
           <Attribute id="730" value="" name="ident"/>
          </Attributes>
          <ExtraData>
           <Entry key="ZoomPanBin">
            <ZoomPanBin id="731"  >
             <ZoomPanKeyframes>
             </ZoomPanKeyframes>
            </ZoomPanBin>
           </Entry>
          </ExtraData>
         </ImageTransition>
         <MetaData>
          <entry key="WinSubProjectDisplayName" val=""/>
         </MetaData>
        </UnifiedMedia>
        <IMFile id="732" start="284" duration="581" scalar="1/1" mediaStart="0/1" mediaDuration="1/1" trackNumber="0" src="9" trimStartSum="15/1" >
         <Transformer>
          <VectorParam id="733"  name="translation">
           <InterpolatingParam id="734" interp="linr"  time="-9999999/1" value="0" leadInLength="0/1"  />
           <InterpolatingParam id="735" interp="linr"  time="-9999999/1" value="0" leadInLength="0/1"  />
           <InterpolatingParam id="736" interp="linr"  time="-9999999/1" value="0" leadInLength="0/1"  />
          </VectorParam>
          <VectorParam id="737"  name="rotation">
           <InterpolatingParam id="738" interp="linr"  time="-9999999/1" value="0" leadInLength="0/1"  />
           <InterpolatingParam id="739" interp="linr"  time="-9999999/1" value="0" leadInLength="0/1"  />
           <InterpolatingParam id="740" interp="linr"  time="-9999999/1" value="0" leadInLength="0/1"  />
          </VectorParam>
          <VectorParam id="741"  name="shear">
           <InterpolatingParam id="742" interp="linr"  time="-9999999/1" value="0" leadInLength="0/1"  />
           <InterpolatingParam id="743" interp="linr"  time="-9999999/1" value="0" leadInLength="0/1"  />
           <InterpolatingParam id="744" interp="linr"  time="-9999999/1" value="0" leadInLength="0/1"  />
          </VectorParam>
          <VectorParam id="745"  name="scale">
           <InterpolatingParam id="746" interp="linr"  time="-9999999/1" value="0.83333333333333337" leadInLength="0/1"  />
           <InterpolatingParam id="747" interp="linr"  time="-9999999/1" value="0.83333333333333337" leadInLength="0/1"  />
           <InterpolatingParam id="748" interp="linr"  time="-9999999/1" value="1" leadInLength="0/1"  />
          </VectorParam>
          <VectorParam id="749"  name="anchor">
           <InterpolatingParam id="750" interp="linr"  time="0/1" value="0" leadInLength="0/1"  />
           <InterpolatingParam id="751" interp="linr"  time="0/1" value="0" leadInLength="0/1"  />
           <InterpolatingParam id="752" interp="linr"  time="0/1" value="0" leadInLength="0/1"  />
          </VectorParam>
         </Transformer>
         <Parameters>
          <VectorParam id="753"  name="sourceCrop">
           <InterpolatingParam id="754" interp="linr"  time="0/1" value="0" leadInLength="0/1"  />
           <InterpolatingParam id="755" interp="linr"  time="0/1" value="0" leadInLength="0/1"  />
           <InterpolatingParam id="756" interp="linr"  time="0/1" value="0" leadInLength="0/1"  />
           <InterpolatingParam id="757" interp="linr"  time="0/1" value="0" leadInLength="0/1"  />
          </VectorParam>
          <VectorParam id="758"  name="geometryCrop">
           <InterpolatingParam id="759" interp="linr"  time="-9999999/1" value="0" leadInLength="0/1"  />
           <InterpolatingParam id="760" interp="linr"  time="-9999999/1" value="0" leadInLength="0/1"  />
           <InterpolatingParam id="761" interp="linr"  time="-9999999/1" value="0" leadInLength="0/1"  />
           <InterpolatingParam id="762" interp="linr"  time="-9999999/1" value="0" leadInLength="0/1"  />
          </VectorParam>
          <InterpolatingParam id="763" interp="linr"  time="-9999999/1" value="1" leadInLength="0/1"  name="opacity"/>
         </Parameters>
         <Attributes>
          <Attribute id="764" value="" name="ident"/>
         </Attributes>
         <MetaData>
          <entry key="WinSubProjectDisplayName" val=""/>
         </MetaData>
         <ExtraData>
          <Entry key="ZoomPanBin">
           <ZoomPanBin id="765"  >
            <ZoomPanKeyframes>
             <ZoomPanKeyframe id="766" timeRangeEnd="-9999999/1" timeRangeDuration="0/1" interpolaterName="linr"  />
            </ZoomPanKeyframes>
           </ZoomPanBin>
          </Entry>
         </ExtraData>
        </IMFile>
        <UnifiedMedia id="767"  >
         <AudioTransition id="768" start="865" duration="30" >
          <Parameters>
           <InterpolatingParam id="769" interp="linr"  time="0/1" value="1" leadInLength="0/1"  name="volume"/>
           <Parameter id="770"  name="captions"/>
          </Parameters>
          <Effects>
           <GenericEffect id="771" name = "AudioTransition" >
            <Parameters>
            <Parameter id="772"   name="audioEdgeModType">
             <Keyframes>
             <Keyframe id="773"  time="0/1" value="0" leadInLength="0/1"  />
             </Keyframes>
            </Parameter>
            <Parameter id="774"   name="audioTransitionType">
             <Keyframes>
             <Keyframe id="775"  time="0/1" value="" leadInLength="0/1"  />
             </Keyframes>
            </Parameter>
            </Parameters>
            <MetaData>
            </MetaData>
           </GenericEffect>
          </Effects>
          <Attributes>
           <Attribute id="776" value="" name="ident"/>
           <Attribute id="777" value="0" name="sampleRate"/>
           <Attribute id="778" value="0" name="bitDepth"/>
           <Attribute id="779" value="1" name="gain"/>
           <Attribute id="780" value="0" name="mixToMono"/>
          </Attributes>
         </AudioTransition>
         <ImageTransition id="781" start="865" duration="30" >
          <Transformer>
           <VectorParam id="782"  name="translation">
            <InterpolatingParam id="783" interp="linr"  time="0/1" value="0" leadInLength="0/1"  />
            <InterpolatingParam id="784" interp="linr"  time="0/1" value="0" leadInLength="0/1"  />
            <InterpolatingParam id="785" interp="linr"  time="0/1" value="0" leadInLength="0/1"  />
           </VectorParam>
           <VectorParam id="786"  name="rotation">
            <InterpolatingParam id="787" interp="linr"  time="0/1" value="0" leadInLength="0/1"  />
            <InterpolatingParam id="788" interp="linr"  time="0/1" value="0" leadInLength="0/1"  />
            <InterpolatingParam id="789" interp="linr"  time="0/1" value="0" leadInLength="0/1"  />
           </VectorParam>
           <VectorParam id="790"  name="shear">
            <InterpolatingParam id="791" interp="linr"  time="0/1" value="0" leadInLength="0/1"  />
            <InterpolatingParam id="792" interp="linr"  time="0/1" value="0" leadInLength="0/1"  />
            <InterpolatingParam id="793" interp="linr"  time="0/1" value="0" leadInLength="0/1"  />
           </VectorParam>
           <VectorParam id="794"  name="scale">
            <InterpolatingParam id="795" interp="linr"  time="0/1" value="1" leadInLength="0/1"  />
            <InterpolatingParam id="796" interp="linr"  time="0/1" value="1" leadInLength="0/1"  />
            <InterpolatingParam id="797" interp="linr"  time="0/1" value="1" leadInLength="0/1"  />
           </VectorParam>
           <VectorParam id="798"  name="anchor">
            <InterpolatingParam id="799" interp="linr"  time="0/1" value="0" leadInLength="0/1"  />
            <InterpolatingParam id="800" interp="linr"  time="0/1" value="0" leadInLength="0/1"  />
            <InterpolatingParam id="801" interp="linr"  time="0/1" value="0" leadInLength="0/1"  />
           </VectorParam>
          </Transformer>
          <Parameters>
           <VectorParam id="802"  name="sourceCrop">
            <InterpolatingParam id="803" interp="linr"  time="0/1" value="0" leadInLength="0/1"  />
            <InterpolatingParam id="804" interp="linr"  time="0/1" value="0" leadInLength="0/1"  />
            <InterpolatingParam id="805" interp="linr"  time="0/1" value="0" leadInLength="0/1"  />
            <InterpolatingParam id="806" interp="linr"  time="0/1" value="0" leadInLength="0/1"  />
           </VectorParam>
           <VectorParam id="807"  name="geometryCrop">
            <InterpolatingParam id="808" interp="linr"  time="0/1" value="0" leadInLength="0/1"  />
            <InterpolatingParam id="809" interp="linr"  time="0/1" value="0" leadInLength="0/1"  />
            <InterpolatingParam id="810" interp="linr"  time="0/1" value="0" leadInLength="0/1"  />
            <InterpolatingParam id="811" interp="linr"  time="0/1" value="0" leadInLength="0/1"  />
           </VectorParam>
           <InterpolatingParam id="812" interp="linr"  time="0/1" value="1" leadInLength="0/1"  name="opacity"/>
          </Parameters>
          <Effects>
           <GenericEffect id="813" name = "VisualTransition" >
            <Parameters>
            <InterpolatingParam id="814" interp="linr"  time="0/1" value="1" leadInLength="0/1"   name="leftFramePercentage"/>
            <InterpolatingParam id="815" interp="linr"  time="0/1" value="1" leadInLength="0/1"   name="rightFramePercentage"/>
            <Parameter id="816"   name="visualEdgeModType">
             <Keyframes>
             <Keyframe id="817"  time="0/1" value="0" leadInLength="0/1"  />
             </Keyframes>
            </Parameter>
            <Parameter id="818"   name="visualTransitionType">
             <Keyframes>
             <Keyframe id="819"  time="0/1" value="Fade" leadInLength="0/1"  />
             </Keyframes>
            </Parameter>
            </Parameters>
            <MetaData>
            </MetaData>
           </GenericEffect>
          </Effects>
          <Attributes>
           <Attribute id="820" value="" name="ident"/>
          </Attributes>
          <ExtraData>
           <Entry key="ZoomPanBin">
            <ZoomPanBin id="821"  >
             <ZoomPanKeyframes>
             </ZoomPanKeyframes>
            </ZoomPanBin>
           </Entry>
          </ExtraData>
         </ImageTransition>
         <MetaData>
          <entry key="WinSubProjectDisplayName" val=""/>
         </MetaData>
        </UnifiedMedia>
        <IMFile id="822" start="895" duration="755" scalar="1/1" mediaStart="0/1" mediaDuration="1/1" trackNumber="0" src="10" trimStartSum="15/1" >
         <Transformer>
          <VectorParam id="823"  name="translation">
           <InterpolatingParam id="824" interp="linr"  time="-9999999/1" value="0" leadInLength="0/1"  />
           <InterpolatingParam id="825" interp="linr"  time="-9999999/1" value="0" leadInLength="0/1"  />
           <InterpolatingParam id="826" interp="linr"  time="-9999999/1" value="0" leadInLength="0/1"  />
          </VectorParam>
          <VectorParam id="827"  name="rotation">
           <InterpolatingParam id="828" interp="linr"  time="-9999999/1" value="0" leadInLength="0/1"  />
           <InterpolatingParam id="829" interp="linr"  time="-9999999/1" value="0" leadInLength="0/1"  />
           <InterpolatingParam id="830" interp="linr"  time="-9999999/1" value="0" leadInLength="0/1"  />
          </VectorParam>
          <VectorParam id="831"  name="shear">
           <InterpolatingParam id="832" interp="linr"  time="-9999999/1" value="0" leadInLength="0/1"  />
           <InterpolatingParam id="833" interp="linr"  time="-9999999/1" value="0" leadInLength="0/1"  />
           <InterpolatingParam id="834" interp="linr"  time="-9999999/1" value="0" leadInLength="0/1"  />
          </VectorParam>
          <VectorParam id="835"  name="scale">
           <InterpolatingParam id="836" interp="linr"  time="-9999999/1" value="0.83333333333333337" leadInLength="0/1"  />
           <InterpolatingParam id="837" interp="linr"  time="-9999999/1" value="0.83333333333333337" leadInLength="0/1"  />
           <InterpolatingParam id="838" interp="linr"  time="-9999999/1" value="1" leadInLength="0/1"  />
          </VectorParam>
          <VectorParam id="839"  name="anchor">
           <InterpolatingParam id="840" interp="linr"  time="0/1" value="0" leadInLength="0/1"  />
           <InterpolatingParam id="841" interp="linr"  time="0/1" value="0" leadInLength="0/1"  />
           <InterpolatingParam id="842" interp="linr"  time="0/1" value="0" leadInLength="0/1"  />
          </VectorParam>
         </Transformer>
         <Parameters>
          <VectorParam id="843"  name="sourceCrop">
           <InterpolatingParam id="844" interp="linr"  time="0/1" value="0" leadInLength="0/1"  />
           <InterpolatingParam id="845" interp="linr"  time="0/1" value="0" leadInLength="0/1"  />
           <InterpolatingParam id="846" interp="linr"  time="0/1" value="0" leadInLength="0/1"  />
           <InterpolatingParam id="847" interp="linr"  time="0/1" value="0" leadInLength="0/1"  />
          </VectorParam>
          <VectorParam id="848"  name="geometryCrop">
           <InterpolatingParam id="849" interp="linr"  time="-9999999/1" value="0" leadInLength="0/1"  />
           <InterpolatingParam id="850" interp="linr"  time="-9999999/1" value="0" leadInLength="0/1"  />
           <InterpolatingParam id="851" interp="linr"  time="-9999999/1" value="0" leadInLength="0/1"  />
           <InterpolatingParam id="852" interp="linr"  time="-9999999/1" value="0" leadInLength="0/1"  />
          </VectorParam>
          <InterpolatingParam id="853" interp="linr"  time="-9999999/1" value="1" leadInLength="0/1"  name="opacity"/>
         </Parameters>
         <Attributes>
          <Attribute id="854" value="" name="ident"/>
         </Attributes>
         <MetaData>
          <entry key="WinSubProjectDisplayName" val=""/>
         </MetaData>
         <ExtraData>
          <Entry key="ZoomPanBin">
           <ZoomPanBin id="855"  >
            <ZoomPanKeyframes>
             <ZoomPanKeyframe id="856" timeRangeEnd="-9999999/1" timeRangeDuration="0/1" interpolaterName="linr"  />
            </ZoomPanKeyframes>
           </ZoomPanBin>
          </Entry>
         </ExtraData>
        </IMFile>
        <UnifiedMedia id="857"  >
         <AudioTransition id="858" start="1650" duration="30" >
          <Parameters>
           <InterpolatingParam id="859" interp="linr"  time="0/1" value="1" leadInLength="0/1"  name="volume"/>
           <Parameter id="860"  name="captions"/>
          </Parameters>
          <Effects>
           <GenericEffect id="861" name = "AudioTransition" >
            <Parameters>
            <Parameter id="862"   name="audioEdgeModType">
             <Keyframes>
             <Keyframe id="863"  time="0/1" value="0" leadInLength="0/1"  />
             </Keyframes>
            </Parameter>
            <Parameter id="864"   name="audioTransitionType">
             <Keyframes>
             <Keyframe id="865"  time="0/1" value="" leadInLength="0/1"  />
             </Keyframes>
            </Parameter>
            </Parameters>
            <MetaData>
            </MetaData>
           </GenericEffect>
          </Effects>
          <Attributes>
           <Attribute id="866" value="" name="ident"/>
           <Attribute id="867" value="0" name="sampleRate"/>
           <Attribute id="868" value="0" name="bitDepth"/>
           <Attribute id="869" value="1" name="gain"/>
           <Attribute id="870" value="0" name="mixToMono"/>
          </Attributes>
         </AudioTransition>
         <ImageTransition id="871" start="1650" duration="30" >
          <Transformer>
           <VectorParam id="872"  name="translation">
            <InterpolatingParam id="873" interp="linr"  time="0/1" value="0" leadInLength="0/1"  />
            <InterpolatingParam id="874" interp="linr"  time="0/1" value="0" leadInLength="0/1"  />
            <InterpolatingParam id="875" interp="linr"  time="0/1" value="0" leadInLength="0/1"  />
           </VectorParam>
           <VectorParam id="876"  name="rotation">
            <InterpolatingParam id="877" interp="linr"  time="0/1" value="0" leadInLength="0/1"  />
            <InterpolatingParam id="878" interp="linr"  time="0/1" value="0" leadInLength="0/1"  />
            <InterpolatingParam id="879" interp="linr"  time="0/1" value="0" leadInLength="0/1"  />
           </VectorParam>
           <VectorParam id="880"  name="shear">
            <InterpolatingParam id="881" interp="linr"  time="0/1" value="0" leadInLength="0/1"  />
            <InterpolatingParam id="882" interp="linr"  time="0/1" value="0" leadInLength="0/1"  />
            <InterpolatingParam id="883" interp="linr"  time="0/1" value="0" leadInLength="0/1"  />
           </VectorParam>
           <VectorParam id="884"  name="scale">
            <InterpolatingParam id="885" interp="linr"  time="0/1" value="1" leadInLength="0/1"  />
            <InterpolatingParam id="886" interp="linr"  time="0/1" value="1" leadInLength="0/1"  />
            <InterpolatingParam id="887" interp="linr"  time="0/1" value="1" leadInLength="0/1"  />
           </VectorParam>
           <VectorParam id="888"  name="anchor">
            <InterpolatingParam id="889" interp="linr"  time="0/1" value="0" leadInLength="0/1"  />
            <InterpolatingParam id="890" interp="linr"  time="0/1" value="0" leadInLength="0/1"  />
            <InterpolatingParam id="891" interp="linr"  time="0/1" value="0" leadInLength="0/1"  />
           </VectorParam>
          </Transformer>
          <Parameters>
           <VectorParam id="892"  name="sourceCrop">
            <InterpolatingParam id="893" interp="linr"  time="0/1" value="0" leadInLength="0/1"  />
            <InterpolatingParam id="894" interp="linr"  time="0/1" value="0" leadInLength="0/1"  />
            <InterpolatingParam id="895" interp="linr"  time="0/1" value="0" leadInLength="0/1"  />
            <InterpolatingParam id="896" interp="linr"  time="0/1" value="0" leadInLength="0/1"  />
           </VectorParam>
           <VectorParam id="897"  name="geometryCrop">
            <InterpolatingParam id="898" interp="linr"  time="0/1" value="0" leadInLength="0/1"  />
            <InterpolatingParam id="899" interp="linr"  time="0/1" value="0" leadInLength="0/1"  />
            <InterpolatingParam id="900" interp="linr"  time="0/1" value="0" leadInLength="0/1"  />
            <InterpolatingParam id="901" interp="linr"  time="0/1" value="0" leadInLength="0/1"  />
           </VectorParam>
           <InterpolatingParam id="902" interp="linr"  time="0/1" value="1" leadInLength="0/1"  name="opacity"/>
          </Parameters>
          <Effects>
           <GenericEffect id="903" name = "VisualTransition" >
            <Parameters>
            <InterpolatingParam id="904" interp="linr"  time="0/1" value="1" leadInLength="0/1"   name="leftFramePercentage"/>
            <InterpolatingParam id="905" interp="linr"  time="0/1" value="1" leadInLength="0/1"   name="rightFramePercentage"/>
            <Parameter id="906"   name="visualEdgeModType">
             <Keyframes>
             <Keyframe id="907"  time="0/1" value="0" leadInLength="0/1"  />
             </Keyframes>
            </Parameter>
            <Parameter id="908"   name="visualTransitionType">
             <Keyframes>
             <Keyframe id="909"  time="0/1" value="Fade" leadInLength="0/1"  />
             </Keyframes>
            </Parameter>
            </Parameters>
            <MetaData>
            </MetaData>
           </GenericEffect>
          </Effects>
          <Attributes>
           <Attribute id="910" value="" name="ident"/>
          </Attributes>
          <ExtraData>
           <Entry key="ZoomPanBin">
            <ZoomPanBin id="911"  >
             <ZoomPanKeyframes>
             </ZoomPanKeyframes>
            </ZoomPanBin>
           </Entry>
          </ExtraData>
         </ImageTransition>
         <MetaData>
          <entry key="WinSubProjectDisplayName" val=""/>
         </MetaData>
        </UnifiedMedia>
        <IMFile id="912" start="1680" duration="3448" scalar="1/1" mediaStart="0/1" mediaDuration="1/1" trackNumber="0" src="11" trimStartSum="-499/1" >
         <Transformer>
          <VectorParam id="913"  name="translation">
           <InterpolatingParam id="914" interp="linr"  time="-9999999/1" value="0" leadInLength="0/1"  />
           <InterpolatingParam id="915" interp="linr"  time="-9999999/1" value="0" leadInLength="0/1"  />
           <InterpolatingParam id="916" interp="linr"  time="-9999999/1" value="0" leadInLength="0/1"  />
          </VectorParam>
          <VectorParam id="917"  name="rotation">
           <InterpolatingParam id="918" interp="linr"  time="-9999999/1" value="0" leadInLength="0/1"  />
           <InterpolatingParam id="919" interp="linr"  time="-9999999/1" value="0" leadInLength="0/1"  />
           <InterpolatingParam id="920" interp="linr"  time="-9999999/1" value="0" leadInLength="0/1"  />
          </VectorParam>
          <VectorParam id="921"  name="shear">
           <InterpolatingParam id="922" interp="linr"  time="-9999999/1" value="0" leadInLength="0/1"  />
           <InterpolatingParam id="923" interp="linr"  time="-9999999/1" value="0" leadInLength="0/1"  />
           <InterpolatingParam id="924" interp="linr"  time="-9999999/1" value="0" leadInLength="0/1"  />
          </VectorParam>
          <VectorParam id="925"  name="scale">
           <InterpolatingParam id="926" interp="linr"  time="-9999999/1" value="0.83333333333333337" leadInLength="0/1"  />
           <InterpolatingParam id="927" interp="linr"  time="-9999999/1" value="0.83333333333333337" leadInLength="0/1"  />
           <InterpolatingParam id="928" interp="linr"  time="-9999999/1" value="1" leadInLength="0/1"  />
          </VectorParam>
          <VectorParam id="929"  name="anchor">
           <InterpolatingParam id="930" interp="linr"  time="0/1" value="0" leadInLength="0/1"  />
           <InterpolatingParam id="931" interp="linr"  time="0/1" value="0" leadInLength="0/1"  />
           <InterpolatingParam id="932" interp="linr"  time="0/1" value="0" leadInLength="0/1"  />
          </VectorParam>
         </Transformer>
         <Parameters>
          <VectorParam id="933"  name="sourceCrop">
           <InterpolatingParam id="934" interp="linr"  time="0/1" value="0" leadInLength="0/1"  />
           <InterpolatingParam id="935" interp="linr"  time="0/1" value="0" leadInLength="0/1"  />
           <InterpolatingParam id="936" interp="linr"  time="0/1" value="0" leadInLength="0/1"  />
           <InterpolatingParam id="937" interp="linr"  time="0/1" value="0" leadInLength="0/1"  />
          </VectorParam>
          <VectorParam id="938"  name="geometryCrop">
           <InterpolatingParam id="939" interp="linr"  time="-9999999/1" value="0" leadInLength="0/1"  />
           <InterpolatingParam id="940" interp="linr"  time="-9999999/1" value="0" leadInLength="0/1"  />
           <InterpolatingParam id="941" interp="linr"  time="-9999999/1" value="0" leadInLength="0/1"  />
           <InterpolatingParam id="942" interp="linr"  time="-9999999/1" value="0" leadInLength="0/1"  />
          </VectorParam>
          <InterpolatingParam id="943" interp="linr"  time="-9999999/1" value="1" leadInLength="0/1"  name="opacity"/>
         </Parameters>
         <Attributes>
          <Attribute id="944" value="" name="ident"/>
         </Attributes>
         <MetaData>
          <entry key="WinSubProjectDisplayName" val=""/>
         </MetaData>
         <ExtraData>
          <Entry key="ZoomPanBin">
           <ZoomPanBin id="945"  >
            <ZoomPanKeyframes>
             <ZoomPanKeyframe id="946" timeRangeEnd="-9999999/1" timeRangeDuration="0/1" interpolaterName="linr"  />
            </ZoomPanKeyframes>
           </ZoomPanBin>
          </Entry>
         </ExtraData>
        </IMFile>
        <UnifiedMedia id="947"  >
         <AudioTransition id="948" start="5128" duration="30" >
          <Parameters>
           <InterpolatingParam id="949" interp="linr"  time="0/1" value="1" leadInLength="0/1"  name="volume"/>
           <Parameter id="950"  name="captions"/>
          </Parameters>
          <Effects>
           <GenericEffect id="951" name = "AudioTransition" >
            <Parameters>
            <Parameter id="952"   name="audioEdgeModType">
             <Keyframes>
             <Keyframe id="953"  time="0/1" value="0" leadInLength="0/1"  />
             </Keyframes>
            </Parameter>
            <Parameter id="954"   name="audioTransitionType">
             <Keyframes>
             <Keyframe id="955"  time="0/1" value="" leadInLength="0/1"  />
             </Keyframes>
            </Parameter>
            </Parameters>
            <MetaData>
            </MetaData>
           </GenericEffect>
          </Effects>
          <Attributes>
           <Attribute id="956" value="" name="ident"/>
           <Attribute id="957" value="0" name="sampleRate"/>
           <Attribute id="958" value="0" name="bitDepth"/>
           <Attribute id="959" value="1" name="gain"/>
           <Attribute id="960" value="0" name="mixToMono"/>
          </Attributes>
         </AudioTransition>
         <ImageTransition id="961" start="5128" duration="30" >
          <Transformer>
           <VectorParam id="962"  name="translation">
            <InterpolatingParam id="963" interp="linr"  time="0/1" value="0" leadInLength="0/1"  />
            <InterpolatingParam id="964" interp="linr"  time="0/1" value="0" leadInLength="0/1"  />
            <InterpolatingParam id="965" interp="linr"  time="0/1" value="0" leadInLength="0/1"  />
           </VectorParam>
           <VectorParam id="966"  name="rotation">
            <InterpolatingParam id="967" interp="linr"  time="0/1" value="0" leadInLength="0/1"  />
            <InterpolatingParam id="968" interp="linr"  time="0/1" value="0" leadInLength="0/1"  />
            <InterpolatingParam id="969" interp="linr"  time="0/1" value="0" leadInLength="0/1"  />
           </VectorParam>
           <VectorParam id="970"  name="shear">
            <InterpolatingParam id="971" interp="linr"  time="0/1" value="0" leadInLength="0/1"  />
            <InterpolatingParam id="972" interp="linr"  time="0/1" value="0" leadInLength="0/1"  />
            <InterpolatingParam id="973" interp="linr"  time="0/1" value="0" leadInLength="0/1"  />
           </VectorParam>
           <VectorParam id="974"  name="scale">
            <InterpolatingParam id="975" interp="linr"  time="0/1" value="1" leadInLength="0/1"  />
            <InterpolatingParam id="976" interp="linr"  time="0/1" value="1" leadInLength="0/1"  />
            <InterpolatingParam id="977" interp="linr"  time="0/1" value="1" leadInLength="0/1"  />
           </VectorParam>
           <VectorParam id="978"  name="anchor">
            <InterpolatingParam id="979" interp="linr"  time="0/1" value="0" leadInLength="0/1"  />
            <InterpolatingParam id="980" interp="linr"  time="0/1" value="0" leadInLength="0/1"  />
            <InterpolatingParam id="981" interp="linr"  time="0/1" value="0" leadInLength="0/1"  />
           </VectorParam>
          </Transformer>
          <Parameters>
           <VectorParam id="982"  name="sourceCrop">
            <InterpolatingParam id="983" interp="linr"  time="0/1" value="0" leadInLength="0/1"  />
            <InterpolatingParam id="984" interp="linr"  time="0/1" value="0" leadInLength="0/1"  />
            <InterpolatingParam id="985" interp="linr"  time="0/1" value="0" leadInLength="0/1"  />
            <InterpolatingParam id="986" interp="linr"  time="0/1" value="0" leadInLength="0/1"  />
           </VectorParam>
           <VectorParam id="987"  name="geometryCrop">
            <InterpolatingParam id="988" interp="linr"  time="0/1" value="0" leadInLength="0/1"  />
            <InterpolatingParam id="989" interp="linr"  time="0/1" value="0" leadInLength="0/1"  />
            <InterpolatingParam id="990" interp="linr"  time="0/1" value="0" leadInLength="0/1"  />
            <InterpolatingParam id="991" interp="linr"  time="0/1" value="0" leadInLength="0/1"  />
           </VectorParam>
           <InterpolatingParam id="992" interp="linr"  time="0/1" value="1" leadInLength="0/1"  name="opacity"/>
          </Parameters>
          <Effects>
           <GenericEffect id="993" name = "VisualTransition" >
            <Parameters>
            <InterpolatingParam id="994" interp="linr"  time="0/1" value="1" leadInLength="0/1"   name="leftFramePercentage"/>
            <InterpolatingParam id="995" interp="linr"  time="0/1" value="1" leadInLength="0/1"   name="rightFramePercentage"/>
            <Parameter id="996"   name="visualEdgeModType">
             <Keyframes>
             <Keyframe id="997"  time="0/1" value="0" leadInLength="0/1"  />
             </Keyframes>
            </Parameter>
            <Parameter id="998"   name="visualTransitionType">
             <Keyframes>
             <Keyframe id="999"  time="0/1" value="Fade" leadInLength="0/1"  />
             </Keyframes>
            </Parameter>
            </Parameters>
            <MetaData>
            </MetaData>
           </GenericEffect>
          </Effects>
          <Attributes>
           <Attribute id="1000" value="" name="ident"/>
          </Attributes>
          <ExtraData>
           <Entry key="ZoomPanBin">
            <ZoomPanBin id="1001"  >
             <ZoomPanKeyframes>
             </ZoomPanKeyframes>
            </ZoomPanBin>
           </Entry>
          </ExtraData>
         </ImageTransition>
         <MetaData>
          <entry key="WinSubProjectDisplayName" val=""/>
         </MetaData>
        </UnifiedMedia>
        <IMFile id="1002" start="5158" duration="500" scalar="1/1" mediaStart="0/1" mediaDuration="1/1" trackNumber="0" src="13" trimStartSum="35/1" >
         <Transformer>
          <VectorParam id="1003"  name="translation">
           <InterpolatingParam id="1004" interp="linr"  time="-9999999/1" value="0" leadInLength="0/1"  />
           <InterpolatingParam id="1005" interp="linr"  time="-9999999/1" value="0" leadInLength="0/1"  />
           <InterpolatingParam id="1006" interp="linr"  time="-9999999/1" value="0" leadInLength="0/1"  />
          </VectorParam>
          <VectorParam id="1007"  name="rotation">
           <InterpolatingParam id="1008" interp="linr"  time="-9999999/1" value="0" leadInLength="0/1"  />
           <InterpolatingParam id="1009" interp="linr"  time="-9999999/1" value="0" leadInLength="0/1"  />
           <InterpolatingParam id="1010" interp="linr"  time="-9999999/1" value="0" leadInLength="0/1"  />
          </VectorParam>
          <VectorParam id="1011"  name="shear">
           <InterpolatingParam id="1012" interp="linr"  time="-9999999/1" value="0" leadInLength="0/1"  />
           <InterpolatingParam id="1013" interp="linr"  time="-9999999/1" value="0" leadInLength="0/1"  />
           <InterpolatingParam id="1014" interp="linr"  time="-9999999/1" value="0" leadInLength="0/1"  />
          </VectorParam>
          <VectorParam id="1015"  name="scale">
           <InterpolatingParam id="1016" interp="linr"  time="-9999999/1" value="0.83333333333333337" leadInLength="0/1"  />
           <InterpolatingParam id="1017" interp="linr"  time="-9999999/1" value="0.83333333333333337" leadInLength="0/1"  />
           <InterpolatingParam id="1018" interp="linr"  time="-9999999/1" value="1" leadInLength="0/1"  />
          </VectorParam>
          <VectorParam id="1019"  name="anchor">
           <InterpolatingParam id="1020" interp="linr"  time="0/1" value="0" leadInLength="0/1"  />
           <InterpolatingParam id="1021" interp="linr"  time="0/1" value="0" leadInLength="0/1"  />
           <InterpolatingParam id="1022" interp="linr"  time="0/1" value="0" leadInLength="0/1"  />
          </VectorParam>
         </Transformer>
         <Parameters>
          <VectorParam id="1023"  name="sourceCrop">
           <InterpolatingParam id="1024" interp="linr"  time="0/1" value="0" leadInLength="0/1"  />
           <InterpolatingParam id="1025" interp="linr"  time="0/1" value="0" leadInLength="0/1"  />
           <InterpolatingParam id="1026" interp="linr"  time="0/1" value="0" leadInLength="0/1"  />
           <InterpolatingParam id="1027" interp="linr"  time="0/1" value="0" leadInLength="0/1"  />
          </VectorParam>
          <VectorParam id="1028"  name="geometryCrop">
           <InterpolatingParam id="1029" interp="linr"  time="-9999999/1" value="0" leadInLength="0/1"  />
           <InterpolatingParam id="1030" interp="linr"  time="-9999999/1" value="0" leadInLength="0/1"  />
           <InterpolatingParam id="1031" interp="linr"  time="-9999999/1" value="0" leadInLength="0/1"  />
           <InterpolatingParam id="1032" interp="linr"  time="-9999999/1" value="0" leadInLength="0/1"  />
          </VectorParam>
          <InterpolatingParam id="1033" interp="linr"  time="-9999999/1" value="1" leadInLength="0/1"  name="opacity"/>
         </Parameters>
         <Attributes>
          <Attribute id="1034" value="" name="ident"/>
         </Attributes>
         <MetaData>
          <entry key="WinSubProjectDisplayName" val=""/>
         </MetaData>
         <ExtraData>
          <Entry key="ZoomPanBin">
           <ZoomPanBin id="1035"  >
            <ZoomPanKeyframes>
             <ZoomPanKeyframe id="1036" timeRangeEnd="-9999999/1" timeRangeDuration="0/1" interpolaterName="linr"  />
            </ZoomPanKeyframes>
           </ZoomPanBin>
          </Entry>
         </ExtraData>
        </IMFile>
        <UnifiedMedia id="1037"  >
         <AudioTransition id="1038" start="5658" duration="30" >
          <Parameters>
           <InterpolatingParam id="1039" interp="linr"  time="0/1" value="1" leadInLength="0/1"  name="volume"/>
           <Parameter id="1040"  name="captions"/>
          </Parameters>
          <Effects>
           <GenericEffect id="1041" name = "AudioTransition" >
            <Parameters>
            <Parameter id="1042"   name="audioEdgeModType">
             <Keyframes>
             <Keyframe id="1043"  time="0/1" value="0" leadInLength="0/1"  />
             </Keyframes>
            </Parameter>
            <Parameter id="1044"   name="audioTransitionType">
             <Keyframes>
             <Keyframe id="1045"  time="0/1" value="" leadInLength="0/1"  />
             </Keyframes>
            </Parameter>
            </Parameters>
            <MetaData>
            </MetaData>
           </GenericEffect>
          </Effects>
          <Attributes>
           <Attribute id="1046" value="" name="ident"/>
           <Attribute id="1047" value="0" name="sampleRate"/>
           <Attribute id="1048" value="0" name="bitDepth"/>
           <Attribute id="1049" value="1" name="gain"/>
           <Attribute id="1050" value="0" name="mixToMono"/>
          </Attributes>
         </AudioTransition>
         <ImageTransition id="1051" start="5658" duration="30" >
          <Transformer>
           <VectorParam id="1052"  name="translation">
            <InterpolatingParam id="1053" interp="linr"  time="0/1" value="0" leadInLength="0/1"  />
            <InterpolatingParam id="1054" interp="linr"  time="0/1" value="0" leadInLength="0/1"  />
            <InterpolatingParam id="1055" interp="linr"  time="0/1" value="0" leadInLength="0/1"  />
           </VectorParam>
           <VectorParam id="1056"  name="rotation">
            <InterpolatingParam id="1057" interp="linr"  time="0/1" value="0" leadInLength="0/1"  />
            <InterpolatingParam id="1058" interp="linr"  time="0/1" value="0" leadInLength="0/1"  />
            <InterpolatingParam id="1059" interp="linr"  time="0/1" value="0" leadInLength="0/1"  />
           </VectorParam>
           <VectorParam id="1060"  name="shear">
            <InterpolatingParam id="1061" interp="linr"  time="0/1" value="0" leadInLength="0/1"  />
            <InterpolatingParam id="1062" interp="linr"  time="0/1" value="0" leadInLength="0/1"  />
            <InterpolatingParam id="1063" interp="linr"  time="0/1" value="0" leadInLength="0/1"  />
           </VectorParam>
           <VectorParam id="1064"  name="scale">
            <InterpolatingParam id="1065" interp="linr"  time="0/1" value="1" leadInLength="0/1"  />
            <InterpolatingParam id="1066" interp="linr"  time="0/1" value="1" leadInLength="0/1"  />
            <InterpolatingParam id="1067" interp="linr"  time="0/1" value="1" leadInLength="0/1"  />
           </VectorParam>
           <VectorParam id="1068"  name="anchor">
            <InterpolatingParam id="1069" interp="linr"  time="0/1" value="0" leadInLength="0/1"  />
            <InterpolatingParam id="1070" interp="linr"  time="0/1" value="0" leadInLength="0/1"  />
            <InterpolatingParam id="1071" interp="linr"  time="0/1" value="0" leadInLength="0/1"  />
           </VectorParam>
          </Transformer>
          <Parameters>
           <VectorParam id="1072"  name="sourceCrop">
            <InterpolatingParam id="1073" interp="linr"  time="0/1" value="0" leadInLength="0/1"  />
            <InterpolatingParam id="1074" interp="linr"  time="0/1" value="0" leadInLength="0/1"  />
            <InterpolatingParam id="1075" interp="linr"  time="0/1" value="0" leadInLength="0/1"  />
            <InterpolatingParam id="1076" interp="linr"  time="0/1" value="0" leadInLength="0/1"  />
           </VectorParam>
           <VectorParam id="1077"  name="geometryCrop">
            <InterpolatingParam id="1078" interp="linr"  time="0/1" value="0" leadInLength="0/1"  />
            <InterpolatingParam id="1079" interp="linr"  time="0/1" value="0" leadInLength="0/1"  />
            <InterpolatingParam id="1080" interp="linr"  time="0/1" value="0" leadInLength="0/1"  />
            <InterpolatingParam id="1081" interp="linr"  time="0/1" value="0" leadInLength="0/1"  />
           </VectorParam>
           <InterpolatingParam id="1082" interp="linr"  time="0/1" value="1" leadInLength="0/1"  name="opacity"/>
          </Parameters>
          <Effects>
           <GenericEffect id="1083" name = "VisualTransition" >
            <Parameters>
            <InterpolatingParam id="1084" interp="linr"  time="0/1" value="1" leadInLength="0/1"   name="leftFramePercentage"/>
            <InterpolatingParam id="1085" interp="linr"  time="0/1" value="1" leadInLength="0/1"   name="rightFramePercentage"/>
            <Parameter id="1086"   name="visualEdgeModType">
             <Keyframes>
             <Keyframe id="1087"  time="0/1" value="0" leadInLength="0/1"  />
             </Keyframes>
            </Parameter>
            <Parameter id="1088"   name="visualTransitionType">
             <Keyframes>
             <Keyframe id="1089"  time="0/1" value="Fade" leadInLength="0/1"  />
             </Keyframes>
            </Parameter>
            </Parameters>
            <MetaData>
            </MetaData>
           </GenericEffect>
          </Effects>
          <Attributes>
           <Attribute id="1090" value="" name="ident"/>
          </Attributes>
          <ExtraData>
           <Entry key="ZoomPanBin">
            <ZoomPanBin id="1091"  >
             <ZoomPanKeyframes>
             </ZoomPanKeyframes>
            </ZoomPanBin>
           </Entry>
          </ExtraData>
         </ImageTransition>
         <MetaData>
          <entry key="WinSubProjectDisplayName" val=""/>
         </MetaData>
        </UnifiedMedia>
        <IMFile id="1092" start="5688" duration="650" scalar="1/1" mediaStart="0/1" mediaDuration="1/1" trackNumber="0" src="14" trimStartSum="15/1" >
         <Transformer>
          <VectorParam id="1093"  name="translation">
           <InterpolatingParam id="1094" interp="linr"  time="-9999999/1" value="0" leadInLength="0/1"  />
           <InterpolatingParam id="1095" interp="linr"  time="-9999999/1" value="0" leadInLength="0/1"  />
           <InterpolatingParam id="1096" interp="linr"  time="-9999999/1" value="0" leadInLength="0/1"  />
          </VectorParam>
          <VectorParam id="1097"  name="rotation">
           <InterpolatingParam id="1098" interp="linr"  time="-9999999/1" value="0" leadInLength="0/1"  />
           <InterpolatingParam id="1099" interp="linr"  time="-9999999/1" value="0" leadInLength="0/1"  />
           <InterpolatingParam id="1100" interp="linr"  time="-9999999/1" value="0" leadInLength="0/1"  />
          </VectorParam>
          <VectorParam id="1101"  name="shear">
           <InterpolatingParam id="1102" interp="linr"  time="-9999999/1" value="0" leadInLength="0/1"  />
           <InterpolatingParam id="1103" interp="linr"  time="-9999999/1" value="0" leadInLength="0/1"  />
           <InterpolatingParam id="1104" interp="linr"  time="-9999999/1" value="0" leadInLength="0/1"  />
          </VectorParam>
          <VectorParam id="1105"  name="scale">
           <InterpolatingParam id="1106" interp="linr"  time="-9999999/1" value="0.83333333333333337" leadInLength="0/1"  />
           <InterpolatingParam id="1107" interp="linr"  time="-9999999/1" value="0.83333333333333337" leadInLength="0/1"  />
           <InterpolatingParam id="1108" interp="linr"  time="-9999999/1" value="1" leadInLength="0/1"  />
          </VectorParam>
          <VectorParam id="1109"  name="anchor">
           <InterpolatingParam id="1110" interp="linr"  time="0/1" value="0" leadInLength="0/1"  />
           <InterpolatingParam id="1111" interp="linr"  time="0/1" value="0" leadInLength="0/1"  />
           <InterpolatingParam id="1112" interp="linr"  time="0/1" value="0" leadInLength="0/1"  />
          </VectorParam>
         </Transformer>
         <Parameters>
          <VectorParam id="1113"  name="sourceCrop">
           <InterpolatingParam id="1114" interp="linr"  time="0/1" value="0" leadInLength="0/1"  />
           <InterpolatingParam id="1115" interp="linr"  time="0/1" value="0" leadInLength="0/1"  />
           <InterpolatingParam id="1116" interp="linr"  time="0/1" value="0" leadInLength="0/1"  />
           <InterpolatingParam id="1117" interp="linr"  time="0/1" value="0" leadInLength="0/1"  />
          </VectorParam>
          <VectorParam id="1118"  name="geometryCrop">
           <InterpolatingParam id="1119" interp="linr"  time="-9999999/1" value="0" leadInLength="0/1"  />
           <InterpolatingParam id="1120" interp="linr"  time="-9999999/1" value="0" leadInLength="0/1"  />
           <InterpolatingParam id="1121" interp="linr"  time="-9999999/1" value="0" leadInLength="0/1"  />
           <InterpolatingParam id="1122" interp="linr"  time="-9999999/1" value="0" leadInLength="0/1"  />
          </VectorParam>
          <InterpolatingParam id="1123" interp="linr"  time="-9999999/1" value="1" leadInLength="0/1"  name="opacity"/>
         </Parameters>
         <Attributes>
          <Attribute id="1124" value="" name="ident"/>
         </Attributes>
         <MetaData>
          <entry key="WinSubProjectDisplayName" val=""/>
         </MetaData>
         <ExtraData>
          <Entry key="ZoomPanBin">
           <ZoomPanBin id="1125"  >
            <ZoomPanKeyframes>
             <ZoomPanKeyframe id="1126" timeRangeEnd="-9999999/1" timeRangeDuration="0/1" interpolaterName="linr"  />
            </ZoomPanKeyframes>
           </ZoomPanBin>
          </Entry>
         </ExtraData>
        </IMFile>
        <UnifiedMedia id="1127"  >
         <AudioTransition id="1128" start="6338" duration="30" >
          <Parameters>
           <InterpolatingParam id="1129" interp="linr"  time="0/1" value="1" leadInLength="0/1"  name="volume"/>
           <Parameter id="1130"  name="captions"/>
          </Parameters>
          <Effects>
           <GenericEffect id="1131" name = "AudioTransition" >
            <Parameters>
            <Parameter id="1132"   name="audioEdgeModType">
             <Keyframes>
             <Keyframe id="1133"  time="0/1" value="0" leadInLength="0/1"  />
             </Keyframes>
            </Parameter>
            <Parameter id="1134"   name="audioTransitionType">
             <Keyframes>
             <Keyframe id="1135"  time="0/1" value="" leadInLength="0/1"  />
             </Keyframes>
            </Parameter>
            </Parameters>
            <MetaData>
            </MetaData>
           </GenericEffect>
          </Effects>
          <Attributes>
           <Attribute id="1136" value="" name="ident"/>
           <Attribute id="1137" value="0" name="sampleRate"/>
           <Attribute id="1138" value="0" name="bitDepth"/>
           <Attribute id="1139" value="1" name="gain"/>
           <Attribute id="1140" value="0" name="mixToMono"/>
          </Attributes>
         </AudioTransition>
         <ImageTransition id="1141" start="6338" duration="30" >
          <Transformer>
           <VectorParam id="1142"  name="translation">
            <InterpolatingParam id="1143" interp="linr"  time="0/1" value="0" leadInLength="0/1"  />
            <InterpolatingParam id="1144" interp="linr"  time="0/1" value="0" leadInLength="0/1"  />
            <InterpolatingParam id="1145" interp="linr"  time="0/1" value="0" leadInLength="0/1"  />
           </VectorParam>
           <VectorParam id="1146"  name="rotation">
            <InterpolatingParam id="1147" interp="linr"  time="0/1" value="0" leadInLength="0/1"  />
            <InterpolatingParam id="1148" interp="linr"  time="0/1" value="0" leadInLength="0/1"  />
            <InterpolatingParam id="1149" interp="linr"  time="0/1" value="0" leadInLength="0/1"  />
           </VectorParam>
           <VectorParam id="1150"  name="shear">
            <InterpolatingParam id="1151" interp="linr"  time="0/1" value="0" leadInLength="0/1"  />
            <InterpolatingParam id="1152" interp="linr"  time="0/1" value="0" leadInLength="0/1"  />
            <InterpolatingParam id="1153" interp="linr"  time="0/1" value="0" leadInLength="0/1"  />
           </VectorParam>
           <VectorParam id="1154"  name="scale">
            <InterpolatingParam id="1155" interp="linr"  time="0/1" value="1" leadInLength="0/1"  />
            <InterpolatingParam id="1156" interp="linr"  time="0/1" value="1" leadInLength="0/1"  />
            <InterpolatingParam id="1157" interp="linr"  time="0/1" value="1" leadInLength="0/1"  />
           </VectorParam>
           <VectorParam id="1158"  name="anchor">
            <InterpolatingParam id="1159" interp="linr"  time="0/1" value="0" leadInLength="0/1"  />
            <InterpolatingParam id="1160" interp="linr"  time="0/1" value="0" leadInLength="0/1"  />
            <InterpolatingParam id="1161" interp="linr"  time="0/1" value="0" leadInLength="0/1"  />
           </VectorParam>
          </Transformer>
          <Parameters>
           <VectorParam id="1162"  name="sourceCrop">
            <InterpolatingParam id="1163" interp="linr"  time="0/1" value="0" leadInLength="0/1"  />
            <InterpolatingParam id="1164" interp="linr"  time="0/1" value="0" leadInLength="0/1"  />
            <InterpolatingParam id="1165" interp="linr"  time="0/1" value="0" leadInLength="0/1"  />
            <InterpolatingParam id="1166" interp="linr"  time="0/1" value="0" leadInLength="0/1"  />
           </VectorParam>
           <VectorParam id="1167"  name="geometryCrop">
            <InterpolatingParam id="1168" interp="linr"  time="0/1" value="0" leadInLength="0/1"  />
            <InterpolatingParam id="1169" interp="linr"  time="0/1" value="0" leadInLength="0/1"  />
            <InterpolatingParam id="1170" interp="linr"  time="0/1" value="0" leadInLength="0/1"  />
            <InterpolatingParam id="1171" interp="linr"  time="0/1" value="0" leadInLength="0/1"  />
           </VectorParam>
           <InterpolatingParam id="1172" interp="linr"  time="0/1" value="1" leadInLength="0/1"  name="opacity"/>
          </Parameters>
          <Effects>
           <GenericEffect id="1173" name = "VisualTransition" >
            <Parameters>
            <InterpolatingParam id="1174" interp="linr"  time="0/1" value="1" leadInLength="0/1"   name="leftFramePercentage"/>
            <InterpolatingParam id="1175" interp="linr"  time="0/1" value="1" leadInLength="0/1"   name="rightFramePercentage"/>
            <Parameter id="1176"   name="visualEdgeModType">
             <Keyframes>
             <Keyframe id="1177"  time="0/1" value="0" leadInLength="0/1"  />
             </Keyframes>
            </Parameter>
            <Parameter id="1178"   name="visualTransitionType">
             <Keyframes>
             <Keyframe id="1179"  time="0/1" value="Fade" leadInLength="0/1"  />
             </Keyframes>
            </Parameter>
            </Parameters>
            <MetaData>
            </MetaData>
           </GenericEffect>
          </Effects>
          <Attributes>
           <Attribute id="1180" value="" name="ident"/>
          </Attributes>
          <ExtraData>
           <Entry key="ZoomPanBin">
            <ZoomPanBin id="1181"  >
             <ZoomPanKeyframes>
             </ZoomPanKeyframes>
            </ZoomPanBin>
           </Entry>
          </ExtraData>
         </ImageTransition>
         <MetaData>
          <entry key="WinSubProjectDisplayName" val=""/>
         </MetaData>
        </UnifiedMedia>
        <IMFile id="1182" start="6368" duration="1260" scalar="1/1" mediaStart="0/1" mediaDuration="1/1" trackNumber="0" src="15" trimStartSum="15/1" >
         <Transformer>
          <VectorParam id="1183"  name="translation">
           <InterpolatingParam id="1184" interp="linr"  time="-9999999/1" value="0" leadInLength="0/1"  />
           <InterpolatingParam id="1185" interp="linr"  time="-9999999/1" value="0" leadInLength="0/1"  />
           <InterpolatingParam id="1186" interp="linr"  time="-9999999/1" value="0" leadInLength="0/1"  />
          </VectorParam>
          <VectorParam id="1187"  name="rotation">
           <InterpolatingParam id="1188" interp="linr"  time="-9999999/1" value="0" leadInLength="0/1"  />
           <InterpolatingParam id="1189" interp="linr"  time="-9999999/1" value="0" leadInLength="0/1"  />
           <InterpolatingParam id="1190" interp="linr"  time="-9999999/1" value="0" leadInLength="0/1"  />
          </VectorParam>
          <VectorParam id="1191"  name="shear">
           <InterpolatingParam id="1192" interp="linr"  time="-9999999/1" value="0" leadInLength="0/1"  />
           <InterpolatingParam id="1193" interp="linr"  time="-9999999/1" value="0" leadInLength="0/1"  />
           <InterpolatingParam id="1194" interp="linr"  time="-9999999/1" value="0" leadInLength="0/1"  />
          </VectorParam>
          <VectorParam id="1195"  name="scale">
           <InterpolatingParam id="1196" interp="linr"  time="-9999999/1" value="0.58565153733528552" leadInLength="0/1"  />
           <InterpolatingParam id="1197" interp="linr"  time="-9999999/1" value="0.58565153733528552" leadInLength="0/1"  />
           <InterpolatingParam id="1198" interp="linr"  time="-9999999/1" value="1" leadInLength="0/1"  />
          </VectorParam>
          <VectorParam id="1199"  name="anchor">
           <InterpolatingParam id="1200" interp="linr"  time="0/1" value="0" leadInLength="0/1"  />
           <InterpolatingParam id="1201" interp="linr"  time="0/1" value="0" leadInLength="0/1"  />
           <InterpolatingParam id="1202" interp="linr"  time="0/1" value="0" leadInLength="0/1"  />
          </VectorParam>
         </Transformer>
         <Parameters>
          <VectorParam id="1203"  name="sourceCrop">
           <InterpolatingParam id="1204" interp="linr"  time="0/1" value="0" leadInLength="0/1"  />
           <InterpolatingParam id="1205" interp="linr"  time="0/1" value="0" leadInLength="0/1"  />
           <InterpolatingParam id="1206" interp="linr"  time="0/1" value="0" leadInLength="0/1"  />
           <InterpolatingParam id="1207" interp="linr"  time="0/1" value="0" leadInLength="0/1"  />
          </VectorParam>
          <VectorParam id="1208"  name="geometryCrop">
           <InterpolatingParam id="1209" interp="linr"  time="-9999999/1" value="0" leadInLength="0/1"  />
           <InterpolatingParam id="1210" interp="linr"  time="-9999999/1" value="0" leadInLength="0/1"  />
           <InterpolatingParam id="1211" interp="linr"  time="-9999999/1" value="0" leadInLength="0/1"  />
           <InterpolatingParam id="1212" interp="linr"  time="-9999999/1" value="0" leadInLength="0/1"  />
          </VectorParam>
          <InterpolatingParam id="1213" interp="linr"  time="-9999999/1" value="1" leadInLength="0/1"  name="opacity"/>
         </Parameters>
         <Attributes>
          <Attribute id="1214" value="" name="ident"/>
         </Attributes>
         <MetaData>
          <entry key="WinSubProjectDisplayName" val=""/>
         </MetaData>
         <ExtraData>
          <Entry key="ZoomPanBin">
           <ZoomPanBin id="1215"  >
            <ZoomPanKeyframes>
             <ZoomPanKeyframe id="1216" timeRangeEnd="-9999999/1" timeRangeDuration="0/1" interpolaterName="linr"  />
            </ZoomPanKeyframes>
           </ZoomPanBin>
          </Entry>
         </ExtraData>
        </IMFile>
        <UnifiedMedia id="1217"  >
         <AudioTransition id="1218" start="7628" duration="30" >
          <Parameters>
           <InterpolatingParam id="1219" interp="linr"  time="0/1" value="1" leadInLength="0/1"  name="volume"/>
           <Parameter id="1220"  name="captions"/>
          </Parameters>
          <Effects>
           <GenericEffect id="1221" name = "AudioTransition" >
            <Parameters>
            <Parameter id="1222"   name="audioEdgeModType">
             <Keyframes>
             <Keyframe id="1223"  time="0/1" value="0" leadInLength="0/1"  />
             </Keyframes>
            </Parameter>
            <Parameter id="1224"   name="audioTransitionType">
             <Keyframes>
             <Keyframe id="1225"  time="0/1" value="" leadInLength="0/1"  />
             </Keyframes>
            </Parameter>
            </Parameters>
            <MetaData>
            </MetaData>
           </GenericEffect>
          </Effects>
          <Attributes>
           <Attribute id="1226" value="" name="ident"/>
           <Attribute id="1227" value="0" name="sampleRate"/>
           <Attribute id="1228" value="0" name="bitDepth"/>
           <Attribute id="1229" value="1" name="gain"/>
           <Attribute id="1230" value="0" name="mixToMono"/>
          </Attributes>
         </AudioTransition>
         <ImageTransition id="1231" start="7628" duration="30" >
          <Transformer>
           <VectorParam id="1232"  name="translation">
            <InterpolatingParam id="1233" interp="linr"  time="0/1" value="0" leadInLength="0/1"  />
            <InterpolatingParam id="1234" interp="linr"  time="0/1" value="0" leadInLength="0/1"  />
            <InterpolatingParam id="1235" interp="linr"  time="0/1" value="0" leadInLength="0/1"  />
           </VectorParam>
           <VectorParam id="1236"  name="rotation">
            <InterpolatingParam id="1237" interp="linr"  time="0/1" value="0" leadInLength="0/1"  />
            <InterpolatingParam id="1238" interp="linr"  time="0/1" value="0" leadInLength="0/1"  />
            <InterpolatingParam id="1239" interp="linr"  time="0/1" value="0" leadInLength="0/1"  />
           </VectorParam>
           <VectorParam id="1240"  name="shear">
            <InterpolatingParam id="1241" interp="linr"  time="0/1" value="0" leadInLength="0/1"  />
            <InterpolatingParam id="1242" interp="linr"  time="0/1" value="0" leadInLength="0/1"  />
            <InterpolatingParam id="1243" interp="linr"  time="0/1" value="0" leadInLength="0/1"  />
           </VectorParam>
           <VectorParam id="1244"  name="scale">
            <InterpolatingParam id="1245" interp="linr"  time="0/1" value="1" leadInLength="0/1"  />
            <InterpolatingParam id="1246" interp="linr"  time="0/1" value="1" leadInLength="0/1"  />
            <InterpolatingParam id="1247" interp="linr"  time="0/1" value="1" leadInLength="0/1"  />
           </VectorParam>
           <VectorParam id="1248"  name="anchor">
            <InterpolatingParam id="1249" interp="linr"  time="0/1" value="0" leadInLength="0/1"  />
            <InterpolatingParam id="1250" interp="linr"  time="0/1" value="0" leadInLength="0/1"  />
            <InterpolatingParam id="1251" interp="linr"  time="0/1" value="0" leadInLength="0/1"  />
           </VectorParam>
          </Transformer>
          <Parameters>
           <VectorParam id="1252"  name="sourceCrop">
            <InterpolatingParam id="1253" interp="linr"  time="0/1" value="0" leadInLength="0/1"  />
            <InterpolatingParam id="1254" interp="linr"  time="0/1" value="0" leadInLength="0/1"  />
            <InterpolatingParam id="1255" interp="linr"  time="0/1" value="0" leadInLength="0/1"  />
            <InterpolatingParam id="1256" interp="linr"  time="0/1" value="0" leadInLength="0/1"  />
           </VectorParam>
           <VectorParam id="1257"  name="geometryCrop">
            <InterpolatingParam id="1258" interp="linr"  time="0/1" value="0" leadInLength="0/1"  />
            <InterpolatingParam id="1259" interp="linr"  time="0/1" value="0" leadInLength="0/1"  />
            <InterpolatingParam id="1260" interp="linr"  time="0/1" value="0" leadInLength="0/1"  />
            <InterpolatingParam id="1261" interp="linr"  time="0/1" value="0" leadInLength="0/1"  />
           </VectorParam>
           <InterpolatingParam id="1262" interp="linr"  time="0/1" value="1" leadInLength="0/1"  name="opacity"/>
          </Parameters>
          <Effects>
           <GenericEffect id="1263" name = "VisualTransition" >
            <Parameters>
            <InterpolatingParam id="1264" interp="linr"  time="0/1" value="1" leadInLength="0/1"   name="leftFramePercentage"/>
            <InterpolatingParam id="1265" interp="linr"  time="0/1" value="1" leadInLength="0/1"   name="rightFramePercentage"/>
            <Parameter id="1266"   name="visualEdgeModType">
             <Keyframes>
             <Keyframe id="1267"  time="0/1" value="0" leadInLength="0/1"  />
             </Keyframes>
            </Parameter>
            <Parameter id="1268"   name="visualTransitionType">
             <Keyframes>
             <Keyframe id="1269"  time="0/1" value="Fade" leadInLength="0/1"  />
             </Keyframes>
            </Parameter>
            </Parameters>
            <MetaData>
            </MetaData>
           </GenericEffect>
          </Effects>
          <Attributes>
           <Attribute id="1270" value="" name="ident"/>
          </Attributes>
          <ExtraData>
           <Entry key="ZoomPanBin">
            <ZoomPanBin id="1271"  >
             <ZoomPanKeyframes>
             </ZoomPanKeyframes>
            </ZoomPanBin>
           </Entry>
          </ExtraData>
         </ImageTransition>
         <MetaData>
          <entry key="WinSubProjectDisplayName" val=""/>
         </MetaData>
        </UnifiedMedia>
        <IMFile id="1272" start="7658" duration="788" scalar="1/1" mediaStart="0/1" mediaDuration="1/1" trackNumber="0" src="16" trimStartSum="15/1" >
         <Transformer>
          <VectorParam id="1273"  name="translation">
           <InterpolatingParam id="1274" interp="linr"  time="-9999999/1" value="0" leadInLength="0/1"  />
           <InterpolatingParam id="1275" interp="linr"  time="-9999999/1" value="0" leadInLength="0/1"  />
           <InterpolatingParam id="1276" interp="linr"  time="-9999999/1" value="0" leadInLength="0/1"  />
          </VectorParam>
          <VectorParam id="1277"  name="rotation">
           <InterpolatingParam id="1278" interp="linr"  time="-9999999/1" value="0" leadInLength="0/1"  />
           <InterpolatingParam id="1279" interp="linr"  time="-9999999/1" value="0" leadInLength="0/1"  />
           <InterpolatingParam id="1280" interp="linr"  time="-9999999/1" value="0" leadInLength="0/1"  />
          </VectorParam>
          <VectorParam id="1281"  name="shear">
           <InterpolatingParam id="1282" interp="linr"  time="-9999999/1" value="0" leadInLength="0/1"  />
           <InterpolatingParam id="1283" interp="linr"  time="-9999999/1" value="0" leadInLength="0/1"  />
           <InterpolatingParam id="1284" interp="linr"  time="-9999999/1" value="0" leadInLength="0/1"  />
          </VectorParam>
          <VectorParam id="1285"  name="scale">
           <InterpolatingParam id="1286" interp="linr"  time="-9999999/1" value="0.83333333333333337" leadInLength="0/1"  />
           <InterpolatingParam id="1287" interp="linr"  time="-9999999/1" value="0.83333333333333337" leadInLength="0/1"  />
           <InterpolatingParam id="1288" interp="linr"  time="-9999999/1" value="1" leadInLength="0/1"  />
          </VectorParam>
          <VectorParam id="1289"  name="anchor">
           <InterpolatingParam id="1290" interp="linr"  time="0/1" value="0" leadInLength="0/1"  />
           <InterpolatingParam id="1291" interp="linr"  time="0/1" value="0" leadInLength="0/1"  />
           <InterpolatingParam id="1292" interp="linr"  time="0/1" value="0" leadInLength="0/1"  />
          </VectorParam>
         </Transformer>
         <Parameters>
          <VectorParam id="1293"  name="sourceCrop">
           <InterpolatingParam id="1294" interp="linr"  time="0/1" value="0" leadInLength="0/1"  />
           <InterpolatingParam id="1295" interp="linr"  time="0/1" value="0" leadInLength="0/1"  />
           <InterpolatingParam id="1296" interp="linr"  time="0/1" value="0" leadInLength="0/1"  />
           <InterpolatingParam id="1297" interp="linr"  time="0/1" value="0" leadInLength="0/1"  />
          </VectorParam>
          <VectorParam id="1298"  name="geometryCrop">
           <InterpolatingParam id="1299" interp="linr"  time="-9999999/1" value="0" leadInLength="0/1"  />
           <InterpolatingParam id="1300" interp="linr"  time="-9999999/1" value="0" leadInLength="0/1"  />
           <InterpolatingParam id="1301" interp="linr"  time="-9999999/1" value="0" leadInLength="0/1"  />
           <InterpolatingParam id="1302" interp="linr"  time="-9999999/1" value="0" leadInLength="0/1"  />
          </VectorParam>
          <InterpolatingParam id="1303" interp="linr"  time="-9999999/1" value="1" leadInLength="0/1"  name="opacity"/>
         </Parameters>
         <Attributes>
          <Attribute id="1304" value="" name="ident"/>
         </Attributes>
         <MetaData>
          <entry key="WinSubProjectDisplayName" val=""/>
         </MetaData>
         <ExtraData>
          <Entry key="ZoomPanBin">
           <ZoomPanBin id="1305"  >
            <ZoomPanKeyframes>
             <ZoomPanKeyframe id="1306" timeRangeEnd="-9999999/1" timeRangeDuration="0/1" interpolaterName="linr"  />
            </ZoomPanKeyframes>
           </ZoomPanBin>
          </Entry>
         </ExtraData>
        </IMFile>
        <IMFile id="1307" start="8446" duration="51" scalar="1/1" mediaStart="0/1" mediaDuration="1/1" trackNumber="0" src="16" trimStartSum="893/1" >
         <Transformer>
          <VectorParam id="1308"  name="translation">
           <InterpolatingParam id="1309" interp="linr"  time="-9999999/1" value="0" leadInLength="0/1"  />
           <InterpolatingParam id="1310" interp="linr"  time="-9999999/1" value="0" leadInLength="0/1"  />
           <InterpolatingParam id="1311" interp="linr"  time="-9999999/1" value="0" leadInLength="0/1"  />
          </VectorParam>
          <VectorParam id="1312"  name="rotation">
           <InterpolatingParam id="1313" interp="linr"  time="-9999999/1" value="0" leadInLength="0/1"  />
           <InterpolatingParam id="1314" interp="linr"  time="-9999999/1" value="0" leadInLength="0/1"  />
           <InterpolatingParam id="1315" interp="linr"  time="-9999999/1" value="0" leadInLength="0/1"  />
          </VectorParam>
          <VectorParam id="1316"  name="shear">
           <InterpolatingParam id="1317" interp="linr"  time="-9999999/1" value="0" leadInLength="0/1"  />
           <InterpolatingParam id="1318" interp="linr"  time="-9999999/1" value="0" leadInLength="0/1"  />
           <InterpolatingParam id="1319" interp="linr"  time="-9999999/1" value="0" leadInLength="0/1"  />
          </VectorParam>
          <VectorParam id="1320"  name="scale">
           <InterpolatingParam id="1321" interp="linr"  time="-9999999/1" value="0.83333333333333337" leadInLength="0/1"  />
           <InterpolatingParam id="1322" interp="linr"  time="-9999999/1" value="0.83333333333333337" leadInLength="0/1"  />
           <InterpolatingParam id="1323" interp="linr"  time="-9999999/1" value="1" leadInLength="0/1"  />
          </VectorParam>
          <VectorParam id="1324"  name="anchor">
           <InterpolatingParam id="1325" interp="linr"  time="0/1" value="0" leadInLength="0/1"  />
           <InterpolatingParam id="1326" interp="linr"  time="0/1" value="0" leadInLength="0/1"  />
           <InterpolatingParam id="1327" interp="linr"  time="0/1" value="0" leadInLength="0/1"  />
          </VectorParam>
         </Transformer>
         <Parameters>
          <VectorParam id="1328"  name="sourceCrop">
           <InterpolatingParam id="1329" interp="linr"  time="0/1" value="0" leadInLength="0/1"  />
           <InterpolatingParam id="1330" interp="linr"  time="0/1" value="0" leadInLength="0/1"  />
           <InterpolatingParam id="1331" interp="linr"  time="0/1" value="0" leadInLength="0/1"  />
           <InterpolatingParam id="1332" interp="linr"  time="0/1" value="0" leadInLength="0/1"  />
          </VectorParam>
          <VectorParam id="1333"  name="geometryCrop">
           <InterpolatingParam id="1334" interp="linr"  time="-9999999/1" value="0" leadInLength="0/1"  />
           <InterpolatingParam id="1335" interp="linr"  time="-9999999/1" value="0" leadInLength="0/1"  />
           <InterpolatingParam id="1336" interp="linr"  time="-9999999/1" value="0" leadInLength="0/1"  />
           <InterpolatingParam id="1337" interp="linr"  time="-9999999/1" value="0" leadInLength="0/1"  />
          </VectorParam>
          <InterpolatingParam id="1338" interp="linr"  time="-9999999/1" value="1" leadInLength="0/1"  name="opacity"/>
         </Parameters>
         <Attributes>
          <Attribute id="1339" value="" name="ident"/>
         </Attributes>
         <MetaData>
          <entry key="WinSubProjectDisplayName" val=""/>
         </MetaData>
         <ExtraData>
          <Entry key="ZoomPanBin">
           <ZoomPanBin id="1340"  >
            <ZoomPanKeyframes>
             <ZoomPanKeyframe id="1341" timeRangeEnd="-9999999/1" timeRangeDuration="0/1" interpolaterName="linr"  />
            </ZoomPanKeyframes>
           </ZoomPanBin>
          </Entry>
         </ExtraData>
        </IMFile>
        <UnifiedMedia id="1342"  >
         <AudioTransition id="1343" start="8497" duration="30" >
          <Parameters>
           <InterpolatingParam id="1344" interp="linr"  time="0/1" value="1" leadInLength="0/1"  name="volume"/>
           <Parameter id="1345"  name="captions"/>
          </Parameters>
          <Effects>
           <GenericEffect id="1346" name = "AudioTransition" >
            <Parameters>
            <Parameter id="1347"   name="audioEdgeModType">
             <Keyframes>
             <Keyframe id="1348"  time="0/1" value="0" leadInLength="0/1"  />
             </Keyframes>
            </Parameter>
            <Parameter id="1349"   name="audioTransitionType">
             <Keyframes>
             <Keyframe id="1350"  time="0/1" value="" leadInLength="0/1"  />
             </Keyframes>
            </Parameter>
            </Parameters>
            <MetaData>
            </MetaData>
           </GenericEffect>
          </Effects>
          <Attributes>
           <Attribute id="1351" value="" name="ident"/>
           <Attribute id="1352" value="0" name="sampleRate"/>
           <Attribute id="1353" value="0" name="bitDepth"/>
           <Attribute id="1354" value="1" name="gain"/>
           <Attribute id="1355" value="0" name="mixToMono"/>
          </Attributes>
         </AudioTransition>
         <ImageTransition id="1356" start="8497" duration="30" >
          <Transformer>
           <VectorParam id="1357"  name="translation">
            <InterpolatingParam id="1358" interp="linr"  time="0/1" value="0" leadInLength="0/1"  />
            <InterpolatingParam id="1359" interp="linr"  time="0/1" value="0" leadInLength="0/1"  />
            <InterpolatingParam id="1360" interp="linr"  time="0/1" value="0" leadInLength="0/1"  />
           </VectorParam>
           <VectorParam id="1361"  name="rotation">
            <InterpolatingParam id="1362" interp="linr"  time="0/1" value="0" leadInLength="0/1"  />
            <InterpolatingParam id="1363" interp="linr"  time="0/1" value="0" leadInLength="0/1"  />
            <InterpolatingParam id="1364" interp="linr"  time="0/1" value="0" leadInLength="0/1"  />
           </VectorParam>
           <VectorParam id="1365"  name="shear">
            <InterpolatingParam id="1366" interp="linr"  time="0/1" value="0" leadInLength="0/1"  />
            <InterpolatingParam id="1367" interp="linr"  time="0/1" value="0" leadInLength="0/1"  />
            <InterpolatingParam id="1368" interp="linr"  time="0/1" value="0" leadInLength="0/1"  />
           </VectorParam>
           <VectorParam id="1369"  name="scale">
            <InterpolatingParam id="1370" interp="linr"  time="0/1" value="1" leadInLength="0/1"  />
            <InterpolatingParam id="1371" interp="linr"  time="0/1" value="1" leadInLength="0/1"  />
            <InterpolatingParam id="1372" interp="linr"  time="0/1" value="1" leadInLength="0/1"  />
           </VectorParam>
           <VectorParam id="1373"  name="anchor">
            <InterpolatingParam id="1374" interp="linr"  time="0/1" value="0" leadInLength="0/1"  />
            <InterpolatingParam id="1375" interp="linr"  time="0/1" value="0" leadInLength="0/1"  />
            <InterpolatingParam id="1376" interp="linr"  time="0/1" value="0" leadInLength="0/1"  />
           </VectorParam>
          </Transformer>
          <Parameters>
           <VectorParam id="1377"  name="sourceCrop">
            <InterpolatingParam id="1378" interp="linr"  time="0/1" value="0" leadInLength="0/1"  />
            <InterpolatingParam id="1379" interp="linr"  time="0/1" value="0" leadInLength="0/1"  />
            <InterpolatingParam id="1380" interp="linr"  time="0/1" value="0" leadInLength="0/1"  />
            <InterpolatingParam id="1381" interp="linr"  time="0/1" value="0" leadInLength="0/1"  />
           </VectorParam>
           <VectorParam id="1382"  name="geometryCrop">
            <InterpolatingParam id="1383" interp="linr"  time="0/1" value="0" leadInLength="0/1"  />
            <InterpolatingParam id="1384" interp="linr"  time="0/1" value="0" leadInLength="0/1"  />
            <InterpolatingParam id="1385" interp="linr"  time="0/1" value="0" leadInLength="0/1"  />
            <InterpolatingParam id="1386" interp="linr"  time="0/1" value="0" leadInLength="0/1"  />
           </VectorParam>
           <InterpolatingParam id="1387" interp="linr"  time="0/1" value="1" leadInLength="0/1"  name="opacity"/>
          </Parameters>
          <Effects>
           <GenericEffect id="1388" name = "VisualTransition" >
            <Parameters>
            <InterpolatingParam id="1389" interp="linr"  time="0/1" value="1" leadInLength="0/1"   name="leftFramePercentage"/>
            <InterpolatingParam id="1390" interp="linr"  time="0/1" value="1" leadInLength="0/1"   name="rightFramePercentage"/>
            <Parameter id="1391"   name="visualEdgeModType">
             <Keyframes>
             <Keyframe id="1392"  time="0/1" value="0" leadInLength="0/1"  />
             </Keyframes>
            </Parameter>
            <Parameter id="1393"   name="visualTransitionType">
             <Keyframes>
             <Keyframe id="1394"  time="0/1" value="Fade" leadInLength="0/1"  />
             </Keyframes>
            </Parameter>
            </Parameters>
            <MetaData>
            </MetaData>
           </GenericEffect>
          </Effects>
          <Attributes>
           <Attribute id="1395" value="" name="ident"/>
          </Attributes>
          <ExtraData>
           <Entry key="ZoomPanBin">
            <ZoomPanBin id="1396"  >
             <ZoomPanKeyframes>
             </ZoomPanKeyframes>
            </ZoomPanBin>
           </Entry>
          </ExtraData>
         </ImageTransition>
         <MetaData>
          <entry key="WinSubProjectDisplayName" val=""/>
         </MetaData>
        </UnifiedMedia>
        <IMFile id="1397" start="8527" duration="941" scalar="1/1" mediaStart="0/1" mediaDuration="1/1" trackNumber="0" src="17" trimStartSum="15/1" >
         <Transformer>
          <VectorParam id="1398"  name="translation">
           <InterpolatingParam id="1399" interp="linr"  time="-9999999/1" value="0" leadInLength="0/1"  />
           <InterpolatingParam id="1400" interp="linr"  time="-9999999/1" value="0" leadInLength="0/1"  />
           <InterpolatingParam id="1401" interp="linr"  time="-9999999/1" value="0" leadInLength="0/1"  />
          </VectorParam>
          <VectorParam id="1402"  name="rotation">
           <InterpolatingParam id="1403" interp="linr"  time="-9999999/1" value="0" leadInLength="0/1"  />
           <InterpolatingParam id="1404" interp="linr"  time="-9999999/1" value="0" leadInLength="0/1"  />
           <InterpolatingParam id="1405" interp="linr"  time="-9999999/1" value="0" leadInLength="0/1"  />
          </VectorParam>
          <VectorParam id="1406"  name="shear">
           <InterpolatingParam id="1407" interp="linr"  time="-9999999/1" value="0" leadInLength="0/1"  />
           <InterpolatingParam id="1408" interp="linr"  time="-9999999/1" value="0" leadInLength="0/1"  />
           <InterpolatingParam id="1409" interp="linr"  time="-9999999/1" value="0" leadInLength="0/1"  />
          </VectorParam>
          <VectorParam id="1410"  name="scale">
           <InterpolatingParam id="1411" interp="linr"  time="-9999999/1" value="0.83333333333333337" leadInLength="0/1"  />
           <InterpolatingParam id="1412" interp="linr"  time="-9999999/1" value="0.83333333333333337" leadInLength="0/1"  />
           <InterpolatingParam id="1413" interp="linr"  time="-9999999/1" value="1" leadInLength="0/1"  />
          </VectorParam>
          <VectorParam id="1414"  name="anchor">
           <InterpolatingParam id="1415" interp="linr"  time="0/1" value="0" leadInLength="0/1"  />
           <InterpolatingParam id="1416" interp="linr"  time="0/1" value="0" leadInLength="0/1"  />
           <InterpolatingParam id="1417" interp="linr"  time="0/1" value="0" leadInLength="0/1"  />
          </VectorParam>
         </Transformer>
         <Parameters>
          <VectorParam id="1418"  name="sourceCrop">
           <InterpolatingParam id="1419" interp="linr"  time="0/1" value="0" leadInLength="0/1"  />
           <InterpolatingParam id="1420" interp="linr"  time="0/1" value="0" leadInLength="0/1"  />
           <InterpolatingParam id="1421" interp="linr"  time="0/1" value="0" leadInLength="0/1"  />
           <InterpolatingParam id="1422" interp="linr"  time="0/1" value="0" leadInLength="0/1"  />
          </VectorParam>
          <VectorParam id="1423"  name="geometryCrop">
           <InterpolatingParam id="1424" interp="linr"  time="-9999999/1" value="0" leadInLength="0/1"  />
           <InterpolatingParam id="1425" interp="linr"  time="-9999999/1" value="0" leadInLength="0/1"  />
           <InterpolatingParam id="1426" interp="linr"  time="-9999999/1" value="0" leadInLength="0/1"  />
           <InterpolatingParam id="1427" interp="linr"  time="-9999999/1" value="0" leadInLength="0/1"  />
          </VectorParam>
          <InterpolatingParam id="1428" interp="linr"  time="-9999999/1" value="1" leadInLength="0/1"  name="opacity"/>
         </Parameters>
         <Attributes>
          <Attribute id="1429" value="" name="ident"/>
         </Attributes>
         <MetaData>
          <entry key="WinSubProjectDisplayName" val=""/>
         </MetaData>
         <ExtraData>
          <Entry key="ZoomPanBin">
           <ZoomPanBin id="1430"  >
            <ZoomPanKeyframes>
             <ZoomPanKeyframe id="1431" timeRangeEnd="-9999999/1" timeRangeDuration="0/1" interpolaterName="linr"  />
            </ZoomPanKeyframes>
           </ZoomPanBin>
          </Entry>
         </ExtraData>
        </IMFile>
        <UnifiedMedia id="1432"  >
         <AudioTransition id="1433" start="9468" duration="30" >
          <Parameters>
           <InterpolatingParam id="1434" interp="linr"  time="0/1" value="1" leadInLength="0/1"  name="volume"/>
           <Parameter id="1435"  name="captions"/>
          </Parameters>
          <Effects>
           <GenericEffect id="1436" name = "AudioTransition" >
            <Parameters>
            <Parameter id="1437"   name="audioEdgeModType">
             <Keyframes>
             <Keyframe id="1438"  time="0/1" value="0" leadInLength="0/1"  />
             </Keyframes>
            </Parameter>
            <Parameter id="1439"   name="audioTransitionType">
             <Keyframes>
             <Keyframe id="1440"  time="0/1" value="" leadInLength="0/1"  />
             </Keyframes>
            </Parameter>
            </Parameters>
            <MetaData>
            </MetaData>
           </GenericEffect>
          </Effects>
          <Attributes>
           <Attribute id="1441" value="" name="ident"/>
           <Attribute id="1442" value="0" name="sampleRate"/>
           <Attribute id="1443" value="0" name="bitDepth"/>
           <Attribute id="1444" value="1" name="gain"/>
           <Attribute id="1445" value="0" name="mixToMono"/>
          </Attributes>
         </AudioTransition>
         <ImageTransition id="1446" start="9468" duration="30" >
          <Transformer>
           <VectorParam id="1447"  name="translation">
            <InterpolatingParam id="1448" interp="linr"  time="0/1" value="0" leadInLength="0/1"  />
            <InterpolatingParam id="1449" interp="linr"  time="0/1" value="0" leadInLength="0/1"  />
            <InterpolatingParam id="1450" interp="linr"  time="0/1" value="0" leadInLength="0/1"  />
           </VectorParam>
           <VectorParam id="1451"  name="rotation">
            <InterpolatingParam id="1452" interp="linr"  time="0/1" value="0" leadInLength="0/1"  />
            <InterpolatingParam id="1453" interp="linr"  time="0/1" value="0" leadInLength="0/1"  />
            <InterpolatingParam id="1454" interp="linr"  time="0/1" value="0" leadInLength="0/1"  />
           </VectorParam>
           <VectorParam id="1455"  name="shear">
            <InterpolatingParam id="1456" interp="linr"  time="0/1" value="0" leadInLength="0/1"  />
            <InterpolatingParam id="1457" interp="linr"  time="0/1" value="0" leadInLength="0/1"  />
            <InterpolatingParam id="1458" interp="linr"  time="0/1" value="0" leadInLength="0/1"  />
           </VectorParam>
           <VectorParam id="1459"  name="scale">
            <InterpolatingParam id="1460" interp="linr"  time="0/1" value="1" leadInLength="0/1"  />
            <InterpolatingParam id="1461" interp="linr"  time="0/1" value="1" leadInLength="0/1"  />
            <InterpolatingParam id="1462" interp="linr"  time="0/1" value="1" leadInLength="0/1"  />
           </VectorParam>
           <VectorParam id="1463"  name="anchor">
            <InterpolatingParam id="1464" interp="linr"  time="0/1" value="0" leadInLength="0/1"  />
            <InterpolatingParam id="1465" interp="linr"  time="0/1" value="0" leadInLength="0/1"  />
            <InterpolatingParam id="1466" interp="linr"  time="0/1" value="0" leadInLength="0/1"  />
           </VectorParam>
          </Transformer>
          <Parameters>
           <VectorParam id="1467"  name="sourceCrop">
            <InterpolatingParam id="1468" interp="linr"  time="0/1" value="0" leadInLength="0/1"  />
            <InterpolatingParam id="1469" interp="linr"  time="0/1" value="0" leadInLength="0/1"  />
            <InterpolatingParam id="1470" interp="linr"  time="0/1" value="0" leadInLength="0/1"  />
            <InterpolatingParam id="1471" interp="linr"  time="0/1" value="0" leadInLength="0/1"  />
           </VectorParam>
           <VectorParam id="1472"  name="geometryCrop">
            <InterpolatingParam id="1473" interp="linr"  time="0/1" value="0" leadInLength="0/1"  />
            <InterpolatingParam id="1474" interp="linr"  time="0/1" value="0" leadInLength="0/1"  />
            <InterpolatingParam id="1475" interp="linr"  time="0/1" value="0" leadInLength="0/1"  />
            <InterpolatingParam id="1476" interp="linr"  time="0/1" value="0" leadInLength="0/1"  />
           </VectorParam>
           <InterpolatingParam id="1477" interp="linr"  time="0/1" value="1" leadInLength="0/1"  name="opacity"/>
          </Parameters>
          <Effects>
           <GenericEffect id="1478" name = "VisualTransition" >
            <Parameters>
            <InterpolatingParam id="1479" interp="linr"  time="0/1" value="1" leadInLength="0/1"   name="leftFramePercentage"/>
            <InterpolatingParam id="1480" interp="linr"  time="0/1" value="1" leadInLength="0/1"   name="rightFramePercentage"/>
            <Parameter id="1481"   name="visualEdgeModType">
             <Keyframes>
             <Keyframe id="1482"  time="0/1" value="0" leadInLength="0/1"  />
             </Keyframes>
            </Parameter>
            <Parameter id="1483"   name="visualTransitionType">
             <Keyframes>
             <Keyframe id="1484"  time="0/1" value="Fade" leadInLength="0/1"  />
             </Keyframes>
            </Parameter>
            </Parameters>
            <MetaData>
            </MetaData>
           </GenericEffect>
          </Effects>
          <Attributes>
           <Attribute id="1485" value="" name="ident"/>
          </Attributes>
          <ExtraData>
           <Entry key="ZoomPanBin">
            <ZoomPanBin id="1486"  >
             <ZoomPanKeyframes>
             </ZoomPanKeyframes>
            </ZoomPanBin>
           </Entry>
          </ExtraData>
         </ImageTransition>
         <MetaData>
          <entry key="WinSubProjectDisplayName" val=""/>
         </MetaData>
        </UnifiedMedia>
        <IMFile id="1487" start="9498" duration="1086" scalar="1/1" mediaStart="0/1" mediaDuration="1/1" trackNumber="0" src="17" trimStartSum="1173/1" >
         <Transformer>
          <VectorParam id="1488"  name="translation">
           <InterpolatingParam id="1489" interp="linr"  time="-9999999/1" value="0" leadInLength="0/1"  />
           <InterpolatingParam id="1490" interp="linr"  time="-9999999/1" value="0" leadInLength="0/1"  />
           <InterpolatingParam id="1491" interp="linr"  time="-9999999/1" value="0" leadInLength="0/1"  />
          </VectorParam>
          <VectorParam id="1492"  name="rotation">
           <InterpolatingParam id="1493" interp="linr"  time="-9999999/1" value="0" leadInLength="0/1"  />
           <InterpolatingParam id="1494" interp="linr"  time="-9999999/1" value="0" leadInLength="0/1"  />
           <InterpolatingParam id="1495" interp="linr"  time="-9999999/1" value="0" leadInLength="0/1"  />
          </VectorParam>
          <VectorParam id="1496"  name="shear">
           <InterpolatingParam id="1497" interp="linr"  time="-9999999/1" value="0" leadInLength="0/1"  />
           <InterpolatingParam id="1498" interp="linr"  time="-9999999/1" value="0" leadInLength="0/1"  />
           <InterpolatingParam id="1499" interp="linr"  time="-9999999/1" value="0" leadInLength="0/1"  />
          </VectorParam>
          <VectorParam id="1500"  name="scale">
           <InterpolatingParam id="1501" interp="linr"  time="-9999999/1" value="0.83333333333333337" leadInLength="0/1"  />
           <InterpolatingParam id="1502" interp="linr"  time="-9999999/1" value="0.83333333333333337" leadInLength="0/1"  />
           <InterpolatingParam id="1503" interp="linr"  time="-9999999/1" value="1" leadInLength="0/1"  />
          </VectorParam>
          <VectorParam id="1504"  name="anchor">
           <InterpolatingParam id="1505" interp="linr"  time="0/1" value="0" leadInLength="0/1"  />
           <InterpolatingParam id="1506" interp="linr"  time="0/1" value="0" leadInLength="0/1"  />
           <InterpolatingParam id="1507" interp="linr"  time="0/1" value="0" leadInLength="0/1"  />
          </VectorParam>
         </Transformer>
         <Parameters>
          <VectorParam id="1508"  name="sourceCrop">
           <InterpolatingParam id="1509" interp="linr"  time="0/1" value="0" leadInLength="0/1"  />
           <InterpolatingParam id="1510" interp="linr"  time="0/1" value="0" leadInLength="0/1"  />
           <InterpolatingParam id="1511" interp="linr"  time="0/1" value="0" leadInLength="0/1"  />
           <InterpolatingParam id="1512" interp="linr"  time="0/1" value="0" leadInLength="0/1"  />
          </VectorParam>
          <VectorParam id="1513"  name="geometryCrop">
           <InterpolatingParam id="1514" interp="linr"  time="-9999999/1" value="0" leadInLength="0/1"  />
           <InterpolatingParam id="1515" interp="linr"  time="-9999999/1" value="0" leadInLength="0/1"  />
           <InterpolatingParam id="1516" interp="linr"  time="-9999999/1" value="0" leadInLength="0/1"  />
           <InterpolatingParam id="1517" interp="linr"  time="-9999999/1" value="0" leadInLength="0/1"  />
          </VectorParam>
          <InterpolatingParam id="1518" interp="linr"  time="-9999999/1" value="1" leadInLength="0/1"  name="opacity"/>
         </Parameters>
         <Attributes>
          <Attribute id="1519" value="" name="ident"/>
         </Attributes>
         <MetaData>
          <entry key="WinSubProjectDisplayName" val=""/>
         </MetaData>
         <ExtraData>
          <Entry key="ZoomPanBin">
           <ZoomPanBin id="1520"  >
            <ZoomPanKeyframes>
             <ZoomPanKeyframe id="1521" timeRangeEnd="-9999999/1" timeRangeDuration="0/1" interpolaterName="linr"  />
            </ZoomPanKeyframes>
           </ZoomPanBin>
          </Entry>
         </ExtraData>
        </IMFile>
        <UnifiedMedia id="1522"  >
         <AudioTransition id="1523" start="10584" duration="30" >
          <Parameters>
           <InterpolatingParam id="1524" interp="linr"  time="0/1" value="1" leadInLength="0/1"  name="volume"/>
           <Parameter id="1525"  name="captions"/>
          </Parameters>
          <Effects>
           <GenericEffect id="1526" name = "AudioTransition" >
            <Parameters>
            <Parameter id="1527"   name="audioEdgeModType">
             <Keyframes>
             <Keyframe id="1528"  time="0/1" value="0" leadInLength="0/1"  />
             </Keyframes>
            </Parameter>
            <Parameter id="1529"   name="audioTransitionType">
             <Keyframes>
             <Keyframe id="1530"  time="0/1" value="" leadInLength="0/1"  />
             </Keyframes>
            </Parameter>
            </Parameters>
            <MetaData>
            </MetaData>
           </GenericEffect>
          </Effects>
          <Attributes>
           <Attribute id="1531" value="" name="ident"/>
           <Attribute id="1532" value="0" name="sampleRate"/>
           <Attribute id="1533" value="0" name="bitDepth"/>
           <Attribute id="1534" value="1" name="gain"/>
           <Attribute id="1535" value="0" name="mixToMono"/>
          </Attributes>
         </AudioTransition>
         <ImageTransition id="1536" start="10584" duration="30" >
          <Transformer>
           <VectorParam id="1537"  name="translation">
            <InterpolatingParam id="1538" interp="linr"  time="0/1" value="0" leadInLength="0/1"  />
            <InterpolatingParam id="1539" interp="linr"  time="0/1" value="0" leadInLength="0/1"  />
            <InterpolatingParam id="1540" interp="linr"  time="0/1" value="0" leadInLength="0/1"  />
           </VectorParam>
           <VectorParam id="1541"  name="rotation">
            <InterpolatingParam id="1542" interp="linr"  time="0/1" value="0" leadInLength="0/1"  />
            <InterpolatingParam id="1543" interp="linr"  time="0/1" value="0" leadInLength="0/1"  />
            <InterpolatingParam id="1544" interp="linr"  time="0/1" value="0" leadInLength="0/1"  />
           </VectorParam>
           <VectorParam id="1545"  name="shear">
            <InterpolatingParam id="1546" interp="linr"  time="0/1" value="0" leadInLength="0/1"  />
            <InterpolatingParam id="1547" interp="linr"  time="0/1" value="0" leadInLength="0/1"  />
            <InterpolatingParam id="1548" interp="linr"  time="0/1" value="0" leadInLength="0/1"  />
           </VectorParam>
           <VectorParam id="1549"  name="scale">
            <InterpolatingParam id="1550" interp="linr"  time="0/1" value="1" leadInLength="0/1"  />
            <InterpolatingParam id="1551" interp="linr"  time="0/1" value="1" leadInLength="0/1"  />
            <InterpolatingParam id="1552" interp="linr"  time="0/1" value="1" leadInLength="0/1"  />
           </VectorParam>
           <VectorParam id="1553"  name="anchor">
            <InterpolatingParam id="1554" interp="linr"  time="0/1" value="0" leadInLength="0/1"  />
            <InterpolatingParam id="1555" interp="linr"  time="0/1" value="0" leadInLength="0/1"  />
            <InterpolatingParam id="1556" interp="linr"  time="0/1" value="0" leadInLength="0/1"  />
           </VectorParam>
          </Transformer>
          <Parameters>
           <VectorParam id="1557"  name="sourceCrop">
            <InterpolatingParam id="1558" interp="linr"  time="0/1" value="0" leadInLength="0/1"  />
            <InterpolatingParam id="1559" interp="linr"  time="0/1" value="0" leadInLength="0/1"  />
            <InterpolatingParam id="1560" interp="linr"  time="0/1" value="0" leadInLength="0/1"  />
            <InterpolatingParam id="1561" interp="linr"  time="0/1" value="0" leadInLength="0/1"  />
           </VectorParam>
           <VectorParam id="1562"  name="geometryCrop">
            <InterpolatingParam id="1563" interp="linr"  time="0/1" value="0" leadInLength="0/1"  />
            <InterpolatingParam id="1564" interp="linr"  time="0/1" value="0" leadInLength="0/1"  />
            <InterpolatingParam id="1565" interp="linr"  time="0/1" value="0" leadInLength="0/1"  />
            <InterpolatingParam id="1566" interp="linr"  time="0/1" value="0" leadInLength="0/1"  />
           </VectorParam>
           <InterpolatingParam id="1567" interp="linr"  time="0/1" value="1" leadInLength="0/1"  name="opacity"/>
          </Parameters>
          <Effects>
           <GenericEffect id="1568" name = "VisualTransition" >
            <Parameters>
            <InterpolatingParam id="1569" interp="linr"  time="0/1" value="1" leadInLength="0/1"   name="leftFramePercentage"/>
            <InterpolatingParam id="1570" interp="linr"  time="0/1" value="1" leadInLength="0/1"   name="rightFramePercentage"/>
            <Parameter id="1571"   name="visualEdgeModType">
             <Keyframes>
             <Keyframe id="1572"  time="0/1" value="0" leadInLength="0/1"  />
             </Keyframes>
            </Parameter>
            <Parameter id="1573"   name="visualTransitionType">
             <Keyframes>
             <Keyframe id="1574"  time="0/1" value="Fade" leadInLength="0/1"  />
             </Keyframes>
            </Parameter>
            </Parameters>
            <MetaData>
            </MetaData>
           </GenericEffect>
          </Effects>
          <Attributes>
           <Attribute id="1575" value="" name="ident"/>
          </Attributes>
          <ExtraData>
           <Entry key="ZoomPanBin">
            <ZoomPanBin id="1576"  >
             <ZoomPanKeyframes>
             </ZoomPanKeyframes>
            </ZoomPanBin>
           </Entry>
          </ExtraData>
         </ImageTransition>
         <MetaData>
          <entry key="WinSubProjectDisplayName" val=""/>
         </MetaData>
        </UnifiedMedia>
        <IMFile id="1577" start="10614" duration="936" scalar="1/1" mediaStart="0/1" mediaDuration="1/1" trackNumber="0" src="30" trimStartSum="15/1" >
         <Transformer>
          <VectorParam id="1578"  name="translation">
           <InterpolatingParam id="1579" interp="linr"  time="-9999999/1" value="0" leadInLength="0/1"  />
           <InterpolatingParam id="1580" interp="linr"  time="-9999999/1" value="0" leadInLength="0/1"  />
           <InterpolatingParam id="1581" interp="linr"  time="-9999999/1" value="0" leadInLength="0/1"  />
          </VectorParam>
          <VectorParam id="1582"  name="rotation">
           <InterpolatingParam id="1583" interp="linr"  time="-9999999/1" value="0" leadInLength="0/1"  />
           <InterpolatingParam id="1584" interp="linr"  time="-9999999/1" value="0" leadInLength="0/1"  />
           <InterpolatingParam id="1585" interp="linr"  time="-9999999/1" value="0" leadInLength="0/1"  />
          </VectorParam>
          <VectorParam id="1586"  name="shear">
           <InterpolatingParam id="1587" interp="linr"  time="-9999999/1" value="0" leadInLength="0/1"  />
           <InterpolatingParam id="1588" interp="linr"  time="-9999999/1" value="0" leadInLength="0/1"  />
           <InterpolatingParam id="1589" interp="linr"  time="-9999999/1" value="0" leadInLength="0/1"  />
          </VectorParam>
          <VectorParam id="1590"  name="scale">
           <InterpolatingParam id="1591" interp="linr"  time="-9999999/1" value="0.83333333333333337" leadInLength="0/1"  />
           <InterpolatingParam id="1592" interp="linr"  time="-9999999/1" value="0.83333333333333337" leadInLength="0/1"  />
           <InterpolatingParam id="1593" interp="linr"  time="-9999999/1" value="1" leadInLength="0/1"  />
          </VectorParam>
          <VectorParam id="1594"  name="anchor">
           <InterpolatingParam id="1595" interp="linr"  time="0/1" value="0" leadInLength="0/1"  />
           <InterpolatingParam id="1596" interp="linr"  time="0/1" value="0" leadInLength="0/1"  />
           <InterpolatingParam id="1597" interp="linr"  time="0/1" value="0" leadInLength="0/1"  />
          </VectorParam>
         </Transformer>
         <Parameters>
          <VectorParam id="1598"  name="sourceCrop">
           <InterpolatingParam id="1599" interp="linr"  time="0/1" value="0" leadInLength="0/1"  />
           <InterpolatingParam id="1600" interp="linr"  time="0/1" value="0" leadInLength="0/1"  />
           <InterpolatingParam id="1601" interp="linr"  time="0/1" value="0" leadInLength="0/1"  />
           <InterpolatingParam id="1602" interp="linr"  time="0/1" value="0" leadInLength="0/1"  />
          </VectorParam>
          <VectorParam id="1603"  name="geometryCrop">
           <InterpolatingParam id="1604" interp="linr"  time="-9999999/1" value="0" leadInLength="0/1"  />
           <InterpolatingParam id="1605" interp="linr"  time="-9999999/1" value="0" leadInLength="0/1"  />
           <InterpolatingParam id="1606" interp="linr"  time="-9999999/1" value="0" leadInLength="0/1"  />
           <InterpolatingParam id="1607" interp="linr"  time="-9999999/1" value="0" leadInLength="0/1"  />
          </VectorParam>
          <InterpolatingParam id="1608" interp="linr"  time="-9999999/1" value="1" leadInLength="0/1"  name="opacity"/>
         </Parameters>
         <Attributes>
          <Attribute id="1609" value="" name="ident"/>
         </Attributes>
         <MetaData>
          <entry key="WinSubProjectDisplayName" val=""/>
         </MetaData>
         <ExtraData>
          <Entry key="ZoomPanBin">
           <ZoomPanBin id="1610"  >
            <ZoomPanKeyframes>
             <ZoomPanKeyframe id="1611" timeRangeEnd="-9999999/1" timeRangeDuration="0/1" interpolaterName="linr"  />
            </ZoomPanKeyframes>
           </ZoomPanBin>
          </Entry>
         </ExtraData>
        </IMFile>
        <UnifiedMedia id="1612"  >
         <AudioTransition id="1613" start="11550" duration="30" >
          <Parameters>
           <InterpolatingParam id="1614" interp="linr"  time="0/1" value="1" leadInLength="0/1"  name="volume"/>
           <Parameter id="1615"  name="captions"/>
          </Parameters>
          <Effects>
           <GenericEffect id="1616" name = "AudioTransition" >
            <Parameters>
            <Parameter id="1617"   name="audioEdgeModType">
             <Keyframes>
             <Keyframe id="1618"  time="0/1" value="0" leadInLength="0/1"  />
             </Keyframes>
            </Parameter>
            <Parameter id="1619"   name="audioTransitionType">
             <Keyframes>
             <Keyframe id="1620"  time="0/1" value="" leadInLength="0/1"  />
             </Keyframes>
            </Parameter>
            </Parameters>
            <MetaData>
            </MetaData>
           </GenericEffect>
          </Effects>
          <Attributes>
           <Attribute id="1621" value="" name="ident"/>
           <Attribute id="1622" value="0" name="sampleRate"/>
           <Attribute id="1623" value="0" name="bitDepth"/>
           <Attribute id="1624" value="1" name="gain"/>
           <Attribute id="1625" value="0" name="mixToMono"/>
          </Attributes>
         </AudioTransition>
         <ImageTransition id="1626" start="11550" duration="30" >
          <Transformer>
           <VectorParam id="1627"  name="translation">
            <InterpolatingParam id="1628" interp="linr"  time="0/1" value="0" leadInLength="0/1"  />
            <InterpolatingParam id="1629" interp="linr"  time="0/1" value="0" leadInLength="0/1"  />
            <InterpolatingParam id="1630" interp="linr"  time="0/1" value="0" leadInLength="0/1"  />
           </VectorParam>
           <VectorParam id="1631"  name="rotation">
            <InterpolatingParam id="1632" interp="linr"  time="0/1" value="0" leadInLength="0/1"  />
            <InterpolatingParam id="1633" interp="linr"  time="0/1" value="0" leadInLength="0/1"  />
            <InterpolatingParam id="1634" interp="linr"  time="0/1" value="0" leadInLength="0/1"  />
           </VectorParam>
           <VectorParam id="1635"  name="shear">
            <InterpolatingParam id="1636" interp="linr"  time="0/1" value="0" leadInLength="0/1"  />
            <InterpolatingParam id="1637" interp="linr"  time="0/1" value="0" leadInLength="0/1"  />
            <InterpolatingParam id="1638" interp="linr"  time="0/1" value="0" leadInLength="0/1"  />
           </VectorParam>
           <VectorParam id="1639"  name="scale">
            <InterpolatingParam id="1640" interp="linr"  time="0/1" value="1" leadInLength="0/1"  />
            <InterpolatingParam id="1641" interp="linr"  time="0/1" value="1" leadInLength="0/1"  />
            <InterpolatingParam id="1642" interp="linr"  time="0/1" value="1" leadInLength="0/1"  />
           </VectorParam>
           <VectorParam id="1643"  name="anchor">
            <InterpolatingParam id="1644" interp="linr"  time="0/1" value="0" leadInLength="0/1"  />
            <InterpolatingParam id="1645" interp="linr"  time="0/1" value="0" leadInLength="0/1"  />
            <InterpolatingParam id="1646" interp="linr"  time="0/1" value="0" leadInLength="0/1"  />
           </VectorParam>
          </Transformer>
          <Parameters>
           <VectorParam id="1647"  name="sourceCrop">
            <InterpolatingParam id="1648" interp="linr"  time="0/1" value="0" leadInLength="0/1"  />
            <InterpolatingParam id="1649" interp="linr"  time="0/1" value="0" leadInLength="0/1"  />
            <InterpolatingParam id="1650" interp="linr"  time="0/1" value="0" leadInLength="0/1"  />
            <InterpolatingParam id="1651" interp="linr"  time="0/1" value="0" leadInLength="0/1"  />
           </VectorParam>
           <VectorParam id="1652"  name="geometryCrop">
            <InterpolatingParam id="1653" interp="linr"  time="0/1" value="0" leadInLength="0/1"  />
            <InterpolatingParam id="1654" interp="linr"  time="0/1" value="0" leadInLength="0/1"  />
            <InterpolatingParam id="1655" interp="linr"  time="0/1" value="0" leadInLength="0/1"  />
            <InterpolatingParam id="1656" interp="linr"  time="0/1" value="0" leadInLength="0/1"  />
           </VectorParam>
           <InterpolatingParam id="1657" interp="linr"  time="0/1" value="1" leadInLength="0/1"  name="opacity"/>
          </Parameters>
          <Effects>
           <GenericEffect id="1658" name = "VisualTransition" >
            <Parameters>
            <InterpolatingParam id="1659" interp="linr"  time="0/1" value="1" leadInLength="0/1"   name="leftFramePercentage"/>
            <InterpolatingParam id="1660" interp="linr"  time="0/1" value="1" leadInLength="0/1"   name="rightFramePercentage"/>
            <Parameter id="1661"   name="visualEdgeModType">
             <Keyframes>
             <Keyframe id="1662"  time="0/1" value="0" leadInLength="0/1"  />
             </Keyframes>
            </Parameter>
            <Parameter id="1663"   name="visualTransitionType">
             <Keyframes>
             <Keyframe id="1664"  time="0/1" value="Fade" leadInLength="0/1"  />
             </Keyframes>
            </Parameter>
            </Parameters>
            <MetaData>
            </MetaData>
           </GenericEffect>
          </Effects>
          <Attributes>
           <Attribute id="1665" value="" name="ident"/>
          </Attributes>
          <ExtraData>
           <Entry key="ZoomPanBin">
            <ZoomPanBin id="1666"  >
             <ZoomPanKeyframes>
             </ZoomPanKeyframes>
            </ZoomPanBin>
           </Entry>
          </ExtraData>
         </ImageTransition>
         <MetaData>
          <entry key="WinSubProjectDisplayName" val=""/>
         </MetaData>
        </UnifiedMedia>
        <IMFile id="1667" start="11580" duration="2440" scalar="1/1" mediaStart="0/1" mediaDuration="1/1" trackNumber="0" src="19" trimStartSum="15/1" >
         <Transformer>
          <VectorParam id="1668"  name="translation">
           <InterpolatingParam id="1669" interp="linr"  time="-9999999/1" value="0" leadInLength="0/1"  />
           <InterpolatingParam id="1670" interp="linr"  time="-9999999/1" value="0" leadInLength="0/1"  />
           <InterpolatingParam id="1671" interp="linr"  time="-9999999/1" value="0" leadInLength="0/1"  />
          </VectorParam>
          <VectorParam id="1672"  name="rotation">
           <InterpolatingParam id="1673" interp="linr"  time="-9999999/1" value="0" leadInLength="0/1"  />
           <InterpolatingParam id="1674" interp="linr"  time="-9999999/1" value="0" leadInLength="0/1"  />
           <InterpolatingParam id="1675" interp="linr"  time="-9999999/1" value="0" leadInLength="0/1"  />
          </VectorParam>
          <VectorParam id="1676"  name="shear">
           <InterpolatingParam id="1677" interp="linr"  time="-9999999/1" value="0" leadInLength="0/1"  />
           <InterpolatingParam id="1678" interp="linr"  time="-9999999/1" value="0" leadInLength="0/1"  />
           <InterpolatingParam id="1679" interp="linr"  time="-9999999/1" value="0" leadInLength="0/1"  />
          </VectorParam>
          <VectorParam id="1680"  name="scale">
           <InterpolatingParam id="1681" interp="linr"  time="-9999999/1" value="0.83333333333333337" leadInLength="0/1"  />
           <InterpolatingParam id="1682" interp="linr"  time="-9999999/1" value="0.83333333333333337" leadInLength="0/1"  />
           <InterpolatingParam id="1683" interp="linr"  time="-9999999/1" value="1" leadInLength="0/1"  />
          </VectorParam>
          <VectorParam id="1684"  name="anchor">
           <InterpolatingParam id="1685" interp="linr"  time="0/1" value="0" leadInLength="0/1"  />
           <InterpolatingParam id="1686" interp="linr"  time="0/1" value="0" leadInLength="0/1"  />
           <InterpolatingParam id="1687" interp="linr"  time="0/1" value="0" leadInLength="0/1"  />
          </VectorParam>
         </Transformer>
         <Parameters>
          <VectorParam id="1688"  name="sourceCrop">
           <InterpolatingParam id="1689" interp="linr"  time="0/1" value="0" leadInLength="0/1"  />
           <InterpolatingParam id="1690" interp="linr"  time="0/1" value="0" leadInLength="0/1"  />
           <InterpolatingParam id="1691" interp="linr"  time="0/1" value="0" leadInLength="0/1"  />
           <InterpolatingParam id="1692" interp="linr"  time="0/1" value="0" leadInLength="0/1"  />
          </VectorParam>
          <VectorParam id="1693"  name="geometryCrop">
           <InterpolatingParam id="1694" interp="linr"  time="-9999999/1" value="0" leadInLength="0/1"  />
           <InterpolatingParam id="1695" interp="linr"  time="-9999999/1" value="0" leadInLength="0/1"  />
           <InterpolatingParam id="1696" interp="linr"  time="-9999999/1" value="0" leadInLength="0/1"  />
           <InterpolatingParam id="1697" interp="linr"  time="-9999999/1" value="0" leadInLength="0/1"  />
          </VectorParam>
          <InterpolatingParam id="1698" interp="linr"  time="-9999999/1" value="1" leadInLength="0/1"  name="opacity"/>
         </Parameters>
         <Effects>
          <GenericEffect id="1699" name = "TextEffect" >
           <Parameters>
           <Parameter id="1700"   name="text">
            <Keyframes>
            <Keyframe id="1701"  time="0/1" value="{\rtf1\ansi\ansicpg1252\deff0\deflang1046{\fonttbl{\f0\fnil\fcharset0 Arial;}}&#xD;&#xa;\viewkind4\uc1\pard\qc\fs36   \par&#xD;&#xa;}&#xD;&#xa;" leadInLength="0/1"  />
            </Keyframes>
           </Parameter>
           <InterpolatingParam id="1702" interp="linr"  time="0/1" value="0" leadInLength="0/1"   name="textDimensionTime"/>
           <Parameter id="1703"   name="textDropShadow">
            <Keyframes>
            <Keyframe id="1704"  time="0/1" value="0" leadInLength="0/1"  />
            </Keyframes>
           </Parameter>
           <Parameter id="1705"   name="textIgnoresOpacity">
            <Keyframes>
            <Keyframe id="1706"  time="0/1" value="0" leadInLength="0/1"  />
            </Keyframes>
           </Parameter>
           <InterpolatingParam id="1707" interp="linr"  time="0/1" value="1" leadInLength="0/1"   name="textRectHeight"/>
           <InterpolatingParam id="1708" interp="linr"  time="0/1" value="1" leadInLength="0/1"   name="textRectWidth"/>
           <InterpolatingParam id="1709" interp="linr"  time="0/1" value="0" leadInLength="0/1"   name="textRectX"/>
           <InterpolatingParam id="1710" interp="linr"  time="0/1" value="0" leadInLength="0/1"   name="textRectY"/>
           <Parameter id="1711"   name="textVerticalAlign">
            <Keyframes>
            <Keyframe id="1712"  time="0/1" value="0" leadInLength="0/1"  />
            </Keyframes>
           </Parameter>
           </Parameters>
          </GenericEffect>
         </Effects>
         <Attributes>
          <Attribute id="1713" value="" name="ident"/>
         </Attributes>
         <MetaData>
          <entry key="WinSubProjectDisplayName" val=""/>
         </MetaData>
         <ExtraData>
          <Entry key="ZoomPanBin">
           <ZoomPanBin id="1714"  >
            <ZoomPanKeyframes>
             <ZoomPanKeyframe id="1715" timeRangeEnd="-9999999/1" timeRangeDuration="0/1" interpolaterName="linr"  />
            </ZoomPanKeyframes>
           </ZoomPanBin>
          </Entry>
         </ExtraData>
        </IMFile>
        <UnifiedMedia id="1716"  >
         <AudioTransition id="1717" start="14020" duration="30" >
          <Parameters>
           <InterpolatingParam id="1718" interp="linr"  time="0/1" value="1" leadInLength="0/1"  name="volume"/>
           <Parameter id="1719"  name="captions"/>
          </Parameters>
          <Effects>
           <GenericEffect id="1720" name = "AudioTransition" >
            <Parameters>
            <Parameter id="1721"   name="audioEdgeModType">
             <Keyframes>
             <Keyframe id="1722"  time="0/1" value="0" leadInLength="0/1"  />
             </Keyframes>
            </Parameter>
            <Parameter id="1723"   name="audioTransitionType">
             <Keyframes>
             <Keyframe id="1724"  time="0/1" value="" leadInLength="0/1"  />
             </Keyframes>
            </Parameter>
            </Parameters>
            <MetaData>
            </MetaData>
           </GenericEffect>
          </Effects>
          <Attributes>
           <Attribute id="1725" value="" name="ident"/>
           <Attribute id="1726" value="0" name="sampleRate"/>
           <Attribute id="1727" value="0" name="bitDepth"/>
           <Attribute id="1728" value="1" name="gain"/>
           <Attribute id="1729" value="0" name="mixToMono"/>
          </Attributes>
         </AudioTransition>
         <ImageTransition id="1730" start="14020" duration="30" >
          <Transformer>
           <VectorParam id="1731"  name="translation">
            <InterpolatingParam id="1732" interp="linr"  time="0/1" value="0" leadInLength="0/1"  />
            <InterpolatingParam id="1733" interp="linr"  time="0/1" value="0" leadInLength="0/1"  />
            <InterpolatingParam id="1734" interp="linr"  time="0/1" value="0" leadInLength="0/1"  />
           </VectorParam>
           <VectorParam id="1735"  name="rotation">
            <InterpolatingParam id="1736" interp="linr"  time="0/1" value="0" leadInLength="0/1"  />
            <InterpolatingParam id="1737" interp="linr"  time="0/1" value="0" leadInLength="0/1"  />
            <InterpolatingParam id="1738" interp="linr"  time="0/1" value="0" leadInLength="0/1"  />
           </VectorParam>
           <VectorParam id="1739"  name="shear">
            <InterpolatingParam id="1740" interp="linr"  time="0/1" value="0" leadInLength="0/1"  />
            <InterpolatingParam id="1741" interp="linr"  time="0/1" value="0" leadInLength="0/1"  />
            <InterpolatingParam id="1742" interp="linr"  time="0/1" value="0" leadInLength="0/1"  />
           </VectorParam>
           <VectorParam id="1743"  name="scale">
            <InterpolatingParam id="1744" interp="linr"  time="0/1" value="1" leadInLength="0/1"  />
            <InterpolatingParam id="1745" interp="linr"  time="0/1" value="1" leadInLength="0/1"  />
            <InterpolatingParam id="1746" interp="linr"  time="0/1" value="1" leadInLength="0/1"  />
           </VectorParam>
           <VectorParam id="1747"  name="anchor">
            <InterpolatingParam id="1748" interp="linr"  time="0/1" value="0" leadInLength="0/1"  />
            <InterpolatingParam id="1749" interp="linr"  time="0/1" value="0" leadInLength="0/1"  />
            <InterpolatingParam id="1750" interp="linr"  time="0/1" value="0" leadInLength="0/1"  />
           </VectorParam>
          </Transformer>
          <Parameters>
           <VectorParam id="1751"  name="sourceCrop">
            <InterpolatingParam id="1752" interp="linr"  time="0/1" value="0" leadInLength="0/1"  />
            <InterpolatingParam id="1753" interp="linr"  time="0/1" value="0" leadInLength="0/1"  />
            <InterpolatingParam id="1754" interp="linr"  time="0/1" value="0" leadInLength="0/1"  />
            <InterpolatingParam id="1755" interp="linr"  time="0/1" value="0" leadInLength="0/1"  />
           </VectorParam>
           <VectorParam id="1756"  name="geometryCrop">
            <InterpolatingParam id="1757" interp="linr"  time="0/1" value="0" leadInLength="0/1"  />
            <InterpolatingParam id="1758" interp="linr"  time="0/1" value="0" leadInLength="0/1"  />
            <InterpolatingParam id="1759" interp="linr"  time="0/1" value="0" leadInLength="0/1"  />
            <InterpolatingParam id="1760" interp="linr"  time="0/1" value="0" leadInLength="0/1"  />
           </VectorParam>
           <InterpolatingParam id="1761" interp="linr"  time="0/1" value="1" leadInLength="0/1"  name="opacity"/>
          </Parameters>
          <Effects>
           <GenericEffect id="1762" name = "VisualTransition" >
            <Parameters>
            <InterpolatingParam id="1763" interp="linr"  time="0/1" value="1" leadInLength="0/1"   name="leftFramePercentage"/>
            <InterpolatingParam id="1764" interp="linr"  time="0/1" value="1" leadInLength="0/1"   name="rightFramePercentage"/>
            <Parameter id="1765"   name="visualEdgeModType">
             <Keyframes>
             <Keyframe id="1766"  time="0/1" value="0" leadInLength="0/1"  />
             </Keyframes>
            </Parameter>
            <Parameter id="1767"   name="visualTransitionType">
             <Keyframes>
             <Keyframe id="1768"  time="0/1" value="Fade" leadInLength="0/1"  />
             </Keyframes>
            </Parameter>
            </Parameters>
            <MetaData>
            </MetaData>
           </GenericEffect>
          </Effects>
          <Attributes>
           <Attribute id="1769" value="" name="ident"/>
          </Attributes>
          <ExtraData>
           <Entry key="ZoomPanBin">
            <ZoomPanBin id="1770"  >
             <ZoomPanKeyframes>
             </ZoomPanKeyframes>
            </ZoomPanBin>
           </Entry>
          </ExtraData>
         </ImageTransition>
         <MetaData>
          <entry key="WinSubProjectDisplayName" val=""/>
         </MetaData>
        </UnifiedMedia>
        <IMFile id="1771" start="14050" duration="1434" scalar="1/1" mediaStart="0/1" mediaDuration="1/1" trackNumber="0" src="31" trimStartSum="15/1" >
         <Transformer>
          <VectorParam id="1772"  name="translation">
           <InterpolatingParam id="1773" interp="linr"  time="-9999999/1" value="0" leadInLength="0/1"  />
           <InterpolatingParam id="1774" interp="linr"  time="-9999999/1" value="0" leadInLength="0/1"  />
           <InterpolatingParam id="1775" interp="linr"  time="-9999999/1" value="0" leadInLength="0/1"  />
          </VectorParam>
          <VectorParam id="1776"  name="rotation">
           <InterpolatingParam id="1777" interp="linr"  time="-9999999/1" value="0" leadInLength="0/1"  />
           <InterpolatingParam id="1778" interp="linr"  time="-9999999/1" value="0" leadInLength="0/1"  />
           <InterpolatingParam id="1779" interp="linr"  time="-9999999/1" value="0" leadInLength="0/1"  />
          </VectorParam>
          <VectorParam id="1780"  name="shear">
           <InterpolatingParam id="1781" interp="linr"  time="-9999999/1" value="0" leadInLength="0/1"  />
           <InterpolatingParam id="1782" interp="linr"  time="-9999999/1" value="0" leadInLength="0/1"  />
           <InterpolatingParam id="1783" interp="linr"  time="-9999999/1" value="0" leadInLength="0/1"  />
          </VectorParam>
          <VectorParam id="1784"  name="scale">
           <InterpolatingParam id="1785" interp="linr"  time="-9999999/1" value="0.83333333333333337" leadInLength="0/1"  />
           <InterpolatingParam id="1786" interp="linr"  time="-9999999/1" value="0.83333333333333337" leadInLength="0/1"  />
           <InterpolatingParam id="1787" interp="linr"  time="-9999999/1" value="1" leadInLength="0/1"  />
          </VectorParam>
          <VectorParam id="1788"  name="anchor">
           <InterpolatingParam id="1789" interp="linr"  time="0/1" value="0" leadInLength="0/1"  />
           <InterpolatingParam id="1790" interp="linr"  time="0/1" value="0" leadInLength="0/1"  />
           <InterpolatingParam id="1791" interp="linr"  time="0/1" value="0" leadInLength="0/1"  />
          </VectorParam>
         </Transformer>
         <Parameters>
          <VectorParam id="1792"  name="sourceCrop">
           <InterpolatingParam id="1793" interp="linr"  time="0/1" value="0" leadInLength="0/1"  />
           <InterpolatingParam id="1794" interp="linr"  time="0/1" value="0" leadInLength="0/1"  />
           <InterpolatingParam id="1795" interp="linr"  time="0/1" value="0" leadInLength="0/1"  />
           <InterpolatingParam id="1796" interp="linr"  time="0/1" value="0" leadInLength="0/1"  />
          </VectorParam>
          <VectorParam id="1797"  name="geometryCrop">
           <InterpolatingParam id="1798" interp="linr"  time="-9999999/1" value="0" leadInLength="0/1"  />
           <InterpolatingParam id="1799" interp="linr"  time="-9999999/1" value="0" leadInLength="0/1"  />
           <InterpolatingParam id="1800" interp="linr"  time="-9999999/1" value="0" leadInLength="0/1"  />
           <InterpolatingParam id="1801" interp="linr"  time="-9999999/1" value="0" leadInLength="0/1"  />
          </VectorParam>
          <InterpolatingParam id="1802" interp="linr"  time="-9999999/1" value="1" leadInLength="0/1"  name="opacity"/>
         </Parameters>
         <Attributes>
          <Attribute id="1803" value="" name="ident"/>
         </Attributes>
         <MetaData>
          <entry key="WinSubProjectDisplayName" val=""/>
         </MetaData>
         <ExtraData>
          <Entry key="ZoomPanBin">
           <ZoomPanBin id="1804"  >
            <ZoomPanKeyframes>
             <ZoomPanKeyframe id="1805" timeRangeEnd="-9999999/1" timeRangeDuration="0/1" interpolaterName="linr"  />
            </ZoomPanKeyframes>
           </ZoomPanBin>
          </Entry>
         </ExtraData>
        </IMFile>
        <UnifiedMedia id="1806"  >
         <AudioTransition id="1807" start="15484" duration="30" >
          <Parameters>
           <InterpolatingParam id="1808" interp="linr"  time="0/1" value="1" leadInLength="0/1"  name="volume"/>
           <Parameter id="1809"  name="captions"/>
          </Parameters>
          <Effects>
           <GenericEffect id="1810" name = "AudioTransition" >
            <Parameters>
            <Parameter id="1811"   name="audioEdgeModType">
             <Keyframes>
             <Keyframe id="1812"  time="0/1" value="0" leadInLength="0/1"  />
             </Keyframes>
            </Parameter>
            <Parameter id="1813"   name="audioTransitionType">
             <Keyframes>
             <Keyframe id="1814"  time="0/1" value="" leadInLength="0/1"  />
             </Keyframes>
            </Parameter>
            </Parameters>
            <MetaData>
            </MetaData>
           </GenericEffect>
          </Effects>
          <Attributes>
           <Attribute id="1815" value="" name="ident"/>
           <Attribute id="1816" value="0" name="sampleRate"/>
           <Attribute id="1817" value="0" name="bitDepth"/>
           <Attribute id="1818" value="1" name="gain"/>
           <Attribute id="1819" value="0" name="mixToMono"/>
          </Attributes>
         </AudioTransition>
         <ImageTransition id="1820" start="15484" duration="30" >
          <Transformer>
           <VectorParam id="1821"  name="translation">
            <InterpolatingParam id="1822" interp="linr"  time="0/1" value="0" leadInLength="0/1"  />
            <InterpolatingParam id="1823" interp="linr"  time="0/1" value="0" leadInLength="0/1"  />
            <InterpolatingParam id="1824" interp="linr"  time="0/1" value="0" leadInLength="0/1"  />
           </VectorParam>
           <VectorParam id="1825"  name="rotation">
            <InterpolatingParam id="1826" interp="linr"  time="0/1" value="0" leadInLength="0/1"  />
            <InterpolatingParam id="1827" interp="linr"  time="0/1" value="0" leadInLength="0/1"  />
            <InterpolatingParam id="1828" interp="linr"  time="0/1" value="0" leadInLength="0/1"  />
           </VectorParam>
           <VectorParam id="1829"  name="shear">
            <InterpolatingParam id="1830" interp="linr"  time="0/1" value="0" leadInLength="0/1"  />
            <InterpolatingParam id="1831" interp="linr"  time="0/1" value="0" leadInLength="0/1"  />
            <InterpolatingParam id="1832" interp="linr"  time="0/1" value="0" leadInLength="0/1"  />
           </VectorParam>
           <VectorParam id="1833"  name="scale">
            <InterpolatingParam id="1834" interp="linr"  time="0/1" value="1" leadInLength="0/1"  />
            <InterpolatingParam id="1835" interp="linr"  time="0/1" value="1" leadInLength="0/1"  />
            <InterpolatingParam id="1836" interp="linr"  time="0/1" value="1" leadInLength="0/1"  />
           </VectorParam>
           <VectorParam id="1837"  name="anchor">
            <InterpolatingParam id="1838" interp="linr"  time="0/1" value="0" leadInLength="0/1"  />
            <InterpolatingParam id="1839" interp="linr"  time="0/1" value="0" leadInLength="0/1"  />
            <InterpolatingParam id="1840" interp="linr"  time="0/1" value="0" leadInLength="0/1"  />
           </VectorParam>
          </Transformer>
          <Parameters>
           <VectorParam id="1841"  name="sourceCrop">
            <InterpolatingParam id="1842" interp="linr"  time="0/1" value="0" leadInLength="0/1"  />
            <InterpolatingParam id="1843" interp="linr"  time="0/1" value="0" leadInLength="0/1"  />
            <InterpolatingParam id="1844" interp="linr"  time="0/1" value="0" leadInLength="0/1"  />
            <InterpolatingParam id="1845" interp="linr"  time="0/1" value="0" leadInLength="0/1"  />
           </VectorParam>
           <VectorParam id="1846"  name="geometryCrop">
            <InterpolatingParam id="1847" interp="linr"  time="0/1" value="0" leadInLength="0/1"  />
            <InterpolatingParam id="1848" interp="linr"  time="0/1" value="0" leadInLength="0/1"  />
            <InterpolatingParam id="1849" interp="linr"  time="0/1" value="0" leadInLength="0/1"  />
            <InterpolatingParam id="1850" interp="linr"  time="0/1" value="0" leadInLength="0/1"  />
           </VectorParam>
           <InterpolatingParam id="1851" interp="linr"  time="0/1" value="1" leadInLength="0/1"  name="opacity"/>
          </Parameters>
          <Effects>
           <GenericEffect id="1852" name = "VisualTransition" >
            <Parameters>
            <InterpolatingParam id="1853" interp="linr"  time="0/1" value="1" leadInLength="0/1"   name="leftFramePercentage"/>
            <InterpolatingParam id="1854" interp="linr"  time="0/1" value="1" leadInLength="0/1"   name="rightFramePercentage"/>
            <Parameter id="1855"   name="visualEdgeModType">
             <Keyframes>
             <Keyframe id="1856"  time="0/1" value="0" leadInLength="0/1"  />
             </Keyframes>
            </Parameter>
            <Parameter id="1857"   name="visualTransitionType">
             <Keyframes>
             <Keyframe id="1858"  time="0/1" value="Fade" leadInLength="0/1"  />
             </Keyframes>
            </Parameter>
            </Parameters>
            <MetaData>
            </MetaData>
           </GenericEffect>
          </Effects>
          <Attributes>
           <Attribute id="1859" value="" name="ident"/>
          </Attributes>
          <ExtraData>
           <Entry key="ZoomPanBin">
            <ZoomPanBin id="1860"  >
             <ZoomPanKeyframes>
             </ZoomPanKeyframes>
            </ZoomPanBin>
           </Entry>
          </ExtraData>
         </ImageTransition>
         <MetaData>
          <entry key="WinSubProjectDisplayName" val=""/>
         </MetaData>
        </UnifiedMedia>
        <IMFile id="1861" start="15514" duration="1910" scalar="1/1" mediaStart="0/1" mediaDuration="1/1" trackNumber="0" src="20" trimStartSum="15/1" >
         <Transformer>
          <VectorParam id="1862"  name="translation">
           <InterpolatingParam id="1863" interp="linr"  time="-9999999/1" value="0" leadInLength="0/1"  />
           <InterpolatingParam id="1864" interp="linr"  time="-9999999/1" value="0" leadInLength="0/1"  />
           <InterpolatingParam id="1865" interp="linr"  time="-9999999/1" value="0" leadInLength="0/1"  />
          </VectorParam>
          <VectorParam id="1866"  name="rotation">
           <InterpolatingParam id="1867" interp="linr"  time="-9999999/1" value="0" leadInLength="0/1"  />
           <InterpolatingParam id="1868" interp="linr"  time="-9999999/1" value="0" leadInLength="0/1"  />
           <InterpolatingParam id="1869" interp="linr"  time="-9999999/1" value="0" leadInLength="0/1"  />
          </VectorParam>
          <VectorParam id="1870"  name="shear">
           <InterpolatingParam id="1871" interp="linr"  time="-9999999/1" value="0" leadInLength="0/1"  />
           <InterpolatingParam id="1872" interp="linr"  time="-9999999/1" value="0" leadInLength="0/1"  />
           <InterpolatingParam id="1873" interp="linr"  time="-9999999/1" value="0" leadInLength="0/1"  />
          </VectorParam>
          <VectorParam id="1874"  name="scale">
           <InterpolatingParam id="1875" interp="linr"  time="-9999999/1" value="0.83333333333333337" leadInLength="0/1"  />
           <InterpolatingParam id="1876" interp="linr"  time="-9999999/1" value="0.83333333333333337" leadInLength="0/1"  />
           <InterpolatingParam id="1877" interp="linr"  time="-9999999/1" value="1" leadInLength="0/1"  />
          </VectorParam>
          <VectorParam id="1878"  name="anchor">
           <InterpolatingParam id="1879" interp="linr"  time="0/1" value="0" leadInLength="0/1"  />
           <InterpolatingParam id="1880" interp="linr"  time="0/1" value="0" leadInLength="0/1"  />
           <InterpolatingParam id="1881" interp="linr"  time="0/1" value="0" leadInLength="0/1"  />
          </VectorParam>
         </Transformer>
         <Parameters>
          <VectorParam id="1882"  name="sourceCrop">
           <InterpolatingParam id="1883" interp="linr"  time="0/1" value="0" leadInLength="0/1"  />
           <InterpolatingParam id="1884" interp="linr"  time="0/1" value="0" leadInLength="0/1"  />
           <InterpolatingParam id="1885" interp="linr"  time="0/1" value="0" leadInLength="0/1"  />
           <InterpolatingParam id="1886" interp="linr"  time="0/1" value="0" leadInLength="0/1"  />
          </VectorParam>
          <VectorParam id="1887"  name="geometryCrop">
           <InterpolatingParam id="1888" interp="linr"  time="-9999999/1" value="0" leadInLength="0/1"  />
           <InterpolatingParam id="1889" interp="linr"  time="-9999999/1" value="0" leadInLength="0/1"  />
           <InterpolatingParam id="1890" interp="linr"  time="-9999999/1" value="0" leadInLength="0/1"  />
           <InterpolatingParam id="1891" interp="linr"  time="-9999999/1" value="0" leadInLength="0/1"  />
          </VectorParam>
          <InterpolatingParam id="1892" interp="linr"  time="-9999999/1" value="1" leadInLength="0/1"  name="opacity"/>
         </Parameters>
         <Attributes>
          <Attribute id="1893" value="" name="ident"/>
         </Attributes>
         <MetaData>
          <entry key="WinSubProjectDisplayName" val=""/>
         </MetaData>
         <ExtraData>
          <Entry key="ZoomPanBin">
           <ZoomPanBin id="1894"  >
            <ZoomPanKeyframes>
             <ZoomPanKeyframe id="1895" timeRangeEnd="-9999999/1" timeRangeDuration="0/1" interpolaterName="linr"  />
            </ZoomPanKeyframes>
           </ZoomPanBin>
          </Entry>
         </ExtraData>
        </IMFile>
        <UnifiedMedia id="1896"  >
         <AudioTransition id="1897" start="17424" duration="30" >
          <Parameters>
           <InterpolatingParam id="1898" interp="linr"  time="0/1" value="1" leadInLength="0/1"  name="volume"/>
           <Parameter id="1899"  name="captions"/>
          </Parameters>
          <Effects>
           <GenericEffect id="1900" name = "AudioTransition" >
            <Parameters>
            <Parameter id="1901"   name="audioEdgeModType">
             <Keyframes>
             <Keyframe id="1902"  time="0/1" value="0" leadInLength="0/1"  />
             </Keyframes>
            </Parameter>
            <Parameter id="1903"   name="audioTransitionType">
             <Keyframes>
             <Keyframe id="1904"  time="0/1" value="" leadInLength="0/1"  />
             </Keyframes>
            </Parameter>
            </Parameters>
            <MetaData>
            </MetaData>
           </GenericEffect>
          </Effects>
          <Attributes>
           <Attribute id="1905" value="" name="ident"/>
           <Attribute id="1906" value="0" name="sampleRate"/>
           <Attribute id="1907" value="0" name="bitDepth"/>
           <Attribute id="1908" value="1" name="gain"/>
           <Attribute id="1909" value="0" name="mixToMono"/>
          </Attributes>
         </AudioTransition>
         <ImageTransition id="1910" start="17424" duration="30" >
          <Transformer>
           <VectorParam id="1911"  name="translation">
            <InterpolatingParam id="1912" interp="linr"  time="0/1" value="0" leadInLength="0/1"  />
            <InterpolatingParam id="1913" interp="linr"  time="0/1" value="0" leadInLength="0/1"  />
            <InterpolatingParam id="1914" interp="linr"  time="0/1" value="0" leadInLength="0/1"  />
           </VectorParam>
           <VectorParam id="1915"  name="rotation">
            <InterpolatingParam id="1916" interp="linr"  time="0/1" value="0" leadInLength="0/1"  />
            <InterpolatingParam id="1917" interp="linr"  time="0/1" value="0" leadInLength="0/1"  />
            <InterpolatingParam id="1918" interp="linr"  time="0/1" value="0" leadInLength="0/1"  />
           </VectorParam>
           <VectorParam id="1919"  name="shear">
            <InterpolatingParam id="1920" interp="linr"  time="0/1" value="0" leadInLength="0/1"  />
            <InterpolatingParam id="1921" interp="linr"  time="0/1" value="0" leadInLength="0/1"  />
            <InterpolatingParam id="1922" interp="linr"  time="0/1" value="0" leadInLength="0/1"  />
           </VectorParam>
           <VectorParam id="1923"  name="scale">
            <InterpolatingParam id="1924" interp="linr"  time="0/1" value="1" leadInLength="0/1"  />
            <InterpolatingParam id="1925" interp="linr"  time="0/1" value="1" leadInLength="0/1"  />
            <InterpolatingParam id="1926" interp="linr"  time="0/1" value="1" leadInLength="0/1"  />
           </VectorParam>
           <VectorParam id="1927"  name="anchor">
            <InterpolatingParam id="1928" interp="linr"  time="0/1" value="0" leadInLength="0/1"  />
            <InterpolatingParam id="1929" interp="linr"  time="0/1" value="0" leadInLength="0/1"  />
            <InterpolatingParam id="1930" interp="linr"  time="0/1" value="0" leadInLength="0/1"  />
           </VectorParam>
          </Transformer>
          <Parameters>
           <VectorParam id="1931"  name="sourceCrop">
            <InterpolatingParam id="1932" interp="linr"  time="0/1" value="0" leadInLength="0/1"  />
            <InterpolatingParam id="1933" interp="linr"  time="0/1" value="0" leadInLength="0/1"  />
            <InterpolatingParam id="1934" interp="linr"  time="0/1" value="0" leadInLength="0/1"  />
            <InterpolatingParam id="1935" interp="linr"  time="0/1" value="0" leadInLength="0/1"  />
           </VectorParam>
           <VectorParam id="1936"  name="geometryCrop">
            <InterpolatingParam id="1937" interp="linr"  time="0/1" value="0" leadInLength="0/1"  />
            <InterpolatingParam id="1938" interp="linr"  time="0/1" value="0" leadInLength="0/1"  />
            <InterpolatingParam id="1939" interp="linr"  time="0/1" value="0" leadInLength="0/1"  />
            <InterpolatingParam id="1940" interp="linr"  time="0/1" value="0" leadInLength="0/1"  />
           </VectorParam>
           <InterpolatingParam id="1941" interp="linr"  time="0/1" value="1" leadInLength="0/1"  name="opacity"/>
          </Parameters>
          <Effects>
           <GenericEffect id="1942" name = "VisualTransition" >
            <Parameters>
            <InterpolatingParam id="1943" interp="linr"  time="0/1" value="1" leadInLength="0/1"   name="leftFramePercentage"/>
            <InterpolatingParam id="1944" interp="linr"  time="0/1" value="1" leadInLength="0/1"   name="rightFramePercentage"/>
            <Parameter id="1945"   name="visualEdgeModType">
             <Keyframes>
             <Keyframe id="1946"  time="0/1" value="0" leadInLength="0/1"  />
             </Keyframes>
            </Parameter>
            <Parameter id="1947"   name="visualTransitionType">
             <Keyframes>
             <Keyframe id="1948"  time="0/1" value="Fade" leadInLength="0/1"  />
             </Keyframes>
            </Parameter>
            </Parameters>
            <MetaData>
            </MetaData>
           </GenericEffect>
          </Effects>
          <Attributes>
           <Attribute id="1949" value="" name="ident"/>
          </Attributes>
          <ExtraData>
           <Entry key="ZoomPanBin">
            <ZoomPanBin id="1950"  >
             <ZoomPanKeyframes>
             </ZoomPanKeyframes>
            </ZoomPanBin>
           </Entry>
          </ExtraData>
         </ImageTransition>
         <MetaData>
          <entry key="WinSubProjectDisplayName" val=""/>
         </MetaData>
        </UnifiedMedia>
        <IMFile id="1951" start="17454" duration="81" scalar="1/1" mediaStart="0/1" mediaDuration="1/1" trackNumber="0" src="21" trimStartSum="15/1" >
         <Transformer>
          <VectorParam id="1952"  name="translation">
           <InterpolatingParam id="1953" interp="linr"  time="-9999999/1" value="0" leadInLength="0/1"  />
           <InterpolatingParam id="1954" interp="linr"  time="-9999999/1" value="0" leadInLength="0/1"  />
           <InterpolatingParam id="1955" interp="linr"  time="-9999999/1" value="0" leadInLength="0/1"  />
          </VectorParam>
          <VectorParam id="1956"  name="rotation">
           <InterpolatingParam id="1957" interp="linr"  time="-9999999/1" value="0" leadInLength="0/1"  />
           <InterpolatingParam id="1958" interp="linr"  time="-9999999/1" value="0" leadInLength="0/1"  />
           <InterpolatingParam id="1959" interp="linr"  time="-9999999/1" value="0" leadInLength="0/1"  />
          </VectorParam>
          <VectorParam id="1960"  name="shear">
           <InterpolatingParam id="1961" interp="linr"  time="-9999999/1" value="0" leadInLength="0/1"  />
           <InterpolatingParam id="1962" interp="linr"  time="-9999999/1" value="0" leadInLength="0/1"  />
           <InterpolatingParam id="1963" interp="linr"  time="-9999999/1" value="0" leadInLength="0/1"  />
          </VectorParam>
          <VectorParam id="1964"  name="scale">
           <InterpolatingParam id="1965" interp="linr"  time="-9999999/1" value="0.83333333333333337" leadInLength="0/1"  />
           <InterpolatingParam id="1966" interp="linr"  time="-9999999/1" value="0.83333333333333337" leadInLength="0/1"  />
           <InterpolatingParam id="1967" interp="linr"  time="-9999999/1" value="1" leadInLength="0/1"  />
          </VectorParam>
          <VectorParam id="1968"  name="anchor">
           <InterpolatingParam id="1969" interp="linr"  time="0/1" value="0" leadInLength="0/1"  />
           <InterpolatingParam id="1970" interp="linr"  time="0/1" value="0" leadInLength="0/1"  />
           <InterpolatingParam id="1971" interp="linr"  time="0/1" value="0" leadInLength="0/1"  />
          </VectorParam>
         </Transformer>
         <Parameters>
          <VectorParam id="1972"  name="sourceCrop">
           <InterpolatingParam id="1973" interp="linr"  time="0/1" value="0" leadInLength="0/1"  />
           <InterpolatingParam id="1974" interp="linr"  time="0/1" value="0" leadInLength="0/1"  />
           <InterpolatingParam id="1975" interp="linr"  time="0/1" value="0" leadInLength="0/1"  />
           <InterpolatingParam id="1976" interp="linr"  time="0/1" value="0" leadInLength="0/1"  />
          </VectorParam>
          <VectorParam id="1977"  name="geometryCrop">
           <InterpolatingParam id="1978" interp="linr"  time="-9999999/1" value="0" leadInLength="0/1"  />
           <InterpolatingParam id="1979" interp="linr"  time="-9999999/1" value="0" leadInLength="0/1"  />
           <InterpolatingParam id="1980" interp="linr"  time="-9999999/1" value="0" leadInLength="0/1"  />
           <InterpolatingParam id="1981" interp="linr"  time="-9999999/1" value="0" leadInLength="0/1"  />
          </VectorParam>
          <InterpolatingParam id="1982" interp="linr"  time="-9999999/1" value="1" leadInLength="0/1"  name="opacity"/>
         </Parameters>
         <Attributes>
          <Attribute id="1983" value="" name="ident"/>
         </Attributes>
         <MetaData>
          <entry key="WinSubProjectDisplayName" val=""/>
         </MetaData>
         <ExtraData>
          <Entry key="ZoomPanBin">
           <ZoomPanBin id="1984"  >
            <ZoomPanKeyframes>
             <ZoomPanKeyframe id="1985" timeRangeEnd="-9999999/1" timeRangeDuration="0/1" interpolaterName="linr"  />
            </ZoomPanKeyframes>
           </ZoomPanBin>
          </Entry>
         </ExtraData>
        </IMFile>
        <UnifiedMedia id="1986"  >
         <AudioTransition id="1987" start="17535" duration="30" >
          <Parameters>
           <InterpolatingParam id="1988" interp="linr"  time="0/1" value="1" leadInLength="0/1"  name="volume"/>
           <Parameter id="1989"  name="captions"/>
          </Parameters>
          <Effects>
           <GenericEffect id="1990" name = "AudioTransition" >
            <Parameters>
            <Parameter id="1991"   name="audioEdgeModType">
             <Keyframes>
             <Keyframe id="1992"  time="0/1" value="0" leadInLength="0/1"  />
             </Keyframes>
            </Parameter>
            <Parameter id="1993"   name="audioTransitionType">
             <Keyframes>
             <Keyframe id="1994"  time="0/1" value="" leadInLength="0/1"  />
             </Keyframes>
            </Parameter>
            </Parameters>
            <MetaData>
            </MetaData>
           </GenericEffect>
          </Effects>
          <Attributes>
           <Attribute id="1995" value="" name="ident"/>
           <Attribute id="1996" value="0" name="sampleRate"/>
           <Attribute id="1997" value="0" name="bitDepth"/>
           <Attribute id="1998" value="1" name="gain"/>
           <Attribute id="1999" value="0" name="mixToMono"/>
          </Attributes>
         </AudioTransition>
         <ImageTransition id="2000" start="17535" duration="30" >
          <Transformer>
           <VectorParam id="2001"  name="translation">
            <InterpolatingParam id="2002" interp="linr"  time="0/1" value="0" leadInLength="0/1"  />
            <InterpolatingParam id="2003" interp="linr"  time="0/1" value="0" leadInLength="0/1"  />
            <InterpolatingParam id="2004" interp="linr"  time="0/1" value="0" leadInLength="0/1"  />
           </VectorParam>
           <VectorParam id="2005"  name="rotation">
            <InterpolatingParam id="2006" interp="linr"  time="0/1" value="0" leadInLength="0/1"  />
            <InterpolatingParam id="2007" interp="linr"  time="0/1" value="0" leadInLength="0/1"  />
            <InterpolatingParam id="2008" interp="linr"  time="0/1" value="0" leadInLength="0/1"  />
           </VectorParam>
           <VectorParam id="2009"  name="shear">
            <InterpolatingParam id="2010" interp="linr"  time="0/1" value="0" leadInLength="0/1"  />
            <InterpolatingParam id="2011" interp="linr"  time="0/1" value="0" leadInLength="0/1"  />
            <InterpolatingParam id="2012" interp="linr"  time="0/1" value="0" leadInLength="0/1"  />
           </VectorParam>
           <VectorParam id="2013"  name="scale">
            <InterpolatingParam id="2014" interp="linr"  time="0/1" value="1" leadInLength="0/1"  />
            <InterpolatingParam id="2015" interp="linr"  time="0/1" value="1" leadInLength="0/1"  />
            <InterpolatingParam id="2016" interp="linr"  time="0/1" value="1" leadInLength="0/1"  />
           </VectorParam>
           <VectorParam id="2017"  name="anchor">
            <InterpolatingParam id="2018" interp="linr"  time="0/1" value="0" leadInLength="0/1"  />
            <InterpolatingParam id="2019" interp="linr"  time="0/1" value="0" leadInLength="0/1"  />
            <InterpolatingParam id="2020" interp="linr"  time="0/1" value="0" leadInLength="0/1"  />
           </VectorParam>
          </Transformer>
          <Parameters>
           <VectorParam id="2021"  name="sourceCrop">
            <InterpolatingParam id="2022" interp="linr"  time="0/1" value="0" leadInLength="0/1"  />
            <InterpolatingParam id="2023" interp="linr"  time="0/1" value="0" leadInLength="0/1"  />
            <InterpolatingParam id="2024" interp="linr"  time="0/1" value="0" leadInLength="0/1"  />
            <InterpolatingParam id="2025" interp="linr"  time="0/1" value="0" leadInLength="0/1"  />
           </VectorParam>
           <VectorParam id="2026"  name="geometryCrop">
            <InterpolatingParam id="2027" interp="linr"  time="0/1" value="0" leadInLength="0/1"  />
            <InterpolatingParam id="2028" interp="linr"  time="0/1" value="0" leadInLength="0/1"  />
            <InterpolatingParam id="2029" interp="linr"  time="0/1" value="0" leadInLength="0/1"  />
            <InterpolatingParam id="2030" interp="linr"  time="0/1" value="0" leadInLength="0/1"  />
           </VectorParam>
           <InterpolatingParam id="2031" interp="linr"  time="0/1" value="1" leadInLength="0/1"  name="opacity"/>
          </Parameters>
          <Effects>
           <GenericEffect id="2032" name = "VisualTransition" >
            <Parameters>
            <InterpolatingParam id="2033" interp="linr"  time="0/1" value="0.5" leadInLength="0/1"   name="leftFramePercentage"/>
            <InterpolatingParam id="2034" interp="linr"  time="0/1" value="0.5" leadInLength="0/1"   name="rightFramePercentage"/>
            <Parameter id="2035"   name="visualEdgeModType">
             <Keyframes>
             <Keyframe id="2036"  time="0/1" value="2" leadInLength="0/1"  />
             </Keyframes>
            </Parameter>
            <Parameter id="2037"   name="visualTransitionType">
             <Keyframes>
             <Keyframe id="2038"  time="0/1" value="Fade" leadInLength="0/1"  />
             </Keyframes>
            </Parameter>
            </Parameters>
            <MetaData>
            </MetaData>
           </GenericEffect>
          </Effects>
          <Attributes>
           <Attribute id="2039" value="" name="ident"/>
          </Attributes>
          <ExtraData>
           <Entry key="ZoomPanBin">
            <ZoomPanBin id="2040"  >
             <ZoomPanKeyframes>
             </ZoomPanKeyframes>
            </ZoomPanBin>
           </Entry>
          </ExtraData>
         </ImageTransition>
         <MetaData>
          <entry key="WinSubProjectDisplayName" val=""/>
         </MetaData>
        </UnifiedMedia>
       </Medias>
      </GenericTrack>
      <GenericTrack id="2041"  >
       <Attributes>
        <Attribute id="2042" value="" name="ident"/>
        <Attribute id="2043" value="0" name="audioMuted"/>
        <Attribute id="2044" value="0" name="videoHidden"/>
       </Attributes>
       <MetaData>
        <entry key="IsLocked" val="False"/>
        <entry key="WinTrackHeight" val="57.227272727272734"/>
       </MetaData>
       <Medias>
       </Medias>
      </GenericTrack>
      <GenericTrack id="2045"  >
       <Attributes>
        <Attribute id="2046" value="" name="ident"/>
        <Attribute id="2047" value="0" name="audioMuted"/>
        <Attribute id="2048" value="0" name="videoHidden"/>
       </Attributes>
       <MetaData>
        <entry key="IsLocked" val="False"/>
        <entry key="WinTrackHeight" val="57.227272727272734"/>
       </MetaData>
       <Medias>
       </Medias>
      </GenericTrack>
      <GenericTrack id="2049"  >
       <Attributes>
        <Attribute id="2050" value="" name="ident"/>
        <Attribute id="2051" value="0" name="audioMuted"/>
        <Attribute id="2052" value="0" name="videoHidden"/>
       </Attributes>
       <MetaData>
        <entry key="IsLocked" val="False"/>
        <entry key="WinTrackHeight" val="57.227272727272734"/>
       </MetaData>
       <Medias>
       </Medias>
      </GenericTrack>
      <GenericTrack id="2053"  >
       <Attributes>
        <Attribute id="2054" value="" name="ident"/>
        <Attribute id="2055" value="0" name="audioMuted"/>
        <Attribute id="2056" value="0" name="videoHidden"/>
       </Attributes>
       <MetaData>
        <entry key="IsLocked" val="False"/>
        <entry key="WinTrackHeight" val="57.227272727272734"/>
       </MetaData>
       <Medias>
       </Medias>
      </GenericTrack>
      <GenericTrack id="2057"  >
       <Attributes>
        <Attribute id="2058" value="" name="ident"/>
        <Attribute id="2059" value="0" name="audioMuted"/>
        <Attribute id="2060" value="0" name="videoHidden"/>
       </Attributes>
       <MetaData>
        <entry key="IsLocked" val="False"/>
        <entry key="WinTrackHeight" val="57.227272727272734"/>
       </MetaData>
       <Medias>
       </Medias>
      </GenericTrack>
      <GenericTrack id="2061"  >
       <Attributes>
        <Attribute id="2062" value="" name="ident"/>
        <Attribute id="2063" value="0" name="audioMuted"/>
        <Attribute id="2064" value="0" name="videoHidden"/>
       </Attributes>
       <MetaData>
        <entry key="IsLocked" val="False"/>
        <entry key="WinTrackHeight" val="57.227272727272734"/>
       </MetaData>
       <Medias>
       </Medias>
      </GenericTrack>
      <GenericTrack id="2065"  >
       <Attributes>
        <Attribute id="2066" value="" name="ident"/>
        <Attribute id="2067" value="0" name="audioMuted"/>
        <Attribute id="2068" value="0" name="videoHidden"/>
       </Attributes>
       <MetaData>
        <entry key="IsLocked" val="False"/>
        <entry key="WinTrackHeight" val="57.227272727272734"/>
       </MetaData>
       <Medias>
       </Medias>
      </GenericTrack>
     </Tracks>
    </GenericMixer>
   <CaptionAttributes id="2069"  >
    <Attribute id="2070" value="1" name="captionsEnabled"/>
    <Attribute id="2071" value="Arial" name="captionsFontName"/>
    <Attribute id="2072" value="20" name="captionsFontSize"/>
    <Attribute id="2073" value="(0,0,0,255)" name="captionsBackgroundColor"/>
    <Attribute id="2074" value="(255,255,255,255)" name="captionsForegroundColor"/>
    <Attribute id="2075" value="en" name="lang"/>
    <Attribute id="2076" value="0" name="captionsAlignment"/>
    <Attribute id="2077" value="1" name="captionsDefaultFontSize"/>
    <Attribute id="2078" value="0.5" name="captionsOpacity"/>
    <Attribute id="2079" value="1" name="captionsBackgroundEnabled"/>
    <Attribute id="2080" value="1" name="captionsBackgroundOnlyAroundText"/>
   </CaptionAttributes>
   <Parameters>
    <VectorParam id="2081"  name="eyePosition">
     <InterpolatingParam id="2082" interp="linr"  time="0/1" value="0" leadInLength="0/1"  />
     <InterpolatingParam id="2083" interp="linr"  time="0/1" value="0" leadInLength="0/1"  />
     <InterpolatingParam id="2084" interp="linr"  time="0/1" value="3000" leadInLength="0/1"  />
    </VectorParam>
    <VectorParam id="2085"  name="eyeLookAtPosition">
     <InterpolatingParam id="2086" interp="linr"  time="0/1" value="0" leadInLength="0/1"  />
     <InterpolatingParam id="2087" interp="linr"  time="0/1" value="0" leadInLength="0/1"  />
     <InterpolatingParam id="2088" interp="linr"  time="0/1" value="0" leadInLength="0/1"  />
    </VectorParam>
    <VectorParam id="2089"  name="eyeUpVector">
     <InterpolatingParam id="2090" interp="linr"  time="0/1" value="0" leadInLength="0/1"  />
     <InterpolatingParam id="2091" interp="linr"  time="0/1" value="1" leadInLength="0/1"  />
     <InterpolatingParam id="2092" interp="linr"  time="0/1" value="0" leadInLength="0/1"  />
    </VectorParam>
    <InterpolatingParam id="2093" interp="linr"  time="0/1" value="0" leadInLength="0/1"  name="fov"/>
    <InterpolatingParam id="2094" interp="linr"  time="0/1" value="1.5" leadInLength="0/1"  name="nearClipDistance"/>
    <InterpolatingParam id="2095" interp="linr"  time="0/1" value="6000" leadInLength="0/1"  name="farClipDistance"/>
   </Parameters>
  </Timeline>
 </Project>
</GoProject>
</CSMLData>

</Project_Data>
